%TF.GenerationSoftware,KiCad,Pcbnew,5.1.10*%
%TF.CreationDate,2021-10-31T07:52:44-04:00*%
%TF.ProjectId,555_badge,3535355f-6261-4646-9765-2e6b69636164,v01*%
%TF.SameCoordinates,Original*%
%TF.FileFunction,Soldermask,Top*%
%TF.FilePolarity,Negative*%
%FSLAX46Y46*%
G04 Gerber Fmt 4.6, Leading zero omitted, Abs format (unit mm)*
G04 Created by KiCad (PCBNEW 5.1.10) date 2021-10-31 07:52:44*
%MOMM*%
%LPD*%
G01*
G04 APERTURE LIST*
%ADD10C,1.601600*%
%ADD11C,2.601600*%
%ADD12C,1.701600*%
%ADD13C,1.901600*%
%ADD14O,1.701600X1.701600*%
%ADD15C,2.001600*%
%ADD16C,1.625600*%
G04 APERTURE END LIST*
%TO.C,Q1*%
G36*
G01*
X174994000Y-118910800D02*
X173494000Y-118910800D01*
G75*
G02*
X173443200Y-118860000I0J50800D01*
G01*
X173443200Y-117360000D01*
G75*
G02*
X173494000Y-117309200I50800J0D01*
G01*
X174994000Y-117309200D01*
G75*
G02*
X175044800Y-117360000I0J-50800D01*
G01*
X175044800Y-118860000D01*
G75*
G02*
X174994000Y-118910800I-50800J0D01*
G01*
G37*
D10*
X174244000Y-123310000D03*
X174244000Y-120710000D03*
%TD*%
%TO.C,BAT1*%
G36*
G01*
X132391601Y-105250001D02*
X132391601Y-103080001D01*
G75*
G02*
X132442401Y-103029201I50800J0D01*
G01*
X134612401Y-103029201D01*
G75*
G02*
X134663201Y-103080001I0J-50800D01*
G01*
X134663201Y-105250001D01*
G75*
G02*
X134612401Y-105300801I-50800J0D01*
G01*
X132442401Y-105300801D01*
G75*
G02*
X132391601Y-105250001I0J50800D01*
G01*
G37*
D11*
X153527401Y-104165001D03*
%TD*%
%TO.C,C1*%
G36*
G01*
X168289442Y-111985001D02*
X168289442Y-110385001D01*
G75*
G02*
X168340242Y-110334201I50800J0D01*
G01*
X169940242Y-110334201D01*
G75*
G02*
X169991042Y-110385001I0J-50800D01*
G01*
X169991042Y-111985001D01*
G75*
G02*
X169940242Y-112035801I-50800J0D01*
G01*
X168340242Y-112035801D01*
G75*
G02*
X168289442Y-111985001I0J50800D01*
G01*
G37*
D12*
X171640242Y-111185001D03*
%TD*%
%TO.C,C2*%
G36*
G01*
X165243976Y-119185001D02*
X165243976Y-117585001D01*
G75*
G02*
X165294776Y-117534201I50800J0D01*
G01*
X166894776Y-117534201D01*
G75*
G02*
X166945576Y-117585001I0J-50800D01*
G01*
X166945576Y-119185001D01*
G75*
G02*
X166894776Y-119235801I-50800J0D01*
G01*
X165294776Y-119235801D01*
G75*
G02*
X165243976Y-119185001I0J50800D01*
G01*
G37*
X168094776Y-118385001D03*
%TD*%
%TO.C,D1*%
G36*
G01*
X148524800Y-74030000D02*
X148524800Y-75830000D01*
G75*
G02*
X148474000Y-75880800I-50800J0D01*
G01*
X146674000Y-75880800D01*
G75*
G02*
X146623200Y-75830000I0J50800D01*
G01*
X146623200Y-74030000D01*
G75*
G02*
X146674000Y-73979200I50800J0D01*
G01*
X148474000Y-73979200D01*
G75*
G02*
X148524800Y-74030000I0J-50800D01*
G01*
G37*
D13*
X145034000Y-74930000D03*
%TD*%
%TO.C,D2*%
X157734000Y-74930000D03*
G36*
G01*
X161224800Y-74030000D02*
X161224800Y-75830000D01*
G75*
G02*
X161174000Y-75880800I-50800J0D01*
G01*
X159374000Y-75880800D01*
G75*
G02*
X159323200Y-75830000I0J50800D01*
G01*
X159323200Y-74030000D01*
G75*
G02*
X159374000Y-73979200I50800J0D01*
G01*
X161174000Y-73979200D01*
G75*
G02*
X161224800Y-74030000I0J-50800D01*
G01*
G37*
%TD*%
D14*
%TO.C,R1*%
X151385001Y-118145001D03*
D12*
X143765001Y-118145001D03*
%TD*%
%TO.C,R2*%
X157135001Y-105235001D03*
D14*
X164755001Y-105235001D03*
%TD*%
D12*
%TO.C,R3*%
X168745001Y-94235001D03*
D14*
X176365001Y-94235001D03*
%TD*%
%TO.C,R4*%
X162155001Y-118145001D03*
D12*
X154535001Y-118145001D03*
%TD*%
%TO.C,R5*%
X168745001Y-98285001D03*
D14*
X176365001Y-98285001D03*
%TD*%
%TO.C,R6*%
X164755001Y-109285001D03*
D12*
X157135001Y-109285001D03*
%TD*%
%TO.C,R7*%
X167905001Y-105235001D03*
D14*
X175525001Y-105235001D03*
%TD*%
%TO.C,S1*%
G36*
G01*
X132234201Y-119845001D02*
X132234201Y-117945001D01*
G75*
G02*
X132285001Y-117894201I50800J0D01*
G01*
X134185001Y-117894201D01*
G75*
G02*
X134235801Y-117945001I0J-50800D01*
G01*
X134235801Y-119845001D01*
G75*
G02*
X134185001Y-119895801I-50800J0D01*
G01*
X132285001Y-119895801D01*
G75*
G02*
X132234201Y-119845001I0J50800D01*
G01*
G37*
D15*
X135735001Y-118895001D03*
X138235001Y-118895001D03*
%TD*%
D16*
%TO.C,U1*%
X157685601Y-101092000D03*
X160225601Y-101092000D03*
X162765601Y-101092000D03*
X165305601Y-101092000D03*
X165305601Y-93472000D03*
X162765601Y-93472000D03*
X160225601Y-93472000D03*
X157685601Y-93472000D03*
%TD*%
M02*
