%TF.GenerationSoftware,KiCad,Pcbnew,5.1.10*%
%TF.CreationDate,2021-10-31T07:52:44-04:00*%
%TF.ProjectId,555_badge,3535355f-6261-4646-9765-2e6b69636164,v01*%
%TF.SameCoordinates,Original*%
%TF.FileFunction,Legend,Bot*%
%TF.FilePolarity,Positive*%
%FSLAX46Y46*%
G04 Gerber Fmt 4.6, Leading zero omitted, Abs format (unit mm)*
G04 Created by KiCad (PCBNEW 5.1.10) date 2021-10-31 07:52:44*
%MOMM*%
%LPD*%
G01*
G04 APERTURE LIST*
%ADD10C,0.150000*%
%ADD11C,0.508000*%
G04 APERTURE END LIST*
D10*
X166511142Y-70810380D02*
X166511142Y-69810380D01*
X166130190Y-69810380D01*
X166034952Y-69858000D01*
X165987333Y-69905619D01*
X165939714Y-70000857D01*
X165939714Y-70143714D01*
X165987333Y-70238952D01*
X166034952Y-70286571D01*
X166130190Y-70334190D01*
X166511142Y-70334190D01*
X165511142Y-70810380D02*
X165511142Y-70143714D01*
X165511142Y-70334190D02*
X165463523Y-70238952D01*
X165415904Y-70191333D01*
X165320666Y-70143714D01*
X165225428Y-70143714D01*
X164892095Y-70810380D02*
X164892095Y-70143714D01*
X164892095Y-69810380D02*
X164939714Y-69858000D01*
X164892095Y-69905619D01*
X164844476Y-69858000D01*
X164892095Y-69810380D01*
X164892095Y-69905619D01*
X164415904Y-70810380D02*
X164415904Y-70143714D01*
X164415904Y-70238952D02*
X164368285Y-70191333D01*
X164273047Y-70143714D01*
X164130190Y-70143714D01*
X164034952Y-70191333D01*
X163987333Y-70286571D01*
X163987333Y-70810380D01*
X163987333Y-70286571D02*
X163939714Y-70191333D01*
X163844476Y-70143714D01*
X163701619Y-70143714D01*
X163606380Y-70191333D01*
X163558761Y-70286571D01*
X163558761Y-70810380D01*
X162701619Y-70762761D02*
X162796857Y-70810380D01*
X162987333Y-70810380D01*
X163082571Y-70762761D01*
X163130190Y-70667523D01*
X163130190Y-70286571D01*
X163082571Y-70191333D01*
X162987333Y-70143714D01*
X162796857Y-70143714D01*
X162701619Y-70191333D01*
X162654000Y-70286571D01*
X162654000Y-70381809D01*
X163130190Y-70477047D01*
X161463523Y-70286571D02*
X161130190Y-70286571D01*
X160987333Y-70810380D02*
X161463523Y-70810380D01*
X161463523Y-69810380D01*
X160987333Y-69810380D01*
X160558761Y-70143714D02*
X160558761Y-70810380D01*
X160558761Y-70238952D02*
X160511142Y-70191333D01*
X160415904Y-70143714D01*
X160273047Y-70143714D01*
X160177809Y-70191333D01*
X160130190Y-70286571D01*
X160130190Y-70810380D01*
X159225428Y-70143714D02*
X159225428Y-70953238D01*
X159273047Y-71048476D01*
X159320666Y-71096095D01*
X159415904Y-71143714D01*
X159558761Y-71143714D01*
X159654000Y-71096095D01*
X159225428Y-70762761D02*
X159320666Y-70810380D01*
X159511142Y-70810380D01*
X159606380Y-70762761D01*
X159654000Y-70715142D01*
X159701619Y-70619904D01*
X159701619Y-70334190D01*
X159654000Y-70238952D01*
X159606380Y-70191333D01*
X159511142Y-70143714D01*
X159320666Y-70143714D01*
X159225428Y-70191333D01*
X158749238Y-70810380D02*
X158749238Y-70143714D01*
X158749238Y-69810380D02*
X158796857Y-69858000D01*
X158749238Y-69905619D01*
X158701619Y-69858000D01*
X158749238Y-69810380D01*
X158749238Y-69905619D01*
X158273047Y-70143714D02*
X158273047Y-70810380D01*
X158273047Y-70238952D02*
X158225428Y-70191333D01*
X158130190Y-70143714D01*
X157987333Y-70143714D01*
X157892095Y-70191333D01*
X157844476Y-70286571D01*
X157844476Y-70810380D01*
X156987333Y-70762761D02*
X157082571Y-70810380D01*
X157273047Y-70810380D01*
X157368285Y-70762761D01*
X157415904Y-70667523D01*
X157415904Y-70286571D01*
X157368285Y-70191333D01*
X157273047Y-70143714D01*
X157082571Y-70143714D01*
X156987333Y-70191333D01*
X156939714Y-70286571D01*
X156939714Y-70381809D01*
X157415904Y-70477047D01*
X156130190Y-70762761D02*
X156225428Y-70810380D01*
X156415904Y-70810380D01*
X156511142Y-70762761D01*
X156558761Y-70667523D01*
X156558761Y-70286571D01*
X156511142Y-70191333D01*
X156415904Y-70143714D01*
X156225428Y-70143714D01*
X156130190Y-70191333D01*
X156082571Y-70286571D01*
X156082571Y-70381809D01*
X156558761Y-70477047D01*
X155654000Y-70810380D02*
X155654000Y-70143714D01*
X155654000Y-70334190D02*
X155606380Y-70238952D01*
X155558761Y-70191333D01*
X155463523Y-70143714D01*
X155368285Y-70143714D01*
X155034952Y-70810380D02*
X155034952Y-70143714D01*
X155034952Y-69810380D02*
X155082571Y-69858000D01*
X155034952Y-69905619D01*
X154987333Y-69858000D01*
X155034952Y-69810380D01*
X155034952Y-69905619D01*
X154558761Y-70143714D02*
X154558761Y-70810380D01*
X154558761Y-70238952D02*
X154511142Y-70191333D01*
X154415904Y-70143714D01*
X154273047Y-70143714D01*
X154177809Y-70191333D01*
X154130190Y-70286571D01*
X154130190Y-70810380D01*
X153225428Y-70143714D02*
X153225428Y-70953238D01*
X153273047Y-71048476D01*
X153320666Y-71096095D01*
X153415904Y-71143714D01*
X153558761Y-71143714D01*
X153654000Y-71096095D01*
X153225428Y-70762761D02*
X153320666Y-70810380D01*
X153511142Y-70810380D01*
X153606380Y-70762761D01*
X153654000Y-70715142D01*
X153701619Y-70619904D01*
X153701619Y-70334190D01*
X153654000Y-70238952D01*
X153606380Y-70191333D01*
X153511142Y-70143714D01*
X153320666Y-70143714D01*
X153225428Y-70191333D01*
X151415904Y-70715142D02*
X151463523Y-70762761D01*
X151606380Y-70810380D01*
X151701619Y-70810380D01*
X151844476Y-70762761D01*
X151939714Y-70667523D01*
X151987333Y-70572285D01*
X152034952Y-70381809D01*
X152034952Y-70238952D01*
X151987333Y-70048476D01*
X151939714Y-69953238D01*
X151844476Y-69858000D01*
X151701619Y-69810380D01*
X151606380Y-69810380D01*
X151463523Y-69858000D01*
X151415904Y-69905619D01*
X150844476Y-70810380D02*
X150939714Y-70762761D01*
X150987333Y-70715142D01*
X151034952Y-70619904D01*
X151034952Y-70334190D01*
X150987333Y-70238952D01*
X150939714Y-70191333D01*
X150844476Y-70143714D01*
X150701619Y-70143714D01*
X150606380Y-70191333D01*
X150558761Y-70238952D01*
X150511142Y-70334190D01*
X150511142Y-70619904D01*
X150558761Y-70715142D01*
X150606380Y-70762761D01*
X150701619Y-70810380D01*
X150844476Y-70810380D01*
X150082571Y-70810380D02*
X150082571Y-70143714D01*
X150082571Y-70238952D02*
X150034952Y-70191333D01*
X149939714Y-70143714D01*
X149796857Y-70143714D01*
X149701619Y-70191333D01*
X149654000Y-70286571D01*
X149654000Y-70810380D01*
X149654000Y-70286571D02*
X149606380Y-70191333D01*
X149511142Y-70143714D01*
X149368285Y-70143714D01*
X149273047Y-70191333D01*
X149225428Y-70286571D01*
X149225428Y-70810380D01*
X148749238Y-70143714D02*
X148749238Y-71143714D01*
X148749238Y-70191333D02*
X148654000Y-70143714D01*
X148463523Y-70143714D01*
X148368285Y-70191333D01*
X148320666Y-70238952D01*
X148273047Y-70334190D01*
X148273047Y-70619904D01*
X148320666Y-70715142D01*
X148368285Y-70762761D01*
X148463523Y-70810380D01*
X148654000Y-70810380D01*
X148749238Y-70762761D01*
X147415904Y-70810380D02*
X147415904Y-70286571D01*
X147463523Y-70191333D01*
X147558761Y-70143714D01*
X147749238Y-70143714D01*
X147844476Y-70191333D01*
X147415904Y-70762761D02*
X147511142Y-70810380D01*
X147749238Y-70810380D01*
X147844476Y-70762761D01*
X147892095Y-70667523D01*
X147892095Y-70572285D01*
X147844476Y-70477047D01*
X147749238Y-70429428D01*
X147511142Y-70429428D01*
X147415904Y-70381809D01*
X146939714Y-70143714D02*
X146939714Y-70810380D01*
X146939714Y-70238952D02*
X146892095Y-70191333D01*
X146796857Y-70143714D01*
X146654000Y-70143714D01*
X146558761Y-70191333D01*
X146511142Y-70286571D01*
X146511142Y-70810380D01*
X146130190Y-70143714D02*
X145892095Y-70810380D01*
X145654000Y-70143714D02*
X145892095Y-70810380D01*
X145987333Y-71048476D01*
X146034952Y-71096095D01*
X146130190Y-71143714D01*
X143939714Y-70810380D02*
X144273047Y-70334190D01*
X144511142Y-70810380D02*
X144511142Y-69810380D01*
X144130190Y-69810380D01*
X144034952Y-69858000D01*
X143987333Y-69905619D01*
X143939714Y-70000857D01*
X143939714Y-70143714D01*
X143987333Y-70238952D01*
X144034952Y-70286571D01*
X144130190Y-70334190D01*
X144511142Y-70334190D01*
X143511142Y-70286571D02*
X143177809Y-70286571D01*
X143034952Y-70810380D02*
X143511142Y-70810380D01*
X143511142Y-69810380D01*
X143034952Y-69810380D01*
X142749238Y-69810380D02*
X142415904Y-70810380D01*
X142082571Y-69810380D01*
X141082571Y-70143714D02*
X140844476Y-70810380D01*
X140606380Y-70143714D01*
X140034952Y-69810380D02*
X139939714Y-69810380D01*
X139844476Y-69858000D01*
X139796857Y-69905619D01*
X139749238Y-70000857D01*
X139701619Y-70191333D01*
X139701619Y-70429428D01*
X139749238Y-70619904D01*
X139796857Y-70715142D01*
X139844476Y-70762761D01*
X139939714Y-70810380D01*
X140034952Y-70810380D01*
X140130190Y-70762761D01*
X140177809Y-70715142D01*
X140225428Y-70619904D01*
X140273047Y-70429428D01*
X140273047Y-70191333D01*
X140225428Y-70000857D01*
X140177809Y-69905619D01*
X140130190Y-69858000D01*
X140034952Y-69810380D01*
X138749238Y-70810380D02*
X139320666Y-70810380D01*
X139034952Y-70810380D02*
X139034952Y-69810380D01*
X139130190Y-69953238D01*
X139225428Y-70048476D01*
X139320666Y-70096095D01*
D11*
X161749619Y-65665047D02*
X162959142Y-65665047D01*
X163080095Y-66874571D01*
X162959142Y-66753619D01*
X162717238Y-66632666D01*
X162112476Y-66632666D01*
X161870571Y-66753619D01*
X161749619Y-66874571D01*
X161628666Y-67116476D01*
X161628666Y-67721238D01*
X161749619Y-67963142D01*
X161870571Y-68084095D01*
X162112476Y-68205047D01*
X162717238Y-68205047D01*
X162959142Y-68084095D01*
X163080095Y-67963142D01*
X159330571Y-65665047D02*
X160540095Y-65665047D01*
X160661047Y-66874571D01*
X160540095Y-66753619D01*
X160298190Y-66632666D01*
X159693428Y-66632666D01*
X159451523Y-66753619D01*
X159330571Y-66874571D01*
X159209619Y-67116476D01*
X159209619Y-67721238D01*
X159330571Y-67963142D01*
X159451523Y-68084095D01*
X159693428Y-68205047D01*
X160298190Y-68205047D01*
X160540095Y-68084095D01*
X160661047Y-67963142D01*
X156911523Y-65665047D02*
X158121047Y-65665047D01*
X158242000Y-66874571D01*
X158121047Y-66753619D01*
X157879142Y-66632666D01*
X157274380Y-66632666D01*
X157032476Y-66753619D01*
X156911523Y-66874571D01*
X156790571Y-67116476D01*
X156790571Y-67721238D01*
X156911523Y-67963142D01*
X157032476Y-68084095D01*
X157274380Y-68205047D01*
X157879142Y-68205047D01*
X158121047Y-68084095D01*
X158242000Y-67963142D01*
X152920095Y-66874571D02*
X152557238Y-66995523D01*
X152436285Y-67116476D01*
X152315333Y-67358380D01*
X152315333Y-67721238D01*
X152436285Y-67963142D01*
X152557238Y-68084095D01*
X152799142Y-68205047D01*
X153766761Y-68205047D01*
X153766761Y-65665047D01*
X152920095Y-65665047D01*
X152678190Y-65786000D01*
X152557238Y-65906952D01*
X152436285Y-66148857D01*
X152436285Y-66390761D01*
X152557238Y-66632666D01*
X152678190Y-66753619D01*
X152920095Y-66874571D01*
X153766761Y-66874571D01*
X150138190Y-68205047D02*
X150138190Y-66874571D01*
X150259142Y-66632666D01*
X150501047Y-66511714D01*
X150984857Y-66511714D01*
X151226761Y-66632666D01*
X150138190Y-68084095D02*
X150380095Y-68205047D01*
X150984857Y-68205047D01*
X151226761Y-68084095D01*
X151347714Y-67842190D01*
X151347714Y-67600285D01*
X151226761Y-67358380D01*
X150984857Y-67237428D01*
X150380095Y-67237428D01*
X150138190Y-67116476D01*
X147840095Y-68205047D02*
X147840095Y-65665047D01*
X147840095Y-68084095D02*
X148082000Y-68205047D01*
X148565809Y-68205047D01*
X148807714Y-68084095D01*
X148928666Y-67963142D01*
X149049619Y-67721238D01*
X149049619Y-66995523D01*
X148928666Y-66753619D01*
X148807714Y-66632666D01*
X148565809Y-66511714D01*
X148082000Y-66511714D01*
X147840095Y-66632666D01*
X145542000Y-66511714D02*
X145542000Y-68567904D01*
X145662952Y-68809809D01*
X145783904Y-68930761D01*
X146025809Y-69051714D01*
X146388666Y-69051714D01*
X146630571Y-68930761D01*
X145542000Y-68084095D02*
X145783904Y-68205047D01*
X146267714Y-68205047D01*
X146509619Y-68084095D01*
X146630571Y-67963142D01*
X146751523Y-67721238D01*
X146751523Y-66995523D01*
X146630571Y-66753619D01*
X146509619Y-66632666D01*
X146267714Y-66511714D01*
X145783904Y-66511714D01*
X145542000Y-66632666D01*
X143364857Y-68084095D02*
X143606761Y-68205047D01*
X144090571Y-68205047D01*
X144332476Y-68084095D01*
X144453428Y-67842190D01*
X144453428Y-66874571D01*
X144332476Y-66632666D01*
X144090571Y-66511714D01*
X143606761Y-66511714D01*
X143364857Y-66632666D01*
X143243904Y-66874571D01*
X143243904Y-67116476D01*
X144453428Y-67358380D01*
M02*
