%TF.GenerationSoftware,KiCad,Pcbnew,5.1.10*%
%TF.CreationDate,2021-10-31T07:52:44-04:00*%
%TF.ProjectId,555_badge,3535355f-6261-4646-9765-2e6b69636164,v01*%
%TF.SameCoordinates,Original*%
%TF.FileFunction,Copper,L2,Bot*%
%TF.FilePolarity,Positive*%
%FSLAX46Y46*%
G04 Gerber Fmt 4.6, Leading zero omitted, Abs format (unit mm)*
G04 Created by KiCad (PCBNEW 5.1.10) date 2021-10-31 07:52:44*
%MOMM*%
%LPD*%
G01*
G04 APERTURE LIST*
%TA.AperFunction,NonConductor*%
%ADD10C,0.300000*%
%TD*%
%TA.AperFunction,ComponentPad*%
%ADD11R,1.500000X1.500000*%
%TD*%
%TA.AperFunction,ComponentPad*%
%ADD12C,1.500000*%
%TD*%
%TA.AperFunction,ComponentPad*%
%ADD13R,2.170000X2.170000*%
%TD*%
%TA.AperFunction,ComponentPad*%
%ADD14C,2.500000*%
%TD*%
%TA.AperFunction,ComponentPad*%
%ADD15R,1.600000X1.600000*%
%TD*%
%TA.AperFunction,ComponentPad*%
%ADD16C,1.600000*%
%TD*%
%TA.AperFunction,ComponentPad*%
%ADD17R,1.800000X1.800000*%
%TD*%
%TA.AperFunction,ComponentPad*%
%ADD18C,1.800000*%
%TD*%
%TA.AperFunction,ComponentPad*%
%ADD19O,1.600000X1.600000*%
%TD*%
%TA.AperFunction,ComponentPad*%
%ADD20R,1.900000X1.900000*%
%TD*%
%TA.AperFunction,ComponentPad*%
%ADD21C,1.900000*%
%TD*%
%TA.AperFunction,ComponentPad*%
%ADD22C,1.524000*%
%TD*%
%TA.AperFunction,Conductor*%
%ADD23C,0.762000*%
%TD*%
%TA.AperFunction,Conductor*%
%ADD24C,0.254000*%
%TD*%
%TA.AperFunction,Conductor*%
%ADD25C,0.100000*%
%TD*%
G04 APERTURE END LIST*
D10*
X134881714Y-123376571D02*
X134524571Y-124376571D01*
X134167428Y-123376571D01*
X133310285Y-122876571D02*
X133167428Y-122876571D01*
X133024571Y-122948000D01*
X132953142Y-123019428D01*
X132881714Y-123162285D01*
X132810285Y-123448000D01*
X132810285Y-123805142D01*
X132881714Y-124090857D01*
X132953142Y-124233714D01*
X133024571Y-124305142D01*
X133167428Y-124376571D01*
X133310285Y-124376571D01*
X133453142Y-124305142D01*
X133524571Y-124233714D01*
X133596000Y-124090857D01*
X133667428Y-123805142D01*
X133667428Y-123448000D01*
X133596000Y-123162285D01*
X133524571Y-123019428D01*
X133453142Y-122948000D01*
X133310285Y-122876571D01*
X131381714Y-124376571D02*
X132238857Y-124376571D01*
X131810285Y-124376571D02*
X131810285Y-122876571D01*
X131953142Y-123090857D01*
X132096000Y-123233714D01*
X132238857Y-123305142D01*
D11*
%TO.P,Q1,1*%
%TO.N,GND*%
X174244000Y-118110000D03*
D12*
%TO.P,Q1,3*%
%TO.N,Net-(D1-Pad1)*%
X174244000Y-123310000D03*
%TO.P,Q1,2*%
%TO.N,Net-(Q1-Pad2)*%
X174244000Y-120710000D03*
%TD*%
D13*
%TO.P,BAT1,Neg*%
%TO.N,GND*%
X133527401Y-104165001D03*
D14*
%TO.P,BAT1,Pos*%
%TO.N,Net-(BAT1-PadPos)*%
X153527401Y-104165001D03*
%TD*%
D15*
%TO.P,C1,1*%
%TO.N,Net-(C1-Pad1)*%
X169140242Y-111185001D03*
D16*
%TO.P,C1,2*%
%TO.N,GND*%
X171640242Y-111185001D03*
%TD*%
D15*
%TO.P,C2,1*%
%TO.N,Net-(C2-Pad1)*%
X166094776Y-118385001D03*
D16*
%TO.P,C2,2*%
%TO.N,GND*%
X168094776Y-118385001D03*
%TD*%
D17*
%TO.P,D1,1*%
%TO.N,Net-(D1-Pad1)*%
X147574000Y-74930000D03*
D18*
%TO.P,D1,2*%
%TO.N,Net-(D1-Pad2)*%
X145034000Y-74930000D03*
%TD*%
%TO.P,D2,2*%
%TO.N,Net-(D2-Pad2)*%
X157734000Y-74930000D03*
D17*
%TO.P,D2,1*%
%TO.N,Net-(D1-Pad1)*%
X160274000Y-74930000D03*
%TD*%
D19*
%TO.P,R1,2*%
%TO.N,Net-(D1-Pad2)*%
X151385001Y-118145001D03*
D16*
%TO.P,R1,1*%
%TO.N,VCC*%
X143765001Y-118145001D03*
%TD*%
%TO.P,R2,1*%
%TO.N,VCC*%
X157135001Y-105235001D03*
D19*
%TO.P,R2,2*%
%TO.N,Net-(D2-Pad2)*%
X164755001Y-105235001D03*
%TD*%
D16*
%TO.P,R3,1*%
%TO.N,Net-(C1-Pad1)*%
X168745001Y-94235001D03*
D19*
%TO.P,R3,2*%
%TO.N,Net-(Q1-Pad2)*%
X176365001Y-94235001D03*
%TD*%
%TO.P,R4,2*%
%TO.N,GND*%
X162155001Y-118145001D03*
D16*
%TO.P,R4,1*%
%TO.N,Net-(C1-Pad1)*%
X154535001Y-118145001D03*
%TD*%
%TO.P,R5,1*%
%TO.N,Net-(R5-Pad1)*%
X168745001Y-98285001D03*
D19*
%TO.P,R5,2*%
%TO.N,Net-(C1-Pad1)*%
X176365001Y-98285001D03*
%TD*%
%TO.P,R6,2*%
%TO.N,Net-(R6-Pad2)*%
X164755001Y-109285001D03*
D16*
%TO.P,R6,1*%
%TO.N,VCC*%
X157135001Y-109285001D03*
%TD*%
%TO.P,R7,1*%
%TO.N,Net-(R6-Pad2)*%
X167905001Y-105235001D03*
D19*
%TO.P,R7,2*%
%TO.N,Net-(C2-Pad1)*%
X175525001Y-105235001D03*
%TD*%
D20*
%TO.P,S1,1*%
%TO.N,Net-(S1-Pad1)*%
X133235001Y-118895001D03*
D21*
%TO.P,S1,2*%
%TO.N,VCC*%
X135735001Y-118895001D03*
%TO.P,S1,3*%
%TO.N,Net-(BAT1-PadPos)*%
X138235001Y-118895001D03*
%TD*%
D22*
%TO.P,U1,1*%
%TO.N,GND*%
X157685601Y-101092000D03*
%TO.P,U1,2*%
%TO.N,Net-(C2-Pad1)*%
X160225601Y-101092000D03*
%TO.P,U1,3*%
%TO.N,Net-(R5-Pad1)*%
X162765601Y-101092000D03*
%TO.P,U1,4*%
%TO.N,VCC*%
X165305601Y-101092000D03*
%TO.P,U1,5*%
%TO.N,Net-(U1-Pad5)*%
X165305601Y-93472000D03*
%TO.P,U1,6*%
%TO.N,Net-(C2-Pad1)*%
X162765601Y-93472000D03*
%TO.P,U1,7*%
%TO.N,Net-(R6-Pad2)*%
X160225601Y-93472000D03*
%TO.P,U1,8*%
%TO.N,VCC*%
X157685601Y-93472000D03*
%TD*%
D23*
%TO.N,Net-(BAT1-PadPos)*%
X138235001Y-118895001D02*
X138235001Y-115375001D01*
X138235001Y-115375001D02*
X149216002Y-104394000D01*
X153298402Y-104394000D02*
X153527401Y-104165001D01*
X149216002Y-104394000D02*
X153298402Y-104394000D01*
D24*
%TO.N,Net-(C1-Pad1)*%
X154535001Y-118145001D02*
X156936999Y-118145001D01*
X156936999Y-118145001D02*
X161798000Y-113284000D01*
X161798000Y-113284000D02*
X168402000Y-113284000D01*
X169140242Y-112545758D02*
X169140242Y-111185001D01*
X168402000Y-113284000D02*
X169140242Y-112545758D01*
%TO.N,Net-(C2-Pad1)*%
X166094776Y-118385001D02*
X166094776Y-116353224D01*
X166094776Y-116353224D02*
X167640000Y-114808000D01*
X167640000Y-114808000D02*
X173736000Y-114808000D01*
X175525001Y-113018999D02*
X175525001Y-105235001D01*
X173736000Y-114808000D02*
X175525001Y-113018999D01*
X166094776Y-118385001D02*
X166094776Y-121179224D01*
X166094776Y-121179224D02*
X165100000Y-122174000D01*
X165100000Y-122174000D02*
X148336000Y-122174000D01*
X148336000Y-122174000D02*
X147066000Y-120904000D01*
X147066000Y-120904000D02*
X147066000Y-117094000D01*
X147066000Y-117094000D02*
X150368000Y-113792000D01*
X150368000Y-113792000D02*
X157734000Y-113792000D01*
X157734000Y-113792000D02*
X161036000Y-110490000D01*
X161036000Y-110490000D02*
X161036000Y-104648000D01*
X160225601Y-103837601D02*
X160225601Y-101092000D01*
X161036000Y-104648000D02*
X160225601Y-103837601D01*
%TO.N,Net-(D2-Pad2)*%
X166878000Y-89408000D02*
X157734000Y-80264000D01*
X166116000Y-103124000D02*
X166878000Y-102362000D01*
X157734000Y-80264000D02*
X157734000Y-74930000D01*
X166878000Y-102362000D02*
X166878000Y-89408000D01*
X165100000Y-103124000D02*
X166116000Y-103124000D01*
X164755001Y-103468999D02*
X165100000Y-103124000D01*
X164755001Y-105235001D02*
X164755001Y-103468999D01*
D23*
%TO.N,VCC*%
X143765001Y-118145001D02*
X143765001Y-116079001D01*
X143765001Y-116079001D02*
X150370002Y-109474000D01*
X156946002Y-109474000D02*
X157135001Y-109285001D01*
X150370002Y-109474000D02*
X156946002Y-109474000D01*
D24*
X157685601Y-93472000D02*
X157685601Y-95455601D01*
X162003601Y-97790000D02*
X165305601Y-101092000D01*
X160020000Y-97790000D02*
X162003601Y-97790000D01*
X157135001Y-105235001D02*
X157135001Y-104049001D01*
X157135001Y-104049001D02*
X153924000Y-100838000D01*
X153924000Y-100838000D02*
X153924000Y-98806000D01*
X155702000Y-97028000D02*
X159258000Y-97028000D01*
X153924000Y-98806000D02*
X155702000Y-97028000D01*
X159258000Y-97028000D02*
X160020000Y-97790000D01*
X157685601Y-95455601D02*
X159258000Y-97028000D01*
%TD*%
%TO.N,GND*%
X180200301Y-126352300D02*
X127647700Y-126352300D01*
X127647700Y-121908000D01*
X130311000Y-121908000D01*
X130311000Y-125728000D01*
X135881000Y-125728000D01*
X135881000Y-121908000D01*
X130311000Y-121908000D01*
X127647700Y-121908000D01*
X127647700Y-117945001D01*
X131646929Y-117945001D01*
X131646929Y-119845001D01*
X131659189Y-119969483D01*
X131695499Y-120089181D01*
X131754464Y-120199495D01*
X131833816Y-120296186D01*
X131930507Y-120375538D01*
X132040821Y-120434503D01*
X132160519Y-120470813D01*
X132285001Y-120483073D01*
X134185001Y-120483073D01*
X134309483Y-120470813D01*
X134429181Y-120434503D01*
X134539495Y-120375538D01*
X134636186Y-120296186D01*
X134715538Y-120199495D01*
X134746815Y-120140980D01*
X134984222Y-120299610D01*
X135272674Y-120419090D01*
X135578892Y-120480001D01*
X135891110Y-120480001D01*
X136197328Y-120419090D01*
X136485780Y-120299610D01*
X136745380Y-120126151D01*
X136966151Y-119905380D01*
X136985001Y-119877169D01*
X137003851Y-119905380D01*
X137224622Y-120126151D01*
X137484222Y-120299610D01*
X137772674Y-120419090D01*
X138078892Y-120480001D01*
X138391110Y-120480001D01*
X138697328Y-120419090D01*
X138985780Y-120299610D01*
X139245380Y-120126151D01*
X139466151Y-119905380D01*
X139639610Y-119645780D01*
X139759090Y-119357328D01*
X139820001Y-119051110D01*
X139820001Y-118738892D01*
X139759090Y-118432674D01*
X139639610Y-118144222D01*
X139545694Y-118003666D01*
X142330001Y-118003666D01*
X142330001Y-118286336D01*
X142385148Y-118563575D01*
X142493321Y-118824728D01*
X142650364Y-119059760D01*
X142850242Y-119259638D01*
X143085274Y-119416681D01*
X143346427Y-119524854D01*
X143623666Y-119580001D01*
X143906336Y-119580001D01*
X144183575Y-119524854D01*
X144444728Y-119416681D01*
X144679760Y-119259638D01*
X144879638Y-119059760D01*
X145036681Y-118824728D01*
X145144854Y-118563575D01*
X145200001Y-118286336D01*
X145200001Y-118003666D01*
X145144854Y-117726427D01*
X145036681Y-117465274D01*
X144879638Y-117230242D01*
X144781001Y-117131605D01*
X144781001Y-116499841D01*
X150790843Y-110490000D01*
X156355479Y-110490000D01*
X156455274Y-110556681D01*
X156716427Y-110664854D01*
X156993666Y-110720001D01*
X157276336Y-110720001D01*
X157553575Y-110664854D01*
X157814728Y-110556681D01*
X158049760Y-110399638D01*
X158249638Y-110199760D01*
X158406681Y-109964728D01*
X158514854Y-109703575D01*
X158570001Y-109426336D01*
X158570001Y-109143666D01*
X158514854Y-108866427D01*
X158406681Y-108605274D01*
X158249638Y-108370242D01*
X158049760Y-108170364D01*
X157814728Y-108013321D01*
X157553575Y-107905148D01*
X157276336Y-107850001D01*
X156993666Y-107850001D01*
X156716427Y-107905148D01*
X156455274Y-108013321D01*
X156220242Y-108170364D01*
X156020364Y-108370242D01*
X155961726Y-108458000D01*
X150419904Y-108458000D01*
X150370002Y-108453085D01*
X150320100Y-108458000D01*
X150170831Y-108472702D01*
X149979315Y-108530798D01*
X149802812Y-108625140D01*
X149648106Y-108752104D01*
X149616295Y-108790866D01*
X143081869Y-115325293D01*
X143043106Y-115357105D01*
X142916142Y-115511811D01*
X142867802Y-115602250D01*
X142821800Y-115688314D01*
X142763703Y-115879831D01*
X142744086Y-116079001D01*
X142749002Y-116128912D01*
X142749001Y-117131605D01*
X142650364Y-117230242D01*
X142493321Y-117465274D01*
X142385148Y-117726427D01*
X142330001Y-118003666D01*
X139545694Y-118003666D01*
X139466151Y-117884622D01*
X139251001Y-117669472D01*
X139251001Y-115795841D01*
X149636843Y-105410000D01*
X152106607Y-105410000D01*
X152325783Y-105629176D01*
X152634519Y-105835467D01*
X152977567Y-105977562D01*
X153341745Y-106050001D01*
X153713057Y-106050001D01*
X154077235Y-105977562D01*
X154420283Y-105835467D01*
X154729019Y-105629176D01*
X154991576Y-105366619D01*
X155197867Y-105057883D01*
X155339962Y-104714835D01*
X155412401Y-104350657D01*
X155412401Y-103979345D01*
X155339962Y-103615167D01*
X155197867Y-103272119D01*
X155031494Y-103023125D01*
X156174488Y-104166118D01*
X156020364Y-104320242D01*
X155863321Y-104555274D01*
X155755148Y-104816427D01*
X155700001Y-105093666D01*
X155700001Y-105376336D01*
X155755148Y-105653575D01*
X155863321Y-105914728D01*
X156020364Y-106149760D01*
X156220242Y-106349638D01*
X156455274Y-106506681D01*
X156716427Y-106614854D01*
X156993666Y-106670001D01*
X157276336Y-106670001D01*
X157553575Y-106614854D01*
X157814728Y-106506681D01*
X158049760Y-106349638D01*
X158249638Y-106149760D01*
X158406681Y-105914728D01*
X158514854Y-105653575D01*
X158570001Y-105376336D01*
X158570001Y-105093666D01*
X158514854Y-104816427D01*
X158406681Y-104555274D01*
X158249638Y-104320242D01*
X158049760Y-104120364D01*
X157897709Y-104018767D01*
X157896187Y-104003313D01*
X157885975Y-103899623D01*
X157842403Y-103755986D01*
X157771646Y-103623609D01*
X157676423Y-103507579D01*
X157647353Y-103483722D01*
X156221196Y-102057565D01*
X156899641Y-102057565D01*
X156966621Y-102297656D01*
X157215649Y-102414756D01*
X157482736Y-102481023D01*
X157757618Y-102493910D01*
X158029734Y-102452922D01*
X158288624Y-102359636D01*
X158404581Y-102297656D01*
X158471561Y-102057565D01*
X157685601Y-101271605D01*
X156899641Y-102057565D01*
X156221196Y-102057565D01*
X155327648Y-101164017D01*
X156283691Y-101164017D01*
X156324679Y-101436133D01*
X156417965Y-101695023D01*
X156479945Y-101810980D01*
X156720036Y-101877960D01*
X157505996Y-101092000D01*
X156720036Y-100306040D01*
X156479945Y-100373020D01*
X156362845Y-100622048D01*
X156296578Y-100889135D01*
X156283691Y-101164017D01*
X155327648Y-101164017D01*
X154686000Y-100522370D01*
X154686000Y-100126435D01*
X156899641Y-100126435D01*
X157685601Y-100912395D01*
X158471561Y-100126435D01*
X158404581Y-99886344D01*
X158155553Y-99769244D01*
X157888466Y-99702977D01*
X157613584Y-99690090D01*
X157341468Y-99731078D01*
X157082578Y-99824364D01*
X156966621Y-99886344D01*
X156899641Y-100126435D01*
X154686000Y-100126435D01*
X154686000Y-99121630D01*
X156017630Y-97790000D01*
X158942370Y-97790000D01*
X159454720Y-98302351D01*
X159478578Y-98331422D01*
X159507648Y-98355279D01*
X159594607Y-98426645D01*
X159665364Y-98464465D01*
X159726985Y-98497402D01*
X159870622Y-98540974D01*
X159982574Y-98552000D01*
X159982577Y-98552000D01*
X160020000Y-98555686D01*
X160057423Y-98552000D01*
X161687971Y-98552000D01*
X162830971Y-99695000D01*
X162628009Y-99695000D01*
X162358111Y-99748686D01*
X162103874Y-99853995D01*
X161875066Y-100006880D01*
X161680481Y-100201465D01*
X161527596Y-100430273D01*
X161495601Y-100507515D01*
X161463606Y-100430273D01*
X161310721Y-100201465D01*
X161116136Y-100006880D01*
X160887328Y-99853995D01*
X160633091Y-99748686D01*
X160363193Y-99695000D01*
X160088009Y-99695000D01*
X159818111Y-99748686D01*
X159563874Y-99853995D01*
X159335066Y-100006880D01*
X159140481Y-100201465D01*
X158987596Y-100430273D01*
X158957909Y-100501943D01*
X158953237Y-100488977D01*
X158891257Y-100373020D01*
X158651166Y-100306040D01*
X157865206Y-101092000D01*
X158651166Y-101877960D01*
X158891257Y-101810980D01*
X158955086Y-101675240D01*
X158987596Y-101753727D01*
X159140481Y-101982535D01*
X159335066Y-102177120D01*
X159463602Y-102263005D01*
X159463601Y-103800178D01*
X159459915Y-103837601D01*
X159463601Y-103875024D01*
X159463601Y-103875026D01*
X159474627Y-103986978D01*
X159518199Y-104130615D01*
X159536579Y-104165002D01*
X159588956Y-104262993D01*
X159628584Y-104311279D01*
X159684179Y-104379023D01*
X159713254Y-104402885D01*
X160274001Y-104963632D01*
X160274000Y-110174369D01*
X157418370Y-113030000D01*
X150405422Y-113030000D01*
X150367999Y-113026314D01*
X150330576Y-113030000D01*
X150330574Y-113030000D01*
X150218622Y-113041026D01*
X150074985Y-113084598D01*
X149942608Y-113155355D01*
X149826578Y-113250578D01*
X149802721Y-113279648D01*
X146553649Y-116528721D01*
X146524579Y-116552578D01*
X146500722Y-116581648D01*
X146500721Y-116581649D01*
X146429355Y-116668608D01*
X146358599Y-116800985D01*
X146315027Y-116944622D01*
X146300314Y-117094000D01*
X146304001Y-117131433D01*
X146304000Y-120866577D01*
X146300314Y-120904000D01*
X146304000Y-120941423D01*
X146304000Y-120941425D01*
X146315026Y-121053377D01*
X146358598Y-121197014D01*
X146358599Y-121197015D01*
X146429355Y-121329392D01*
X146459434Y-121366043D01*
X146524578Y-121445422D01*
X146553654Y-121469284D01*
X147770721Y-122686352D01*
X147794578Y-122715422D01*
X147910608Y-122810645D01*
X148042985Y-122881402D01*
X148186622Y-122924974D01*
X148298574Y-122936000D01*
X148298576Y-122936000D01*
X148335999Y-122939686D01*
X148373422Y-122936000D01*
X165062577Y-122936000D01*
X165100000Y-122939686D01*
X165137423Y-122936000D01*
X165137426Y-122936000D01*
X165249378Y-122924974D01*
X165393015Y-122881402D01*
X165525392Y-122810645D01*
X165641422Y-122715422D01*
X165665284Y-122686346D01*
X166607122Y-121744508D01*
X166636198Y-121720646D01*
X166696633Y-121647005D01*
X166731421Y-121604617D01*
X166802177Y-121472240D01*
X166802178Y-121472239D01*
X166845750Y-121328602D01*
X166856776Y-121216650D01*
X166856776Y-121216647D01*
X166860462Y-121179224D01*
X166856776Y-121141801D01*
X166856776Y-119823073D01*
X166894776Y-119823073D01*
X167019258Y-119810813D01*
X167138956Y-119774503D01*
X167249270Y-119715538D01*
X167345961Y-119636186D01*
X167356583Y-119623243D01*
X167608772Y-119742572D01*
X167882960Y-119811301D01*
X168165288Y-119825218D01*
X168444906Y-119783788D01*
X168711068Y-119688604D01*
X168836290Y-119621672D01*
X168907873Y-119377703D01*
X168094776Y-118564606D01*
X168080634Y-118578749D01*
X167901029Y-118399144D01*
X167915171Y-118385001D01*
X168274381Y-118385001D01*
X169087478Y-119198098D01*
X169331447Y-119126515D01*
X169452347Y-118871005D01*
X169455105Y-118860000D01*
X172855928Y-118860000D01*
X172868188Y-118984482D01*
X172904498Y-119104180D01*
X172963463Y-119214494D01*
X173042815Y-119311185D01*
X173139506Y-119390537D01*
X173249820Y-119449502D01*
X173369518Y-119485812D01*
X173494000Y-119498072D01*
X173565554Y-119497599D01*
X173361114Y-119634201D01*
X173168201Y-119827114D01*
X173016629Y-120053957D01*
X172912225Y-120306011D01*
X172859000Y-120573589D01*
X172859000Y-120846411D01*
X172912225Y-121113989D01*
X173016629Y-121366043D01*
X173168201Y-121592886D01*
X173361114Y-121785799D01*
X173587957Y-121937371D01*
X173763299Y-122010000D01*
X173587957Y-122082629D01*
X173361114Y-122234201D01*
X173168201Y-122427114D01*
X173016629Y-122653957D01*
X172912225Y-122906011D01*
X172859000Y-123173589D01*
X172859000Y-123446411D01*
X172912225Y-123713989D01*
X173016629Y-123966043D01*
X173168201Y-124192886D01*
X173361114Y-124385799D01*
X173587957Y-124537371D01*
X173840011Y-124641775D01*
X174107589Y-124695000D01*
X174380411Y-124695000D01*
X174647989Y-124641775D01*
X174900043Y-124537371D01*
X175126886Y-124385799D01*
X175319799Y-124192886D01*
X175471371Y-123966043D01*
X175575775Y-123713989D01*
X175629000Y-123446411D01*
X175629000Y-123173589D01*
X175575775Y-122906011D01*
X175471371Y-122653957D01*
X175319799Y-122427114D01*
X175126886Y-122234201D01*
X174900043Y-122082629D01*
X174724701Y-122010000D01*
X174900043Y-121937371D01*
X175126886Y-121785799D01*
X175319799Y-121592886D01*
X175471371Y-121366043D01*
X175575775Y-121113989D01*
X175629000Y-120846411D01*
X175629000Y-120573589D01*
X175575775Y-120306011D01*
X175471371Y-120053957D01*
X175319799Y-119827114D01*
X175126886Y-119634201D01*
X174922446Y-119497599D01*
X174994000Y-119498072D01*
X175118482Y-119485812D01*
X175238180Y-119449502D01*
X175348494Y-119390537D01*
X175445185Y-119311185D01*
X175524537Y-119214494D01*
X175583502Y-119104180D01*
X175619812Y-118984482D01*
X175632072Y-118860000D01*
X175629000Y-118395750D01*
X175470250Y-118237000D01*
X174371000Y-118237000D01*
X174371000Y-118257000D01*
X174117000Y-118257000D01*
X174117000Y-118237000D01*
X173017750Y-118237000D01*
X172859000Y-118395750D01*
X172855928Y-118860000D01*
X169455105Y-118860000D01*
X169521076Y-118596817D01*
X169534993Y-118314489D01*
X169493563Y-118034871D01*
X169398379Y-117768709D01*
X169331447Y-117643487D01*
X169087478Y-117571904D01*
X168274381Y-118385001D01*
X167915171Y-118385001D01*
X167901029Y-118370859D01*
X168080634Y-118191254D01*
X168094776Y-118205396D01*
X168907873Y-117392299D01*
X168898397Y-117360000D01*
X172855928Y-117360000D01*
X172859000Y-117824250D01*
X173017750Y-117983000D01*
X174117000Y-117983000D01*
X174117000Y-116883750D01*
X174371000Y-116883750D01*
X174371000Y-117983000D01*
X175470250Y-117983000D01*
X175629000Y-117824250D01*
X175632072Y-117360000D01*
X175619812Y-117235518D01*
X175583502Y-117115820D01*
X175524537Y-117005506D01*
X175445185Y-116908815D01*
X175348494Y-116829463D01*
X175238180Y-116770498D01*
X175118482Y-116734188D01*
X174994000Y-116721928D01*
X174529750Y-116725000D01*
X174371000Y-116883750D01*
X174117000Y-116883750D01*
X173958250Y-116725000D01*
X173494000Y-116721928D01*
X173369518Y-116734188D01*
X173249820Y-116770498D01*
X173139506Y-116829463D01*
X173042815Y-116908815D01*
X172963463Y-117005506D01*
X172904498Y-117115820D01*
X172868188Y-117235518D01*
X172855928Y-117360000D01*
X168898397Y-117360000D01*
X168836290Y-117148330D01*
X168580780Y-117027430D01*
X168306592Y-116958701D01*
X168024264Y-116944784D01*
X167744646Y-116986214D01*
X167478484Y-117081398D01*
X167356467Y-117146617D01*
X167345961Y-117133816D01*
X167249270Y-117054464D01*
X167138956Y-116995499D01*
X167019258Y-116959189D01*
X166894776Y-116946929D01*
X166856776Y-116946929D01*
X166856776Y-116668854D01*
X167955631Y-115570000D01*
X173698577Y-115570000D01*
X173736000Y-115573686D01*
X173773423Y-115570000D01*
X173773426Y-115570000D01*
X173885378Y-115558974D01*
X174029015Y-115515402D01*
X174161392Y-115444645D01*
X174277422Y-115349422D01*
X174301284Y-115320346D01*
X176037354Y-113584277D01*
X176066423Y-113560421D01*
X176161646Y-113444391D01*
X176232403Y-113312014D01*
X176275975Y-113168377D01*
X176287001Y-113056425D01*
X176287001Y-113056416D01*
X176290686Y-113019000D01*
X176287001Y-112981584D01*
X176287001Y-106451708D01*
X176439760Y-106349638D01*
X176639638Y-106149760D01*
X176796681Y-105914728D01*
X176904854Y-105653575D01*
X176960001Y-105376336D01*
X176960001Y-105093666D01*
X176904854Y-104816427D01*
X176796681Y-104555274D01*
X176639638Y-104320242D01*
X176439760Y-104120364D01*
X176204728Y-103963321D01*
X175943575Y-103855148D01*
X175666336Y-103800001D01*
X175383666Y-103800001D01*
X175106427Y-103855148D01*
X174845274Y-103963321D01*
X174610242Y-104120364D01*
X174410364Y-104320242D01*
X174253321Y-104555274D01*
X174145148Y-104816427D01*
X174090001Y-105093666D01*
X174090001Y-105376336D01*
X174145148Y-105653575D01*
X174253321Y-105914728D01*
X174410364Y-106149760D01*
X174610242Y-106349638D01*
X174763002Y-106451709D01*
X174763001Y-112703368D01*
X173420370Y-114046000D01*
X168439426Y-114046000D01*
X168551378Y-114034974D01*
X168695015Y-113991402D01*
X168827392Y-113920645D01*
X168943422Y-113825422D01*
X168967284Y-113796347D01*
X169652595Y-113111036D01*
X169681664Y-113087180D01*
X169719541Y-113041027D01*
X169776887Y-112971151D01*
X169847643Y-112838774D01*
X169847644Y-112838773D01*
X169891216Y-112695136D01*
X169898313Y-112623073D01*
X169940242Y-112623073D01*
X170064724Y-112610813D01*
X170184422Y-112574503D01*
X170294736Y-112515538D01*
X170391427Y-112436186D01*
X170470779Y-112339495D01*
X170529744Y-112229181D01*
X170545359Y-112177703D01*
X170827145Y-112177703D01*
X170898728Y-112421672D01*
X171154238Y-112542572D01*
X171428426Y-112611301D01*
X171710754Y-112625218D01*
X171990372Y-112583788D01*
X172256534Y-112488604D01*
X172381756Y-112421672D01*
X172453339Y-112177703D01*
X171640242Y-111364606D01*
X170827145Y-112177703D01*
X170545359Y-112177703D01*
X170566054Y-112109483D01*
X170578314Y-111985001D01*
X170578314Y-111977786D01*
X170647540Y-111998098D01*
X171460637Y-111185001D01*
X171819847Y-111185001D01*
X172632944Y-111998098D01*
X172876913Y-111926515D01*
X172997813Y-111671005D01*
X173066542Y-111396817D01*
X173080459Y-111114489D01*
X173039029Y-110834871D01*
X172943845Y-110568709D01*
X172876913Y-110443487D01*
X172632944Y-110371904D01*
X171819847Y-111185001D01*
X171460637Y-111185001D01*
X170647540Y-110371904D01*
X170578314Y-110392216D01*
X170578314Y-110385001D01*
X170566054Y-110260519D01*
X170545360Y-110192299D01*
X170827145Y-110192299D01*
X171640242Y-111005396D01*
X172453339Y-110192299D01*
X172381756Y-109948330D01*
X172126246Y-109827430D01*
X171852058Y-109758701D01*
X171569730Y-109744784D01*
X171290112Y-109786214D01*
X171023950Y-109881398D01*
X170898728Y-109948330D01*
X170827145Y-110192299D01*
X170545360Y-110192299D01*
X170529744Y-110140821D01*
X170470779Y-110030507D01*
X170391427Y-109933816D01*
X170294736Y-109854464D01*
X170184422Y-109795499D01*
X170064724Y-109759189D01*
X169940242Y-109746929D01*
X168340242Y-109746929D01*
X168215760Y-109759189D01*
X168096062Y-109795499D01*
X167985748Y-109854464D01*
X167889057Y-109933816D01*
X167809705Y-110030507D01*
X167750740Y-110140821D01*
X167714430Y-110260519D01*
X167702170Y-110385001D01*
X167702170Y-111985001D01*
X167714430Y-112109483D01*
X167750740Y-112229181D01*
X167809705Y-112339495D01*
X167889057Y-112436186D01*
X167985748Y-112515538D01*
X167997837Y-112522000D01*
X161835423Y-112522000D01*
X161798000Y-112518314D01*
X161760577Y-112522000D01*
X161760574Y-112522000D01*
X161648622Y-112533026D01*
X161504985Y-112576598D01*
X161443364Y-112609535D01*
X161372607Y-112647355D01*
X161330219Y-112682143D01*
X161256578Y-112742578D01*
X161232716Y-112771654D01*
X156621369Y-117383001D01*
X155751708Y-117383001D01*
X155649638Y-117230242D01*
X155449760Y-117030364D01*
X155214728Y-116873321D01*
X154953575Y-116765148D01*
X154676336Y-116710001D01*
X154393666Y-116710001D01*
X154116427Y-116765148D01*
X153855274Y-116873321D01*
X153620242Y-117030364D01*
X153420364Y-117230242D01*
X153263321Y-117465274D01*
X153155148Y-117726427D01*
X153100001Y-118003666D01*
X153100001Y-118286336D01*
X153155148Y-118563575D01*
X153263321Y-118824728D01*
X153420364Y-119059760D01*
X153620242Y-119259638D01*
X153855274Y-119416681D01*
X154116427Y-119524854D01*
X154393666Y-119580001D01*
X154676336Y-119580001D01*
X154953575Y-119524854D01*
X155214728Y-119416681D01*
X155449760Y-119259638D01*
X155649638Y-119059760D01*
X155751708Y-118907001D01*
X156899576Y-118907001D01*
X156936999Y-118910687D01*
X156974422Y-118907001D01*
X156974425Y-118907001D01*
X157086377Y-118895975D01*
X157230014Y-118852403D01*
X157362391Y-118781646D01*
X157478421Y-118686423D01*
X157502283Y-118657347D01*
X157665590Y-118494040D01*
X160763097Y-118494040D01*
X160803755Y-118628088D01*
X160923964Y-118882421D01*
X161091482Y-119108415D01*
X161299870Y-119297386D01*
X161541120Y-119442071D01*
X161805961Y-119536910D01*
X162028001Y-119415625D01*
X162028001Y-118272001D01*
X162282001Y-118272001D01*
X162282001Y-119415625D01*
X162504041Y-119536910D01*
X162768882Y-119442071D01*
X163010132Y-119297386D01*
X163218520Y-119108415D01*
X163386038Y-118882421D01*
X163506247Y-118628088D01*
X163546905Y-118494040D01*
X163424916Y-118272001D01*
X162282001Y-118272001D01*
X162028001Y-118272001D01*
X160885086Y-118272001D01*
X160763097Y-118494040D01*
X157665590Y-118494040D01*
X158363668Y-117795962D01*
X160763097Y-117795962D01*
X160885086Y-118018001D01*
X162028001Y-118018001D01*
X162028001Y-116874377D01*
X162282001Y-116874377D01*
X162282001Y-118018001D01*
X163424916Y-118018001D01*
X163546905Y-117795962D01*
X163506247Y-117661914D01*
X163386038Y-117407581D01*
X163218520Y-117181587D01*
X163010132Y-116992616D01*
X162768882Y-116847931D01*
X162504041Y-116753092D01*
X162282001Y-116874377D01*
X162028001Y-116874377D01*
X161805961Y-116753092D01*
X161541120Y-116847931D01*
X161299870Y-116992616D01*
X161091482Y-117181587D01*
X160923964Y-117407581D01*
X160803755Y-117661914D01*
X160763097Y-117795962D01*
X158363668Y-117795962D01*
X162113630Y-114046000D01*
X167602574Y-114046000D01*
X167490622Y-114057026D01*
X167346985Y-114100598D01*
X167285364Y-114133535D01*
X167214607Y-114171355D01*
X167158510Y-114217393D01*
X167098578Y-114266578D01*
X167074721Y-114295648D01*
X165582425Y-115787945D01*
X165553355Y-115811802D01*
X165529498Y-115840872D01*
X165529497Y-115840873D01*
X165458131Y-115927832D01*
X165387375Y-116060209D01*
X165343803Y-116203846D01*
X165329090Y-116353224D01*
X165332777Y-116390657D01*
X165332777Y-116946929D01*
X165294776Y-116946929D01*
X165170294Y-116959189D01*
X165050596Y-116995499D01*
X164940282Y-117054464D01*
X164843591Y-117133816D01*
X164764239Y-117230507D01*
X164705274Y-117340821D01*
X164668964Y-117460519D01*
X164656704Y-117585001D01*
X164656704Y-119185001D01*
X164668964Y-119309483D01*
X164705274Y-119429181D01*
X164764239Y-119539495D01*
X164843591Y-119636186D01*
X164940282Y-119715538D01*
X165050596Y-119774503D01*
X165170294Y-119810813D01*
X165294776Y-119823073D01*
X165332777Y-119823073D01*
X165332777Y-120863593D01*
X164784370Y-121412000D01*
X148651631Y-121412000D01*
X147828000Y-120588370D01*
X147828000Y-118003666D01*
X149950001Y-118003666D01*
X149950001Y-118286336D01*
X150005148Y-118563575D01*
X150113321Y-118824728D01*
X150270364Y-119059760D01*
X150470242Y-119259638D01*
X150705274Y-119416681D01*
X150966427Y-119524854D01*
X151243666Y-119580001D01*
X151526336Y-119580001D01*
X151803575Y-119524854D01*
X152064728Y-119416681D01*
X152299760Y-119259638D01*
X152499638Y-119059760D01*
X152656681Y-118824728D01*
X152764854Y-118563575D01*
X152820001Y-118286336D01*
X152820001Y-118003666D01*
X152764854Y-117726427D01*
X152656681Y-117465274D01*
X152499638Y-117230242D01*
X152299760Y-117030364D01*
X152064728Y-116873321D01*
X151803575Y-116765148D01*
X151526336Y-116710001D01*
X151243666Y-116710001D01*
X150966427Y-116765148D01*
X150705274Y-116873321D01*
X150470242Y-117030364D01*
X150270364Y-117230242D01*
X150113321Y-117465274D01*
X150005148Y-117726427D01*
X149950001Y-118003666D01*
X147828000Y-118003666D01*
X147828000Y-117409630D01*
X150683631Y-114554000D01*
X157696577Y-114554000D01*
X157734000Y-114557686D01*
X157771423Y-114554000D01*
X157771426Y-114554000D01*
X157883378Y-114542974D01*
X158027015Y-114499402D01*
X158159392Y-114428645D01*
X158275422Y-114333422D01*
X158299284Y-114304346D01*
X161548353Y-111055278D01*
X161577422Y-111031422D01*
X161672645Y-110915392D01*
X161743402Y-110783015D01*
X161786974Y-110639378D01*
X161798000Y-110527426D01*
X161798000Y-110527424D01*
X161801686Y-110490001D01*
X161798000Y-110452578D01*
X161798000Y-109143666D01*
X163320001Y-109143666D01*
X163320001Y-109426336D01*
X163375148Y-109703575D01*
X163483321Y-109964728D01*
X163640364Y-110199760D01*
X163840242Y-110399638D01*
X164075274Y-110556681D01*
X164336427Y-110664854D01*
X164613666Y-110720001D01*
X164896336Y-110720001D01*
X165173575Y-110664854D01*
X165434728Y-110556681D01*
X165669760Y-110399638D01*
X165869638Y-110199760D01*
X166026681Y-109964728D01*
X166134854Y-109703575D01*
X166190001Y-109426336D01*
X166190001Y-109143666D01*
X166134854Y-108866427D01*
X166026681Y-108605274D01*
X165869638Y-108370242D01*
X165669760Y-108170364D01*
X165434728Y-108013321D01*
X165173575Y-107905148D01*
X164896336Y-107850001D01*
X164613666Y-107850001D01*
X164336427Y-107905148D01*
X164075274Y-108013321D01*
X163840242Y-108170364D01*
X163640364Y-108370242D01*
X163483321Y-108605274D01*
X163375148Y-108866427D01*
X163320001Y-109143666D01*
X161798000Y-109143666D01*
X161798000Y-104685422D01*
X161801686Y-104647999D01*
X161797282Y-104603287D01*
X161786974Y-104498622D01*
X161743402Y-104354985D01*
X161672645Y-104222608D01*
X161577422Y-104106578D01*
X161548351Y-104082720D01*
X160987601Y-103521971D01*
X160987601Y-102263005D01*
X161116136Y-102177120D01*
X161310721Y-101982535D01*
X161463606Y-101753727D01*
X161495601Y-101676485D01*
X161527596Y-101753727D01*
X161680481Y-101982535D01*
X161875066Y-102177120D01*
X162103874Y-102330005D01*
X162358111Y-102435314D01*
X162628009Y-102489000D01*
X162903193Y-102489000D01*
X163173091Y-102435314D01*
X163427328Y-102330005D01*
X163656136Y-102177120D01*
X163850721Y-101982535D01*
X164003606Y-101753727D01*
X164035601Y-101676485D01*
X164067596Y-101753727D01*
X164220481Y-101982535D01*
X164415066Y-102177120D01*
X164643874Y-102330005D01*
X164833505Y-102408553D01*
X164806985Y-102416598D01*
X164674608Y-102487355D01*
X164558578Y-102582578D01*
X164534716Y-102611654D01*
X164242650Y-102903720D01*
X164213580Y-102927577D01*
X164189723Y-102956647D01*
X164189722Y-102956648D01*
X164118356Y-103043607D01*
X164047600Y-103175984D01*
X164004028Y-103319621D01*
X163989315Y-103468999D01*
X163993002Y-103506432D01*
X163993002Y-104018293D01*
X163840242Y-104120364D01*
X163640364Y-104320242D01*
X163483321Y-104555274D01*
X163375148Y-104816427D01*
X163320001Y-105093666D01*
X163320001Y-105376336D01*
X163375148Y-105653575D01*
X163483321Y-105914728D01*
X163640364Y-106149760D01*
X163840242Y-106349638D01*
X164075274Y-106506681D01*
X164336427Y-106614854D01*
X164613666Y-106670001D01*
X164896336Y-106670001D01*
X165173575Y-106614854D01*
X165434728Y-106506681D01*
X165669760Y-106349638D01*
X165869638Y-106149760D01*
X166026681Y-105914728D01*
X166134854Y-105653575D01*
X166190001Y-105376336D01*
X166190001Y-105093666D01*
X166470001Y-105093666D01*
X166470001Y-105376336D01*
X166525148Y-105653575D01*
X166633321Y-105914728D01*
X166790364Y-106149760D01*
X166990242Y-106349638D01*
X167225274Y-106506681D01*
X167486427Y-106614854D01*
X167763666Y-106670001D01*
X168046336Y-106670001D01*
X168323575Y-106614854D01*
X168584728Y-106506681D01*
X168819760Y-106349638D01*
X169019638Y-106149760D01*
X169176681Y-105914728D01*
X169284854Y-105653575D01*
X169340001Y-105376336D01*
X169340001Y-105093666D01*
X169284854Y-104816427D01*
X169176681Y-104555274D01*
X169019638Y-104320242D01*
X168819760Y-104120364D01*
X168584728Y-103963321D01*
X168323575Y-103855148D01*
X168046336Y-103800001D01*
X167763666Y-103800001D01*
X167486427Y-103855148D01*
X167225274Y-103963321D01*
X166990242Y-104120364D01*
X166790364Y-104320242D01*
X166633321Y-104555274D01*
X166525148Y-104816427D01*
X166470001Y-105093666D01*
X166190001Y-105093666D01*
X166134854Y-104816427D01*
X166026681Y-104555274D01*
X165869638Y-104320242D01*
X165669760Y-104120364D01*
X165517001Y-104018294D01*
X165517001Y-103886000D01*
X166078577Y-103886000D01*
X166116000Y-103889686D01*
X166153423Y-103886000D01*
X166153426Y-103886000D01*
X166265378Y-103874974D01*
X166409015Y-103831402D01*
X166541392Y-103760645D01*
X166657422Y-103665422D01*
X166681284Y-103636347D01*
X167390353Y-102927278D01*
X167419422Y-102903422D01*
X167446772Y-102870096D01*
X167514645Y-102787393D01*
X167559586Y-102703313D01*
X167585402Y-102655015D01*
X167628974Y-102511378D01*
X167640000Y-102399426D01*
X167640000Y-102399423D01*
X167643686Y-102362000D01*
X167640000Y-102324577D01*
X167640000Y-99209396D01*
X167830242Y-99399638D01*
X168065274Y-99556681D01*
X168326427Y-99664854D01*
X168603666Y-99720001D01*
X168886336Y-99720001D01*
X169163575Y-99664854D01*
X169424728Y-99556681D01*
X169659760Y-99399638D01*
X169859638Y-99199760D01*
X170016681Y-98964728D01*
X170124854Y-98703575D01*
X170180001Y-98426336D01*
X170180001Y-98143666D01*
X174930001Y-98143666D01*
X174930001Y-98426336D01*
X174985148Y-98703575D01*
X175093321Y-98964728D01*
X175250364Y-99199760D01*
X175450242Y-99399638D01*
X175685274Y-99556681D01*
X175946427Y-99664854D01*
X176223666Y-99720001D01*
X176506336Y-99720001D01*
X176783575Y-99664854D01*
X177044728Y-99556681D01*
X177279760Y-99399638D01*
X177479638Y-99199760D01*
X177636681Y-98964728D01*
X177744854Y-98703575D01*
X177800001Y-98426336D01*
X177800001Y-98143666D01*
X177744854Y-97866427D01*
X177636681Y-97605274D01*
X177479638Y-97370242D01*
X177279760Y-97170364D01*
X177044728Y-97013321D01*
X176783575Y-96905148D01*
X176506336Y-96850001D01*
X176223666Y-96850001D01*
X175946427Y-96905148D01*
X175685274Y-97013321D01*
X175450242Y-97170364D01*
X175250364Y-97370242D01*
X175093321Y-97605274D01*
X174985148Y-97866427D01*
X174930001Y-98143666D01*
X170180001Y-98143666D01*
X170124854Y-97866427D01*
X170016681Y-97605274D01*
X169859638Y-97370242D01*
X169659760Y-97170364D01*
X169424728Y-97013321D01*
X169163575Y-96905148D01*
X168886336Y-96850001D01*
X168603666Y-96850001D01*
X168326427Y-96905148D01*
X168065274Y-97013321D01*
X167830242Y-97170364D01*
X167640000Y-97360606D01*
X167640000Y-95159396D01*
X167830242Y-95349638D01*
X168065274Y-95506681D01*
X168326427Y-95614854D01*
X168603666Y-95670001D01*
X168886336Y-95670001D01*
X169163575Y-95614854D01*
X169424728Y-95506681D01*
X169659760Y-95349638D01*
X169859638Y-95149760D01*
X170016681Y-94914728D01*
X170124854Y-94653575D01*
X170180001Y-94376336D01*
X170180001Y-94093666D01*
X174930001Y-94093666D01*
X174930001Y-94376336D01*
X174985148Y-94653575D01*
X175093321Y-94914728D01*
X175250364Y-95149760D01*
X175450242Y-95349638D01*
X175685274Y-95506681D01*
X175946427Y-95614854D01*
X176223666Y-95670001D01*
X176506336Y-95670001D01*
X176783575Y-95614854D01*
X177044728Y-95506681D01*
X177279760Y-95349638D01*
X177479638Y-95149760D01*
X177636681Y-94914728D01*
X177744854Y-94653575D01*
X177800001Y-94376336D01*
X177800001Y-94093666D01*
X177744854Y-93816427D01*
X177636681Y-93555274D01*
X177479638Y-93320242D01*
X177279760Y-93120364D01*
X177044728Y-92963321D01*
X176783575Y-92855148D01*
X176506336Y-92800001D01*
X176223666Y-92800001D01*
X175946427Y-92855148D01*
X175685274Y-92963321D01*
X175450242Y-93120364D01*
X175250364Y-93320242D01*
X175093321Y-93555274D01*
X174985148Y-93816427D01*
X174930001Y-94093666D01*
X170180001Y-94093666D01*
X170124854Y-93816427D01*
X170016681Y-93555274D01*
X169859638Y-93320242D01*
X169659760Y-93120364D01*
X169424728Y-92963321D01*
X169163575Y-92855148D01*
X168886336Y-92800001D01*
X168603666Y-92800001D01*
X168326427Y-92855148D01*
X168065274Y-92963321D01*
X167830242Y-93120364D01*
X167640000Y-93310606D01*
X167640000Y-89445423D01*
X167643686Y-89408000D01*
X167640000Y-89370574D01*
X167628974Y-89258622D01*
X167585402Y-89114985D01*
X167552465Y-89053364D01*
X167514645Y-88982607D01*
X167443279Y-88895648D01*
X167419422Y-88866578D01*
X167390352Y-88842721D01*
X158496000Y-79948370D01*
X158496000Y-76266976D01*
X158712505Y-76122312D01*
X158778944Y-76055873D01*
X158784498Y-76074180D01*
X158843463Y-76184494D01*
X158922815Y-76281185D01*
X159019506Y-76360537D01*
X159129820Y-76419502D01*
X159249518Y-76455812D01*
X159374000Y-76468072D01*
X161174000Y-76468072D01*
X161298482Y-76455812D01*
X161418180Y-76419502D01*
X161528494Y-76360537D01*
X161625185Y-76281185D01*
X161704537Y-76184494D01*
X161763502Y-76074180D01*
X161799812Y-75954482D01*
X161812072Y-75830000D01*
X161812072Y-74030000D01*
X161799812Y-73905518D01*
X161763502Y-73785820D01*
X161704537Y-73675506D01*
X161625185Y-73578815D01*
X161528494Y-73499463D01*
X161418180Y-73440498D01*
X161298482Y-73404188D01*
X161174000Y-73391928D01*
X159374000Y-73391928D01*
X159249518Y-73404188D01*
X159129820Y-73440498D01*
X159019506Y-73499463D01*
X158922815Y-73578815D01*
X158843463Y-73675506D01*
X158784498Y-73785820D01*
X158778944Y-73804127D01*
X158712505Y-73737688D01*
X158461095Y-73569701D01*
X158181743Y-73453989D01*
X157885184Y-73395000D01*
X157582816Y-73395000D01*
X157286257Y-73453989D01*
X157006905Y-73569701D01*
X156755495Y-73737688D01*
X156541688Y-73951495D01*
X156373701Y-74202905D01*
X156257989Y-74482257D01*
X156199000Y-74778816D01*
X156199000Y-75081184D01*
X156257989Y-75377743D01*
X156373701Y-75657095D01*
X156541688Y-75908505D01*
X156755495Y-76122312D01*
X156972001Y-76266977D01*
X156972000Y-80226577D01*
X156968314Y-80264000D01*
X156972000Y-80301423D01*
X156972000Y-80301425D01*
X156983026Y-80413377D01*
X157026598Y-80557014D01*
X157026599Y-80557015D01*
X157097355Y-80689392D01*
X157136983Y-80737678D01*
X157192578Y-80805422D01*
X157221654Y-80829284D01*
X166116001Y-89723632D01*
X166116001Y-92333335D01*
X165967328Y-92233995D01*
X165713091Y-92128686D01*
X165443193Y-92075000D01*
X165168009Y-92075000D01*
X164898111Y-92128686D01*
X164643874Y-92233995D01*
X164415066Y-92386880D01*
X164220481Y-92581465D01*
X164067596Y-92810273D01*
X164035601Y-92887515D01*
X164003606Y-92810273D01*
X163850721Y-92581465D01*
X163656136Y-92386880D01*
X163427328Y-92233995D01*
X163173091Y-92128686D01*
X162903193Y-92075000D01*
X162628009Y-92075000D01*
X162358111Y-92128686D01*
X162103874Y-92233995D01*
X161875066Y-92386880D01*
X161680481Y-92581465D01*
X161527596Y-92810273D01*
X161495601Y-92887515D01*
X161463606Y-92810273D01*
X161310721Y-92581465D01*
X161116136Y-92386880D01*
X160887328Y-92233995D01*
X160633091Y-92128686D01*
X160363193Y-92075000D01*
X160088009Y-92075000D01*
X159818111Y-92128686D01*
X159563874Y-92233995D01*
X159335066Y-92386880D01*
X159140481Y-92581465D01*
X158987596Y-92810273D01*
X158955601Y-92887515D01*
X158923606Y-92810273D01*
X158770721Y-92581465D01*
X158576136Y-92386880D01*
X158347328Y-92233995D01*
X158093091Y-92128686D01*
X157823193Y-92075000D01*
X157548009Y-92075000D01*
X157278111Y-92128686D01*
X157023874Y-92233995D01*
X156795066Y-92386880D01*
X156600481Y-92581465D01*
X156447596Y-92810273D01*
X156342287Y-93064510D01*
X156288601Y-93334408D01*
X156288601Y-93609592D01*
X156342287Y-93879490D01*
X156447596Y-94133727D01*
X156600481Y-94362535D01*
X156795066Y-94557120D01*
X156923602Y-94643005D01*
X156923602Y-95418168D01*
X156919915Y-95455601D01*
X156934628Y-95604979D01*
X156978200Y-95748616D01*
X157048956Y-95880993D01*
X157120322Y-95967952D01*
X157144180Y-95997023D01*
X157173250Y-96020880D01*
X157418370Y-96266000D01*
X155739423Y-96266000D01*
X155702000Y-96262314D01*
X155664577Y-96266000D01*
X155664574Y-96266000D01*
X155552622Y-96277026D01*
X155408985Y-96320598D01*
X155347364Y-96353535D01*
X155276607Y-96391355D01*
X155234219Y-96426143D01*
X155160578Y-96486578D01*
X155136716Y-96515654D01*
X153411649Y-98240721D01*
X153382579Y-98264578D01*
X153358722Y-98293648D01*
X153358721Y-98293649D01*
X153287355Y-98380608D01*
X153216599Y-98512985D01*
X153173027Y-98656622D01*
X153158314Y-98806000D01*
X153162001Y-98843433D01*
X153162000Y-100800576D01*
X153158314Y-100838000D01*
X153162000Y-100875423D01*
X153162000Y-100875425D01*
X153173026Y-100987377D01*
X153216598Y-101131014D01*
X153249535Y-101192635D01*
X153287355Y-101263392D01*
X153326983Y-101311678D01*
X153382578Y-101379422D01*
X153411654Y-101403284D01*
X154669278Y-102660908D01*
X154420283Y-102494535D01*
X154077235Y-102352440D01*
X153713057Y-102280001D01*
X153341745Y-102280001D01*
X152977567Y-102352440D01*
X152634519Y-102494535D01*
X152325783Y-102700826D01*
X152063226Y-102963383D01*
X151856935Y-103272119D01*
X151813078Y-103378000D01*
X149265904Y-103378000D01*
X149216002Y-103373085D01*
X149166100Y-103378000D01*
X149016831Y-103392702D01*
X148825315Y-103450798D01*
X148648812Y-103545140D01*
X148494106Y-103672104D01*
X148462295Y-103710866D01*
X137551869Y-114621293D01*
X137513106Y-114653105D01*
X137386142Y-114807811D01*
X137306197Y-114957379D01*
X137291800Y-114984314D01*
X137233703Y-115175831D01*
X137214086Y-115375001D01*
X137219002Y-115424913D01*
X137219001Y-117669472D01*
X137003851Y-117884622D01*
X136985001Y-117912833D01*
X136966151Y-117884622D01*
X136745380Y-117663851D01*
X136485780Y-117490392D01*
X136197328Y-117370912D01*
X135891110Y-117310001D01*
X135578892Y-117310001D01*
X135272674Y-117370912D01*
X134984222Y-117490392D01*
X134746815Y-117649022D01*
X134715538Y-117590507D01*
X134636186Y-117493816D01*
X134539495Y-117414464D01*
X134429181Y-117355499D01*
X134309483Y-117319189D01*
X134185001Y-117306929D01*
X132285001Y-117306929D01*
X132160519Y-117319189D01*
X132040821Y-117355499D01*
X131930507Y-117414464D01*
X131833816Y-117493816D01*
X131754464Y-117590507D01*
X131695499Y-117700821D01*
X131659189Y-117820519D01*
X131646929Y-117945001D01*
X127647700Y-117945001D01*
X127647700Y-105250001D01*
X131804329Y-105250001D01*
X131816589Y-105374483D01*
X131852899Y-105494181D01*
X131911864Y-105604495D01*
X131991216Y-105701186D01*
X132087907Y-105780538D01*
X132198221Y-105839503D01*
X132317919Y-105875813D01*
X132442401Y-105888073D01*
X133241651Y-105885001D01*
X133400401Y-105726251D01*
X133400401Y-104292001D01*
X133654401Y-104292001D01*
X133654401Y-105726251D01*
X133813151Y-105885001D01*
X134612401Y-105888073D01*
X134736883Y-105875813D01*
X134856581Y-105839503D01*
X134966895Y-105780538D01*
X135063586Y-105701186D01*
X135142938Y-105604495D01*
X135201903Y-105494181D01*
X135238213Y-105374483D01*
X135250473Y-105250001D01*
X135247401Y-104450751D01*
X135088651Y-104292001D01*
X133654401Y-104292001D01*
X133400401Y-104292001D01*
X131966151Y-104292001D01*
X131807401Y-104450751D01*
X131804329Y-105250001D01*
X127647700Y-105250001D01*
X127647700Y-103080001D01*
X131804329Y-103080001D01*
X131807401Y-103879251D01*
X131966151Y-104038001D01*
X133400401Y-104038001D01*
X133400401Y-102603751D01*
X133654401Y-102603751D01*
X133654401Y-104038001D01*
X135088651Y-104038001D01*
X135247401Y-103879251D01*
X135250473Y-103080001D01*
X135238213Y-102955519D01*
X135201903Y-102835821D01*
X135142938Y-102725507D01*
X135063586Y-102628816D01*
X134966895Y-102549464D01*
X134856581Y-102490499D01*
X134736883Y-102454189D01*
X134612401Y-102441929D01*
X133813151Y-102445001D01*
X133654401Y-102603751D01*
X133400401Y-102603751D01*
X133241651Y-102445001D01*
X132442401Y-102441929D01*
X132317919Y-102454189D01*
X132198221Y-102490499D01*
X132087907Y-102549464D01*
X131991216Y-102628816D01*
X131911864Y-102725507D01*
X131852899Y-102835821D01*
X131816589Y-102955519D01*
X131804329Y-103080001D01*
X127647700Y-103080001D01*
X127647700Y-74778816D01*
X143499000Y-74778816D01*
X143499000Y-75081184D01*
X143557989Y-75377743D01*
X143673701Y-75657095D01*
X143841688Y-75908505D01*
X144055495Y-76122312D01*
X144306905Y-76290299D01*
X144586257Y-76406011D01*
X144882816Y-76465000D01*
X145185184Y-76465000D01*
X145481743Y-76406011D01*
X145761095Y-76290299D01*
X146012505Y-76122312D01*
X146078944Y-76055873D01*
X146084498Y-76074180D01*
X146143463Y-76184494D01*
X146222815Y-76281185D01*
X146319506Y-76360537D01*
X146429820Y-76419502D01*
X146549518Y-76455812D01*
X146674000Y-76468072D01*
X148474000Y-76468072D01*
X148598482Y-76455812D01*
X148718180Y-76419502D01*
X148828494Y-76360537D01*
X148925185Y-76281185D01*
X149004537Y-76184494D01*
X149063502Y-76074180D01*
X149099812Y-75954482D01*
X149112072Y-75830000D01*
X149112072Y-74030000D01*
X149099812Y-73905518D01*
X149063502Y-73785820D01*
X149004537Y-73675506D01*
X148925185Y-73578815D01*
X148828494Y-73499463D01*
X148718180Y-73440498D01*
X148598482Y-73404188D01*
X148474000Y-73391928D01*
X146674000Y-73391928D01*
X146549518Y-73404188D01*
X146429820Y-73440498D01*
X146319506Y-73499463D01*
X146222815Y-73578815D01*
X146143463Y-73675506D01*
X146084498Y-73785820D01*
X146078944Y-73804127D01*
X146012505Y-73737688D01*
X145761095Y-73569701D01*
X145481743Y-73453989D01*
X145185184Y-73395000D01*
X144882816Y-73395000D01*
X144586257Y-73453989D01*
X144306905Y-73569701D01*
X144055495Y-73737688D01*
X143841688Y-73951495D01*
X143673701Y-74202905D01*
X143557989Y-74482257D01*
X143499000Y-74778816D01*
X127647700Y-74778816D01*
X127647700Y-45801595D01*
X146294012Y-45801595D01*
X146294422Y-45860299D01*
X146294012Y-45919003D01*
X146294894Y-45928003D01*
X146333757Y-46297757D01*
X146345563Y-46355274D01*
X146356561Y-46412926D01*
X146359175Y-46421584D01*
X146469117Y-46776747D01*
X146491874Y-46830883D01*
X146513857Y-46885293D01*
X146518102Y-46893278D01*
X146694934Y-47220323D01*
X146727766Y-47268999D01*
X146759906Y-47318114D01*
X146765622Y-47325122D01*
X147002611Y-47611592D01*
X147044267Y-47652958D01*
X147085338Y-47694899D01*
X147092306Y-47700663D01*
X147380423Y-47935646D01*
X147429336Y-47968144D01*
X147477758Y-48001299D01*
X147485708Y-48005597D01*
X147485712Y-48005600D01*
X147485716Y-48005602D01*
X147813985Y-48180145D01*
X147868261Y-48202516D01*
X147922215Y-48225642D01*
X147930852Y-48228315D01*
X147930856Y-48228317D01*
X147930860Y-48228318D01*
X148286777Y-48335775D01*
X148344338Y-48347173D01*
X148401787Y-48359384D01*
X148410778Y-48360329D01*
X148410780Y-48360329D01*
X148780796Y-48396609D01*
X148780809Y-48396609D01*
X148812191Y-48399700D01*
X159035809Y-48399700D01*
X159069080Y-48396423D01*
X159093803Y-48396423D01*
X159102796Y-48395478D01*
X159472270Y-48354035D01*
X159529710Y-48341826D01*
X159587278Y-48330427D01*
X159595917Y-48327753D01*
X159950304Y-48215335D01*
X160004293Y-48192195D01*
X160058536Y-48169838D01*
X160066491Y-48165537D01*
X160392294Y-47986425D01*
X160440740Y-47953253D01*
X160489627Y-47920773D01*
X160496590Y-47915012D01*
X160496596Y-47915008D01*
X160496601Y-47915003D01*
X160781403Y-47676026D01*
X160822470Y-47634090D01*
X160864132Y-47592719D01*
X160869847Y-47585711D01*
X161102813Y-47295960D01*
X161134962Y-47246832D01*
X161167785Y-47198170D01*
X161172030Y-47190185D01*
X161344279Y-46860703D01*
X161366282Y-46806243D01*
X161389019Y-46752156D01*
X161391633Y-46743498D01*
X161496605Y-46386833D01*
X161507611Y-46329137D01*
X161519409Y-46271665D01*
X161520290Y-46262672D01*
X161520292Y-46262663D01*
X161520292Y-46262655D01*
X161553988Y-45892405D01*
X161553578Y-45833701D01*
X161553988Y-45774998D01*
X161553106Y-45765998D01*
X161514243Y-45396243D01*
X161502430Y-45338696D01*
X161491438Y-45281073D01*
X161488825Y-45272416D01*
X161378883Y-44917252D01*
X161356114Y-44863088D01*
X161334143Y-44808706D01*
X161329898Y-44800722D01*
X161153066Y-44473677D01*
X161120234Y-44425001D01*
X161088094Y-44375886D01*
X161082378Y-44368878D01*
X160845389Y-44082408D01*
X160803733Y-44041042D01*
X160762662Y-43999101D01*
X160755694Y-43993337D01*
X160467577Y-43758354D01*
X160418664Y-43725856D01*
X160370242Y-43692701D01*
X160362292Y-43688403D01*
X160362288Y-43688400D01*
X160362284Y-43688398D01*
X160034015Y-43513855D01*
X159979753Y-43491490D01*
X159925784Y-43468358D01*
X159917145Y-43465684D01*
X159561223Y-43358224D01*
X159503626Y-43346819D01*
X159446213Y-43334616D01*
X159437223Y-43333671D01*
X159437219Y-43333671D01*
X159067204Y-43297391D01*
X159067191Y-43297391D01*
X159035809Y-43294300D01*
X148812191Y-43294300D01*
X148778920Y-43297577D01*
X148754197Y-43297577D01*
X148745204Y-43298522D01*
X148375730Y-43339965D01*
X148318265Y-43352180D01*
X148260722Y-43363573D01*
X148252083Y-43366247D01*
X147897696Y-43478665D01*
X147843720Y-43501799D01*
X147789463Y-43524162D01*
X147781509Y-43528463D01*
X147455706Y-43707575D01*
X147407277Y-43740735D01*
X147358372Y-43773227D01*
X147351410Y-43778988D01*
X147351404Y-43778992D01*
X147351399Y-43778997D01*
X147066597Y-44017974D01*
X147025511Y-44059929D01*
X146983868Y-44101282D01*
X146978158Y-44108284D01*
X146978153Y-44108289D01*
X146978149Y-44108294D01*
X146745187Y-44398040D01*
X146713042Y-44447163D01*
X146680215Y-44495831D01*
X146675973Y-44503811D01*
X146675970Y-44503815D01*
X146675970Y-44503816D01*
X146503721Y-44833297D01*
X146481722Y-44887745D01*
X146458981Y-44941844D01*
X146456367Y-44950501D01*
X146351395Y-45307167D01*
X146340389Y-45364863D01*
X146328591Y-45422335D01*
X146327710Y-45431328D01*
X146327708Y-45431337D01*
X146327708Y-45431345D01*
X146294012Y-45801595D01*
X127647700Y-45801595D01*
X127647700Y-42062000D01*
X180200300Y-42062000D01*
X180200301Y-126352300D01*
%TA.AperFunction,Conductor*%
D25*
G36*
X180200301Y-126352300D02*
G01*
X127647700Y-126352300D01*
X127647700Y-121908000D01*
X130311000Y-121908000D01*
X130311000Y-125728000D01*
X135881000Y-125728000D01*
X135881000Y-121908000D01*
X130311000Y-121908000D01*
X127647700Y-121908000D01*
X127647700Y-117945001D01*
X131646929Y-117945001D01*
X131646929Y-119845001D01*
X131659189Y-119969483D01*
X131695499Y-120089181D01*
X131754464Y-120199495D01*
X131833816Y-120296186D01*
X131930507Y-120375538D01*
X132040821Y-120434503D01*
X132160519Y-120470813D01*
X132285001Y-120483073D01*
X134185001Y-120483073D01*
X134309483Y-120470813D01*
X134429181Y-120434503D01*
X134539495Y-120375538D01*
X134636186Y-120296186D01*
X134715538Y-120199495D01*
X134746815Y-120140980D01*
X134984222Y-120299610D01*
X135272674Y-120419090D01*
X135578892Y-120480001D01*
X135891110Y-120480001D01*
X136197328Y-120419090D01*
X136485780Y-120299610D01*
X136745380Y-120126151D01*
X136966151Y-119905380D01*
X136985001Y-119877169D01*
X137003851Y-119905380D01*
X137224622Y-120126151D01*
X137484222Y-120299610D01*
X137772674Y-120419090D01*
X138078892Y-120480001D01*
X138391110Y-120480001D01*
X138697328Y-120419090D01*
X138985780Y-120299610D01*
X139245380Y-120126151D01*
X139466151Y-119905380D01*
X139639610Y-119645780D01*
X139759090Y-119357328D01*
X139820001Y-119051110D01*
X139820001Y-118738892D01*
X139759090Y-118432674D01*
X139639610Y-118144222D01*
X139545694Y-118003666D01*
X142330001Y-118003666D01*
X142330001Y-118286336D01*
X142385148Y-118563575D01*
X142493321Y-118824728D01*
X142650364Y-119059760D01*
X142850242Y-119259638D01*
X143085274Y-119416681D01*
X143346427Y-119524854D01*
X143623666Y-119580001D01*
X143906336Y-119580001D01*
X144183575Y-119524854D01*
X144444728Y-119416681D01*
X144679760Y-119259638D01*
X144879638Y-119059760D01*
X145036681Y-118824728D01*
X145144854Y-118563575D01*
X145200001Y-118286336D01*
X145200001Y-118003666D01*
X145144854Y-117726427D01*
X145036681Y-117465274D01*
X144879638Y-117230242D01*
X144781001Y-117131605D01*
X144781001Y-116499841D01*
X150790843Y-110490000D01*
X156355479Y-110490000D01*
X156455274Y-110556681D01*
X156716427Y-110664854D01*
X156993666Y-110720001D01*
X157276336Y-110720001D01*
X157553575Y-110664854D01*
X157814728Y-110556681D01*
X158049760Y-110399638D01*
X158249638Y-110199760D01*
X158406681Y-109964728D01*
X158514854Y-109703575D01*
X158570001Y-109426336D01*
X158570001Y-109143666D01*
X158514854Y-108866427D01*
X158406681Y-108605274D01*
X158249638Y-108370242D01*
X158049760Y-108170364D01*
X157814728Y-108013321D01*
X157553575Y-107905148D01*
X157276336Y-107850001D01*
X156993666Y-107850001D01*
X156716427Y-107905148D01*
X156455274Y-108013321D01*
X156220242Y-108170364D01*
X156020364Y-108370242D01*
X155961726Y-108458000D01*
X150419904Y-108458000D01*
X150370002Y-108453085D01*
X150320100Y-108458000D01*
X150170831Y-108472702D01*
X149979315Y-108530798D01*
X149802812Y-108625140D01*
X149648106Y-108752104D01*
X149616295Y-108790866D01*
X143081869Y-115325293D01*
X143043106Y-115357105D01*
X142916142Y-115511811D01*
X142867802Y-115602250D01*
X142821800Y-115688314D01*
X142763703Y-115879831D01*
X142744086Y-116079001D01*
X142749002Y-116128912D01*
X142749001Y-117131605D01*
X142650364Y-117230242D01*
X142493321Y-117465274D01*
X142385148Y-117726427D01*
X142330001Y-118003666D01*
X139545694Y-118003666D01*
X139466151Y-117884622D01*
X139251001Y-117669472D01*
X139251001Y-115795841D01*
X149636843Y-105410000D01*
X152106607Y-105410000D01*
X152325783Y-105629176D01*
X152634519Y-105835467D01*
X152977567Y-105977562D01*
X153341745Y-106050001D01*
X153713057Y-106050001D01*
X154077235Y-105977562D01*
X154420283Y-105835467D01*
X154729019Y-105629176D01*
X154991576Y-105366619D01*
X155197867Y-105057883D01*
X155339962Y-104714835D01*
X155412401Y-104350657D01*
X155412401Y-103979345D01*
X155339962Y-103615167D01*
X155197867Y-103272119D01*
X155031494Y-103023125D01*
X156174488Y-104166118D01*
X156020364Y-104320242D01*
X155863321Y-104555274D01*
X155755148Y-104816427D01*
X155700001Y-105093666D01*
X155700001Y-105376336D01*
X155755148Y-105653575D01*
X155863321Y-105914728D01*
X156020364Y-106149760D01*
X156220242Y-106349638D01*
X156455274Y-106506681D01*
X156716427Y-106614854D01*
X156993666Y-106670001D01*
X157276336Y-106670001D01*
X157553575Y-106614854D01*
X157814728Y-106506681D01*
X158049760Y-106349638D01*
X158249638Y-106149760D01*
X158406681Y-105914728D01*
X158514854Y-105653575D01*
X158570001Y-105376336D01*
X158570001Y-105093666D01*
X158514854Y-104816427D01*
X158406681Y-104555274D01*
X158249638Y-104320242D01*
X158049760Y-104120364D01*
X157897709Y-104018767D01*
X157896187Y-104003313D01*
X157885975Y-103899623D01*
X157842403Y-103755986D01*
X157771646Y-103623609D01*
X157676423Y-103507579D01*
X157647353Y-103483722D01*
X156221196Y-102057565D01*
X156899641Y-102057565D01*
X156966621Y-102297656D01*
X157215649Y-102414756D01*
X157482736Y-102481023D01*
X157757618Y-102493910D01*
X158029734Y-102452922D01*
X158288624Y-102359636D01*
X158404581Y-102297656D01*
X158471561Y-102057565D01*
X157685601Y-101271605D01*
X156899641Y-102057565D01*
X156221196Y-102057565D01*
X155327648Y-101164017D01*
X156283691Y-101164017D01*
X156324679Y-101436133D01*
X156417965Y-101695023D01*
X156479945Y-101810980D01*
X156720036Y-101877960D01*
X157505996Y-101092000D01*
X156720036Y-100306040D01*
X156479945Y-100373020D01*
X156362845Y-100622048D01*
X156296578Y-100889135D01*
X156283691Y-101164017D01*
X155327648Y-101164017D01*
X154686000Y-100522370D01*
X154686000Y-100126435D01*
X156899641Y-100126435D01*
X157685601Y-100912395D01*
X158471561Y-100126435D01*
X158404581Y-99886344D01*
X158155553Y-99769244D01*
X157888466Y-99702977D01*
X157613584Y-99690090D01*
X157341468Y-99731078D01*
X157082578Y-99824364D01*
X156966621Y-99886344D01*
X156899641Y-100126435D01*
X154686000Y-100126435D01*
X154686000Y-99121630D01*
X156017630Y-97790000D01*
X158942370Y-97790000D01*
X159454720Y-98302351D01*
X159478578Y-98331422D01*
X159507648Y-98355279D01*
X159594607Y-98426645D01*
X159665364Y-98464465D01*
X159726985Y-98497402D01*
X159870622Y-98540974D01*
X159982574Y-98552000D01*
X159982577Y-98552000D01*
X160020000Y-98555686D01*
X160057423Y-98552000D01*
X161687971Y-98552000D01*
X162830971Y-99695000D01*
X162628009Y-99695000D01*
X162358111Y-99748686D01*
X162103874Y-99853995D01*
X161875066Y-100006880D01*
X161680481Y-100201465D01*
X161527596Y-100430273D01*
X161495601Y-100507515D01*
X161463606Y-100430273D01*
X161310721Y-100201465D01*
X161116136Y-100006880D01*
X160887328Y-99853995D01*
X160633091Y-99748686D01*
X160363193Y-99695000D01*
X160088009Y-99695000D01*
X159818111Y-99748686D01*
X159563874Y-99853995D01*
X159335066Y-100006880D01*
X159140481Y-100201465D01*
X158987596Y-100430273D01*
X158957909Y-100501943D01*
X158953237Y-100488977D01*
X158891257Y-100373020D01*
X158651166Y-100306040D01*
X157865206Y-101092000D01*
X158651166Y-101877960D01*
X158891257Y-101810980D01*
X158955086Y-101675240D01*
X158987596Y-101753727D01*
X159140481Y-101982535D01*
X159335066Y-102177120D01*
X159463602Y-102263005D01*
X159463601Y-103800178D01*
X159459915Y-103837601D01*
X159463601Y-103875024D01*
X159463601Y-103875026D01*
X159474627Y-103986978D01*
X159518199Y-104130615D01*
X159536579Y-104165002D01*
X159588956Y-104262993D01*
X159628584Y-104311279D01*
X159684179Y-104379023D01*
X159713254Y-104402885D01*
X160274001Y-104963632D01*
X160274000Y-110174369D01*
X157418370Y-113030000D01*
X150405422Y-113030000D01*
X150367999Y-113026314D01*
X150330576Y-113030000D01*
X150330574Y-113030000D01*
X150218622Y-113041026D01*
X150074985Y-113084598D01*
X149942608Y-113155355D01*
X149826578Y-113250578D01*
X149802721Y-113279648D01*
X146553649Y-116528721D01*
X146524579Y-116552578D01*
X146500722Y-116581648D01*
X146500721Y-116581649D01*
X146429355Y-116668608D01*
X146358599Y-116800985D01*
X146315027Y-116944622D01*
X146300314Y-117094000D01*
X146304001Y-117131433D01*
X146304000Y-120866577D01*
X146300314Y-120904000D01*
X146304000Y-120941423D01*
X146304000Y-120941425D01*
X146315026Y-121053377D01*
X146358598Y-121197014D01*
X146358599Y-121197015D01*
X146429355Y-121329392D01*
X146459434Y-121366043D01*
X146524578Y-121445422D01*
X146553654Y-121469284D01*
X147770721Y-122686352D01*
X147794578Y-122715422D01*
X147910608Y-122810645D01*
X148042985Y-122881402D01*
X148186622Y-122924974D01*
X148298574Y-122936000D01*
X148298576Y-122936000D01*
X148335999Y-122939686D01*
X148373422Y-122936000D01*
X165062577Y-122936000D01*
X165100000Y-122939686D01*
X165137423Y-122936000D01*
X165137426Y-122936000D01*
X165249378Y-122924974D01*
X165393015Y-122881402D01*
X165525392Y-122810645D01*
X165641422Y-122715422D01*
X165665284Y-122686346D01*
X166607122Y-121744508D01*
X166636198Y-121720646D01*
X166696633Y-121647005D01*
X166731421Y-121604617D01*
X166802177Y-121472240D01*
X166802178Y-121472239D01*
X166845750Y-121328602D01*
X166856776Y-121216650D01*
X166856776Y-121216647D01*
X166860462Y-121179224D01*
X166856776Y-121141801D01*
X166856776Y-119823073D01*
X166894776Y-119823073D01*
X167019258Y-119810813D01*
X167138956Y-119774503D01*
X167249270Y-119715538D01*
X167345961Y-119636186D01*
X167356583Y-119623243D01*
X167608772Y-119742572D01*
X167882960Y-119811301D01*
X168165288Y-119825218D01*
X168444906Y-119783788D01*
X168711068Y-119688604D01*
X168836290Y-119621672D01*
X168907873Y-119377703D01*
X168094776Y-118564606D01*
X168080634Y-118578749D01*
X167901029Y-118399144D01*
X167915171Y-118385001D01*
X168274381Y-118385001D01*
X169087478Y-119198098D01*
X169331447Y-119126515D01*
X169452347Y-118871005D01*
X169455105Y-118860000D01*
X172855928Y-118860000D01*
X172868188Y-118984482D01*
X172904498Y-119104180D01*
X172963463Y-119214494D01*
X173042815Y-119311185D01*
X173139506Y-119390537D01*
X173249820Y-119449502D01*
X173369518Y-119485812D01*
X173494000Y-119498072D01*
X173565554Y-119497599D01*
X173361114Y-119634201D01*
X173168201Y-119827114D01*
X173016629Y-120053957D01*
X172912225Y-120306011D01*
X172859000Y-120573589D01*
X172859000Y-120846411D01*
X172912225Y-121113989D01*
X173016629Y-121366043D01*
X173168201Y-121592886D01*
X173361114Y-121785799D01*
X173587957Y-121937371D01*
X173763299Y-122010000D01*
X173587957Y-122082629D01*
X173361114Y-122234201D01*
X173168201Y-122427114D01*
X173016629Y-122653957D01*
X172912225Y-122906011D01*
X172859000Y-123173589D01*
X172859000Y-123446411D01*
X172912225Y-123713989D01*
X173016629Y-123966043D01*
X173168201Y-124192886D01*
X173361114Y-124385799D01*
X173587957Y-124537371D01*
X173840011Y-124641775D01*
X174107589Y-124695000D01*
X174380411Y-124695000D01*
X174647989Y-124641775D01*
X174900043Y-124537371D01*
X175126886Y-124385799D01*
X175319799Y-124192886D01*
X175471371Y-123966043D01*
X175575775Y-123713989D01*
X175629000Y-123446411D01*
X175629000Y-123173589D01*
X175575775Y-122906011D01*
X175471371Y-122653957D01*
X175319799Y-122427114D01*
X175126886Y-122234201D01*
X174900043Y-122082629D01*
X174724701Y-122010000D01*
X174900043Y-121937371D01*
X175126886Y-121785799D01*
X175319799Y-121592886D01*
X175471371Y-121366043D01*
X175575775Y-121113989D01*
X175629000Y-120846411D01*
X175629000Y-120573589D01*
X175575775Y-120306011D01*
X175471371Y-120053957D01*
X175319799Y-119827114D01*
X175126886Y-119634201D01*
X174922446Y-119497599D01*
X174994000Y-119498072D01*
X175118482Y-119485812D01*
X175238180Y-119449502D01*
X175348494Y-119390537D01*
X175445185Y-119311185D01*
X175524537Y-119214494D01*
X175583502Y-119104180D01*
X175619812Y-118984482D01*
X175632072Y-118860000D01*
X175629000Y-118395750D01*
X175470250Y-118237000D01*
X174371000Y-118237000D01*
X174371000Y-118257000D01*
X174117000Y-118257000D01*
X174117000Y-118237000D01*
X173017750Y-118237000D01*
X172859000Y-118395750D01*
X172855928Y-118860000D01*
X169455105Y-118860000D01*
X169521076Y-118596817D01*
X169534993Y-118314489D01*
X169493563Y-118034871D01*
X169398379Y-117768709D01*
X169331447Y-117643487D01*
X169087478Y-117571904D01*
X168274381Y-118385001D01*
X167915171Y-118385001D01*
X167901029Y-118370859D01*
X168080634Y-118191254D01*
X168094776Y-118205396D01*
X168907873Y-117392299D01*
X168898397Y-117360000D01*
X172855928Y-117360000D01*
X172859000Y-117824250D01*
X173017750Y-117983000D01*
X174117000Y-117983000D01*
X174117000Y-116883750D01*
X174371000Y-116883750D01*
X174371000Y-117983000D01*
X175470250Y-117983000D01*
X175629000Y-117824250D01*
X175632072Y-117360000D01*
X175619812Y-117235518D01*
X175583502Y-117115820D01*
X175524537Y-117005506D01*
X175445185Y-116908815D01*
X175348494Y-116829463D01*
X175238180Y-116770498D01*
X175118482Y-116734188D01*
X174994000Y-116721928D01*
X174529750Y-116725000D01*
X174371000Y-116883750D01*
X174117000Y-116883750D01*
X173958250Y-116725000D01*
X173494000Y-116721928D01*
X173369518Y-116734188D01*
X173249820Y-116770498D01*
X173139506Y-116829463D01*
X173042815Y-116908815D01*
X172963463Y-117005506D01*
X172904498Y-117115820D01*
X172868188Y-117235518D01*
X172855928Y-117360000D01*
X168898397Y-117360000D01*
X168836290Y-117148330D01*
X168580780Y-117027430D01*
X168306592Y-116958701D01*
X168024264Y-116944784D01*
X167744646Y-116986214D01*
X167478484Y-117081398D01*
X167356467Y-117146617D01*
X167345961Y-117133816D01*
X167249270Y-117054464D01*
X167138956Y-116995499D01*
X167019258Y-116959189D01*
X166894776Y-116946929D01*
X166856776Y-116946929D01*
X166856776Y-116668854D01*
X167955631Y-115570000D01*
X173698577Y-115570000D01*
X173736000Y-115573686D01*
X173773423Y-115570000D01*
X173773426Y-115570000D01*
X173885378Y-115558974D01*
X174029015Y-115515402D01*
X174161392Y-115444645D01*
X174277422Y-115349422D01*
X174301284Y-115320346D01*
X176037354Y-113584277D01*
X176066423Y-113560421D01*
X176161646Y-113444391D01*
X176232403Y-113312014D01*
X176275975Y-113168377D01*
X176287001Y-113056425D01*
X176287001Y-113056416D01*
X176290686Y-113019000D01*
X176287001Y-112981584D01*
X176287001Y-106451708D01*
X176439760Y-106349638D01*
X176639638Y-106149760D01*
X176796681Y-105914728D01*
X176904854Y-105653575D01*
X176960001Y-105376336D01*
X176960001Y-105093666D01*
X176904854Y-104816427D01*
X176796681Y-104555274D01*
X176639638Y-104320242D01*
X176439760Y-104120364D01*
X176204728Y-103963321D01*
X175943575Y-103855148D01*
X175666336Y-103800001D01*
X175383666Y-103800001D01*
X175106427Y-103855148D01*
X174845274Y-103963321D01*
X174610242Y-104120364D01*
X174410364Y-104320242D01*
X174253321Y-104555274D01*
X174145148Y-104816427D01*
X174090001Y-105093666D01*
X174090001Y-105376336D01*
X174145148Y-105653575D01*
X174253321Y-105914728D01*
X174410364Y-106149760D01*
X174610242Y-106349638D01*
X174763002Y-106451709D01*
X174763001Y-112703368D01*
X173420370Y-114046000D01*
X168439426Y-114046000D01*
X168551378Y-114034974D01*
X168695015Y-113991402D01*
X168827392Y-113920645D01*
X168943422Y-113825422D01*
X168967284Y-113796347D01*
X169652595Y-113111036D01*
X169681664Y-113087180D01*
X169719541Y-113041027D01*
X169776887Y-112971151D01*
X169847643Y-112838774D01*
X169847644Y-112838773D01*
X169891216Y-112695136D01*
X169898313Y-112623073D01*
X169940242Y-112623073D01*
X170064724Y-112610813D01*
X170184422Y-112574503D01*
X170294736Y-112515538D01*
X170391427Y-112436186D01*
X170470779Y-112339495D01*
X170529744Y-112229181D01*
X170545359Y-112177703D01*
X170827145Y-112177703D01*
X170898728Y-112421672D01*
X171154238Y-112542572D01*
X171428426Y-112611301D01*
X171710754Y-112625218D01*
X171990372Y-112583788D01*
X172256534Y-112488604D01*
X172381756Y-112421672D01*
X172453339Y-112177703D01*
X171640242Y-111364606D01*
X170827145Y-112177703D01*
X170545359Y-112177703D01*
X170566054Y-112109483D01*
X170578314Y-111985001D01*
X170578314Y-111977786D01*
X170647540Y-111998098D01*
X171460637Y-111185001D01*
X171819847Y-111185001D01*
X172632944Y-111998098D01*
X172876913Y-111926515D01*
X172997813Y-111671005D01*
X173066542Y-111396817D01*
X173080459Y-111114489D01*
X173039029Y-110834871D01*
X172943845Y-110568709D01*
X172876913Y-110443487D01*
X172632944Y-110371904D01*
X171819847Y-111185001D01*
X171460637Y-111185001D01*
X170647540Y-110371904D01*
X170578314Y-110392216D01*
X170578314Y-110385001D01*
X170566054Y-110260519D01*
X170545360Y-110192299D01*
X170827145Y-110192299D01*
X171640242Y-111005396D01*
X172453339Y-110192299D01*
X172381756Y-109948330D01*
X172126246Y-109827430D01*
X171852058Y-109758701D01*
X171569730Y-109744784D01*
X171290112Y-109786214D01*
X171023950Y-109881398D01*
X170898728Y-109948330D01*
X170827145Y-110192299D01*
X170545360Y-110192299D01*
X170529744Y-110140821D01*
X170470779Y-110030507D01*
X170391427Y-109933816D01*
X170294736Y-109854464D01*
X170184422Y-109795499D01*
X170064724Y-109759189D01*
X169940242Y-109746929D01*
X168340242Y-109746929D01*
X168215760Y-109759189D01*
X168096062Y-109795499D01*
X167985748Y-109854464D01*
X167889057Y-109933816D01*
X167809705Y-110030507D01*
X167750740Y-110140821D01*
X167714430Y-110260519D01*
X167702170Y-110385001D01*
X167702170Y-111985001D01*
X167714430Y-112109483D01*
X167750740Y-112229181D01*
X167809705Y-112339495D01*
X167889057Y-112436186D01*
X167985748Y-112515538D01*
X167997837Y-112522000D01*
X161835423Y-112522000D01*
X161798000Y-112518314D01*
X161760577Y-112522000D01*
X161760574Y-112522000D01*
X161648622Y-112533026D01*
X161504985Y-112576598D01*
X161443364Y-112609535D01*
X161372607Y-112647355D01*
X161330219Y-112682143D01*
X161256578Y-112742578D01*
X161232716Y-112771654D01*
X156621369Y-117383001D01*
X155751708Y-117383001D01*
X155649638Y-117230242D01*
X155449760Y-117030364D01*
X155214728Y-116873321D01*
X154953575Y-116765148D01*
X154676336Y-116710001D01*
X154393666Y-116710001D01*
X154116427Y-116765148D01*
X153855274Y-116873321D01*
X153620242Y-117030364D01*
X153420364Y-117230242D01*
X153263321Y-117465274D01*
X153155148Y-117726427D01*
X153100001Y-118003666D01*
X153100001Y-118286336D01*
X153155148Y-118563575D01*
X153263321Y-118824728D01*
X153420364Y-119059760D01*
X153620242Y-119259638D01*
X153855274Y-119416681D01*
X154116427Y-119524854D01*
X154393666Y-119580001D01*
X154676336Y-119580001D01*
X154953575Y-119524854D01*
X155214728Y-119416681D01*
X155449760Y-119259638D01*
X155649638Y-119059760D01*
X155751708Y-118907001D01*
X156899576Y-118907001D01*
X156936999Y-118910687D01*
X156974422Y-118907001D01*
X156974425Y-118907001D01*
X157086377Y-118895975D01*
X157230014Y-118852403D01*
X157362391Y-118781646D01*
X157478421Y-118686423D01*
X157502283Y-118657347D01*
X157665590Y-118494040D01*
X160763097Y-118494040D01*
X160803755Y-118628088D01*
X160923964Y-118882421D01*
X161091482Y-119108415D01*
X161299870Y-119297386D01*
X161541120Y-119442071D01*
X161805961Y-119536910D01*
X162028001Y-119415625D01*
X162028001Y-118272001D01*
X162282001Y-118272001D01*
X162282001Y-119415625D01*
X162504041Y-119536910D01*
X162768882Y-119442071D01*
X163010132Y-119297386D01*
X163218520Y-119108415D01*
X163386038Y-118882421D01*
X163506247Y-118628088D01*
X163546905Y-118494040D01*
X163424916Y-118272001D01*
X162282001Y-118272001D01*
X162028001Y-118272001D01*
X160885086Y-118272001D01*
X160763097Y-118494040D01*
X157665590Y-118494040D01*
X158363668Y-117795962D01*
X160763097Y-117795962D01*
X160885086Y-118018001D01*
X162028001Y-118018001D01*
X162028001Y-116874377D01*
X162282001Y-116874377D01*
X162282001Y-118018001D01*
X163424916Y-118018001D01*
X163546905Y-117795962D01*
X163506247Y-117661914D01*
X163386038Y-117407581D01*
X163218520Y-117181587D01*
X163010132Y-116992616D01*
X162768882Y-116847931D01*
X162504041Y-116753092D01*
X162282001Y-116874377D01*
X162028001Y-116874377D01*
X161805961Y-116753092D01*
X161541120Y-116847931D01*
X161299870Y-116992616D01*
X161091482Y-117181587D01*
X160923964Y-117407581D01*
X160803755Y-117661914D01*
X160763097Y-117795962D01*
X158363668Y-117795962D01*
X162113630Y-114046000D01*
X167602574Y-114046000D01*
X167490622Y-114057026D01*
X167346985Y-114100598D01*
X167285364Y-114133535D01*
X167214607Y-114171355D01*
X167158510Y-114217393D01*
X167098578Y-114266578D01*
X167074721Y-114295648D01*
X165582425Y-115787945D01*
X165553355Y-115811802D01*
X165529498Y-115840872D01*
X165529497Y-115840873D01*
X165458131Y-115927832D01*
X165387375Y-116060209D01*
X165343803Y-116203846D01*
X165329090Y-116353224D01*
X165332777Y-116390657D01*
X165332777Y-116946929D01*
X165294776Y-116946929D01*
X165170294Y-116959189D01*
X165050596Y-116995499D01*
X164940282Y-117054464D01*
X164843591Y-117133816D01*
X164764239Y-117230507D01*
X164705274Y-117340821D01*
X164668964Y-117460519D01*
X164656704Y-117585001D01*
X164656704Y-119185001D01*
X164668964Y-119309483D01*
X164705274Y-119429181D01*
X164764239Y-119539495D01*
X164843591Y-119636186D01*
X164940282Y-119715538D01*
X165050596Y-119774503D01*
X165170294Y-119810813D01*
X165294776Y-119823073D01*
X165332777Y-119823073D01*
X165332777Y-120863593D01*
X164784370Y-121412000D01*
X148651631Y-121412000D01*
X147828000Y-120588370D01*
X147828000Y-118003666D01*
X149950001Y-118003666D01*
X149950001Y-118286336D01*
X150005148Y-118563575D01*
X150113321Y-118824728D01*
X150270364Y-119059760D01*
X150470242Y-119259638D01*
X150705274Y-119416681D01*
X150966427Y-119524854D01*
X151243666Y-119580001D01*
X151526336Y-119580001D01*
X151803575Y-119524854D01*
X152064728Y-119416681D01*
X152299760Y-119259638D01*
X152499638Y-119059760D01*
X152656681Y-118824728D01*
X152764854Y-118563575D01*
X152820001Y-118286336D01*
X152820001Y-118003666D01*
X152764854Y-117726427D01*
X152656681Y-117465274D01*
X152499638Y-117230242D01*
X152299760Y-117030364D01*
X152064728Y-116873321D01*
X151803575Y-116765148D01*
X151526336Y-116710001D01*
X151243666Y-116710001D01*
X150966427Y-116765148D01*
X150705274Y-116873321D01*
X150470242Y-117030364D01*
X150270364Y-117230242D01*
X150113321Y-117465274D01*
X150005148Y-117726427D01*
X149950001Y-118003666D01*
X147828000Y-118003666D01*
X147828000Y-117409630D01*
X150683631Y-114554000D01*
X157696577Y-114554000D01*
X157734000Y-114557686D01*
X157771423Y-114554000D01*
X157771426Y-114554000D01*
X157883378Y-114542974D01*
X158027015Y-114499402D01*
X158159392Y-114428645D01*
X158275422Y-114333422D01*
X158299284Y-114304346D01*
X161548353Y-111055278D01*
X161577422Y-111031422D01*
X161672645Y-110915392D01*
X161743402Y-110783015D01*
X161786974Y-110639378D01*
X161798000Y-110527426D01*
X161798000Y-110527424D01*
X161801686Y-110490001D01*
X161798000Y-110452578D01*
X161798000Y-109143666D01*
X163320001Y-109143666D01*
X163320001Y-109426336D01*
X163375148Y-109703575D01*
X163483321Y-109964728D01*
X163640364Y-110199760D01*
X163840242Y-110399638D01*
X164075274Y-110556681D01*
X164336427Y-110664854D01*
X164613666Y-110720001D01*
X164896336Y-110720001D01*
X165173575Y-110664854D01*
X165434728Y-110556681D01*
X165669760Y-110399638D01*
X165869638Y-110199760D01*
X166026681Y-109964728D01*
X166134854Y-109703575D01*
X166190001Y-109426336D01*
X166190001Y-109143666D01*
X166134854Y-108866427D01*
X166026681Y-108605274D01*
X165869638Y-108370242D01*
X165669760Y-108170364D01*
X165434728Y-108013321D01*
X165173575Y-107905148D01*
X164896336Y-107850001D01*
X164613666Y-107850001D01*
X164336427Y-107905148D01*
X164075274Y-108013321D01*
X163840242Y-108170364D01*
X163640364Y-108370242D01*
X163483321Y-108605274D01*
X163375148Y-108866427D01*
X163320001Y-109143666D01*
X161798000Y-109143666D01*
X161798000Y-104685422D01*
X161801686Y-104647999D01*
X161797282Y-104603287D01*
X161786974Y-104498622D01*
X161743402Y-104354985D01*
X161672645Y-104222608D01*
X161577422Y-104106578D01*
X161548351Y-104082720D01*
X160987601Y-103521971D01*
X160987601Y-102263005D01*
X161116136Y-102177120D01*
X161310721Y-101982535D01*
X161463606Y-101753727D01*
X161495601Y-101676485D01*
X161527596Y-101753727D01*
X161680481Y-101982535D01*
X161875066Y-102177120D01*
X162103874Y-102330005D01*
X162358111Y-102435314D01*
X162628009Y-102489000D01*
X162903193Y-102489000D01*
X163173091Y-102435314D01*
X163427328Y-102330005D01*
X163656136Y-102177120D01*
X163850721Y-101982535D01*
X164003606Y-101753727D01*
X164035601Y-101676485D01*
X164067596Y-101753727D01*
X164220481Y-101982535D01*
X164415066Y-102177120D01*
X164643874Y-102330005D01*
X164833505Y-102408553D01*
X164806985Y-102416598D01*
X164674608Y-102487355D01*
X164558578Y-102582578D01*
X164534716Y-102611654D01*
X164242650Y-102903720D01*
X164213580Y-102927577D01*
X164189723Y-102956647D01*
X164189722Y-102956648D01*
X164118356Y-103043607D01*
X164047600Y-103175984D01*
X164004028Y-103319621D01*
X163989315Y-103468999D01*
X163993002Y-103506432D01*
X163993002Y-104018293D01*
X163840242Y-104120364D01*
X163640364Y-104320242D01*
X163483321Y-104555274D01*
X163375148Y-104816427D01*
X163320001Y-105093666D01*
X163320001Y-105376336D01*
X163375148Y-105653575D01*
X163483321Y-105914728D01*
X163640364Y-106149760D01*
X163840242Y-106349638D01*
X164075274Y-106506681D01*
X164336427Y-106614854D01*
X164613666Y-106670001D01*
X164896336Y-106670001D01*
X165173575Y-106614854D01*
X165434728Y-106506681D01*
X165669760Y-106349638D01*
X165869638Y-106149760D01*
X166026681Y-105914728D01*
X166134854Y-105653575D01*
X166190001Y-105376336D01*
X166190001Y-105093666D01*
X166470001Y-105093666D01*
X166470001Y-105376336D01*
X166525148Y-105653575D01*
X166633321Y-105914728D01*
X166790364Y-106149760D01*
X166990242Y-106349638D01*
X167225274Y-106506681D01*
X167486427Y-106614854D01*
X167763666Y-106670001D01*
X168046336Y-106670001D01*
X168323575Y-106614854D01*
X168584728Y-106506681D01*
X168819760Y-106349638D01*
X169019638Y-106149760D01*
X169176681Y-105914728D01*
X169284854Y-105653575D01*
X169340001Y-105376336D01*
X169340001Y-105093666D01*
X169284854Y-104816427D01*
X169176681Y-104555274D01*
X169019638Y-104320242D01*
X168819760Y-104120364D01*
X168584728Y-103963321D01*
X168323575Y-103855148D01*
X168046336Y-103800001D01*
X167763666Y-103800001D01*
X167486427Y-103855148D01*
X167225274Y-103963321D01*
X166990242Y-104120364D01*
X166790364Y-104320242D01*
X166633321Y-104555274D01*
X166525148Y-104816427D01*
X166470001Y-105093666D01*
X166190001Y-105093666D01*
X166134854Y-104816427D01*
X166026681Y-104555274D01*
X165869638Y-104320242D01*
X165669760Y-104120364D01*
X165517001Y-104018294D01*
X165517001Y-103886000D01*
X166078577Y-103886000D01*
X166116000Y-103889686D01*
X166153423Y-103886000D01*
X166153426Y-103886000D01*
X166265378Y-103874974D01*
X166409015Y-103831402D01*
X166541392Y-103760645D01*
X166657422Y-103665422D01*
X166681284Y-103636347D01*
X167390353Y-102927278D01*
X167419422Y-102903422D01*
X167446772Y-102870096D01*
X167514645Y-102787393D01*
X167559586Y-102703313D01*
X167585402Y-102655015D01*
X167628974Y-102511378D01*
X167640000Y-102399426D01*
X167640000Y-102399423D01*
X167643686Y-102362000D01*
X167640000Y-102324577D01*
X167640000Y-99209396D01*
X167830242Y-99399638D01*
X168065274Y-99556681D01*
X168326427Y-99664854D01*
X168603666Y-99720001D01*
X168886336Y-99720001D01*
X169163575Y-99664854D01*
X169424728Y-99556681D01*
X169659760Y-99399638D01*
X169859638Y-99199760D01*
X170016681Y-98964728D01*
X170124854Y-98703575D01*
X170180001Y-98426336D01*
X170180001Y-98143666D01*
X174930001Y-98143666D01*
X174930001Y-98426336D01*
X174985148Y-98703575D01*
X175093321Y-98964728D01*
X175250364Y-99199760D01*
X175450242Y-99399638D01*
X175685274Y-99556681D01*
X175946427Y-99664854D01*
X176223666Y-99720001D01*
X176506336Y-99720001D01*
X176783575Y-99664854D01*
X177044728Y-99556681D01*
X177279760Y-99399638D01*
X177479638Y-99199760D01*
X177636681Y-98964728D01*
X177744854Y-98703575D01*
X177800001Y-98426336D01*
X177800001Y-98143666D01*
X177744854Y-97866427D01*
X177636681Y-97605274D01*
X177479638Y-97370242D01*
X177279760Y-97170364D01*
X177044728Y-97013321D01*
X176783575Y-96905148D01*
X176506336Y-96850001D01*
X176223666Y-96850001D01*
X175946427Y-96905148D01*
X175685274Y-97013321D01*
X175450242Y-97170364D01*
X175250364Y-97370242D01*
X175093321Y-97605274D01*
X174985148Y-97866427D01*
X174930001Y-98143666D01*
X170180001Y-98143666D01*
X170124854Y-97866427D01*
X170016681Y-97605274D01*
X169859638Y-97370242D01*
X169659760Y-97170364D01*
X169424728Y-97013321D01*
X169163575Y-96905148D01*
X168886336Y-96850001D01*
X168603666Y-96850001D01*
X168326427Y-96905148D01*
X168065274Y-97013321D01*
X167830242Y-97170364D01*
X167640000Y-97360606D01*
X167640000Y-95159396D01*
X167830242Y-95349638D01*
X168065274Y-95506681D01*
X168326427Y-95614854D01*
X168603666Y-95670001D01*
X168886336Y-95670001D01*
X169163575Y-95614854D01*
X169424728Y-95506681D01*
X169659760Y-95349638D01*
X169859638Y-95149760D01*
X170016681Y-94914728D01*
X170124854Y-94653575D01*
X170180001Y-94376336D01*
X170180001Y-94093666D01*
X174930001Y-94093666D01*
X174930001Y-94376336D01*
X174985148Y-94653575D01*
X175093321Y-94914728D01*
X175250364Y-95149760D01*
X175450242Y-95349638D01*
X175685274Y-95506681D01*
X175946427Y-95614854D01*
X176223666Y-95670001D01*
X176506336Y-95670001D01*
X176783575Y-95614854D01*
X177044728Y-95506681D01*
X177279760Y-95349638D01*
X177479638Y-95149760D01*
X177636681Y-94914728D01*
X177744854Y-94653575D01*
X177800001Y-94376336D01*
X177800001Y-94093666D01*
X177744854Y-93816427D01*
X177636681Y-93555274D01*
X177479638Y-93320242D01*
X177279760Y-93120364D01*
X177044728Y-92963321D01*
X176783575Y-92855148D01*
X176506336Y-92800001D01*
X176223666Y-92800001D01*
X175946427Y-92855148D01*
X175685274Y-92963321D01*
X175450242Y-93120364D01*
X175250364Y-93320242D01*
X175093321Y-93555274D01*
X174985148Y-93816427D01*
X174930001Y-94093666D01*
X170180001Y-94093666D01*
X170124854Y-93816427D01*
X170016681Y-93555274D01*
X169859638Y-93320242D01*
X169659760Y-93120364D01*
X169424728Y-92963321D01*
X169163575Y-92855148D01*
X168886336Y-92800001D01*
X168603666Y-92800001D01*
X168326427Y-92855148D01*
X168065274Y-92963321D01*
X167830242Y-93120364D01*
X167640000Y-93310606D01*
X167640000Y-89445423D01*
X167643686Y-89408000D01*
X167640000Y-89370574D01*
X167628974Y-89258622D01*
X167585402Y-89114985D01*
X167552465Y-89053364D01*
X167514645Y-88982607D01*
X167443279Y-88895648D01*
X167419422Y-88866578D01*
X167390352Y-88842721D01*
X158496000Y-79948370D01*
X158496000Y-76266976D01*
X158712505Y-76122312D01*
X158778944Y-76055873D01*
X158784498Y-76074180D01*
X158843463Y-76184494D01*
X158922815Y-76281185D01*
X159019506Y-76360537D01*
X159129820Y-76419502D01*
X159249518Y-76455812D01*
X159374000Y-76468072D01*
X161174000Y-76468072D01*
X161298482Y-76455812D01*
X161418180Y-76419502D01*
X161528494Y-76360537D01*
X161625185Y-76281185D01*
X161704537Y-76184494D01*
X161763502Y-76074180D01*
X161799812Y-75954482D01*
X161812072Y-75830000D01*
X161812072Y-74030000D01*
X161799812Y-73905518D01*
X161763502Y-73785820D01*
X161704537Y-73675506D01*
X161625185Y-73578815D01*
X161528494Y-73499463D01*
X161418180Y-73440498D01*
X161298482Y-73404188D01*
X161174000Y-73391928D01*
X159374000Y-73391928D01*
X159249518Y-73404188D01*
X159129820Y-73440498D01*
X159019506Y-73499463D01*
X158922815Y-73578815D01*
X158843463Y-73675506D01*
X158784498Y-73785820D01*
X158778944Y-73804127D01*
X158712505Y-73737688D01*
X158461095Y-73569701D01*
X158181743Y-73453989D01*
X157885184Y-73395000D01*
X157582816Y-73395000D01*
X157286257Y-73453989D01*
X157006905Y-73569701D01*
X156755495Y-73737688D01*
X156541688Y-73951495D01*
X156373701Y-74202905D01*
X156257989Y-74482257D01*
X156199000Y-74778816D01*
X156199000Y-75081184D01*
X156257989Y-75377743D01*
X156373701Y-75657095D01*
X156541688Y-75908505D01*
X156755495Y-76122312D01*
X156972001Y-76266977D01*
X156972000Y-80226577D01*
X156968314Y-80264000D01*
X156972000Y-80301423D01*
X156972000Y-80301425D01*
X156983026Y-80413377D01*
X157026598Y-80557014D01*
X157026599Y-80557015D01*
X157097355Y-80689392D01*
X157136983Y-80737678D01*
X157192578Y-80805422D01*
X157221654Y-80829284D01*
X166116001Y-89723632D01*
X166116001Y-92333335D01*
X165967328Y-92233995D01*
X165713091Y-92128686D01*
X165443193Y-92075000D01*
X165168009Y-92075000D01*
X164898111Y-92128686D01*
X164643874Y-92233995D01*
X164415066Y-92386880D01*
X164220481Y-92581465D01*
X164067596Y-92810273D01*
X164035601Y-92887515D01*
X164003606Y-92810273D01*
X163850721Y-92581465D01*
X163656136Y-92386880D01*
X163427328Y-92233995D01*
X163173091Y-92128686D01*
X162903193Y-92075000D01*
X162628009Y-92075000D01*
X162358111Y-92128686D01*
X162103874Y-92233995D01*
X161875066Y-92386880D01*
X161680481Y-92581465D01*
X161527596Y-92810273D01*
X161495601Y-92887515D01*
X161463606Y-92810273D01*
X161310721Y-92581465D01*
X161116136Y-92386880D01*
X160887328Y-92233995D01*
X160633091Y-92128686D01*
X160363193Y-92075000D01*
X160088009Y-92075000D01*
X159818111Y-92128686D01*
X159563874Y-92233995D01*
X159335066Y-92386880D01*
X159140481Y-92581465D01*
X158987596Y-92810273D01*
X158955601Y-92887515D01*
X158923606Y-92810273D01*
X158770721Y-92581465D01*
X158576136Y-92386880D01*
X158347328Y-92233995D01*
X158093091Y-92128686D01*
X157823193Y-92075000D01*
X157548009Y-92075000D01*
X157278111Y-92128686D01*
X157023874Y-92233995D01*
X156795066Y-92386880D01*
X156600481Y-92581465D01*
X156447596Y-92810273D01*
X156342287Y-93064510D01*
X156288601Y-93334408D01*
X156288601Y-93609592D01*
X156342287Y-93879490D01*
X156447596Y-94133727D01*
X156600481Y-94362535D01*
X156795066Y-94557120D01*
X156923602Y-94643005D01*
X156923602Y-95418168D01*
X156919915Y-95455601D01*
X156934628Y-95604979D01*
X156978200Y-95748616D01*
X157048956Y-95880993D01*
X157120322Y-95967952D01*
X157144180Y-95997023D01*
X157173250Y-96020880D01*
X157418370Y-96266000D01*
X155739423Y-96266000D01*
X155702000Y-96262314D01*
X155664577Y-96266000D01*
X155664574Y-96266000D01*
X155552622Y-96277026D01*
X155408985Y-96320598D01*
X155347364Y-96353535D01*
X155276607Y-96391355D01*
X155234219Y-96426143D01*
X155160578Y-96486578D01*
X155136716Y-96515654D01*
X153411649Y-98240721D01*
X153382579Y-98264578D01*
X153358722Y-98293648D01*
X153358721Y-98293649D01*
X153287355Y-98380608D01*
X153216599Y-98512985D01*
X153173027Y-98656622D01*
X153158314Y-98806000D01*
X153162001Y-98843433D01*
X153162000Y-100800576D01*
X153158314Y-100838000D01*
X153162000Y-100875423D01*
X153162000Y-100875425D01*
X153173026Y-100987377D01*
X153216598Y-101131014D01*
X153249535Y-101192635D01*
X153287355Y-101263392D01*
X153326983Y-101311678D01*
X153382578Y-101379422D01*
X153411654Y-101403284D01*
X154669278Y-102660908D01*
X154420283Y-102494535D01*
X154077235Y-102352440D01*
X153713057Y-102280001D01*
X153341745Y-102280001D01*
X152977567Y-102352440D01*
X152634519Y-102494535D01*
X152325783Y-102700826D01*
X152063226Y-102963383D01*
X151856935Y-103272119D01*
X151813078Y-103378000D01*
X149265904Y-103378000D01*
X149216002Y-103373085D01*
X149166100Y-103378000D01*
X149016831Y-103392702D01*
X148825315Y-103450798D01*
X148648812Y-103545140D01*
X148494106Y-103672104D01*
X148462295Y-103710866D01*
X137551869Y-114621293D01*
X137513106Y-114653105D01*
X137386142Y-114807811D01*
X137306197Y-114957379D01*
X137291800Y-114984314D01*
X137233703Y-115175831D01*
X137214086Y-115375001D01*
X137219002Y-115424913D01*
X137219001Y-117669472D01*
X137003851Y-117884622D01*
X136985001Y-117912833D01*
X136966151Y-117884622D01*
X136745380Y-117663851D01*
X136485780Y-117490392D01*
X136197328Y-117370912D01*
X135891110Y-117310001D01*
X135578892Y-117310001D01*
X135272674Y-117370912D01*
X134984222Y-117490392D01*
X134746815Y-117649022D01*
X134715538Y-117590507D01*
X134636186Y-117493816D01*
X134539495Y-117414464D01*
X134429181Y-117355499D01*
X134309483Y-117319189D01*
X134185001Y-117306929D01*
X132285001Y-117306929D01*
X132160519Y-117319189D01*
X132040821Y-117355499D01*
X131930507Y-117414464D01*
X131833816Y-117493816D01*
X131754464Y-117590507D01*
X131695499Y-117700821D01*
X131659189Y-117820519D01*
X131646929Y-117945001D01*
X127647700Y-117945001D01*
X127647700Y-105250001D01*
X131804329Y-105250001D01*
X131816589Y-105374483D01*
X131852899Y-105494181D01*
X131911864Y-105604495D01*
X131991216Y-105701186D01*
X132087907Y-105780538D01*
X132198221Y-105839503D01*
X132317919Y-105875813D01*
X132442401Y-105888073D01*
X133241651Y-105885001D01*
X133400401Y-105726251D01*
X133400401Y-104292001D01*
X133654401Y-104292001D01*
X133654401Y-105726251D01*
X133813151Y-105885001D01*
X134612401Y-105888073D01*
X134736883Y-105875813D01*
X134856581Y-105839503D01*
X134966895Y-105780538D01*
X135063586Y-105701186D01*
X135142938Y-105604495D01*
X135201903Y-105494181D01*
X135238213Y-105374483D01*
X135250473Y-105250001D01*
X135247401Y-104450751D01*
X135088651Y-104292001D01*
X133654401Y-104292001D01*
X133400401Y-104292001D01*
X131966151Y-104292001D01*
X131807401Y-104450751D01*
X131804329Y-105250001D01*
X127647700Y-105250001D01*
X127647700Y-103080001D01*
X131804329Y-103080001D01*
X131807401Y-103879251D01*
X131966151Y-104038001D01*
X133400401Y-104038001D01*
X133400401Y-102603751D01*
X133654401Y-102603751D01*
X133654401Y-104038001D01*
X135088651Y-104038001D01*
X135247401Y-103879251D01*
X135250473Y-103080001D01*
X135238213Y-102955519D01*
X135201903Y-102835821D01*
X135142938Y-102725507D01*
X135063586Y-102628816D01*
X134966895Y-102549464D01*
X134856581Y-102490499D01*
X134736883Y-102454189D01*
X134612401Y-102441929D01*
X133813151Y-102445001D01*
X133654401Y-102603751D01*
X133400401Y-102603751D01*
X133241651Y-102445001D01*
X132442401Y-102441929D01*
X132317919Y-102454189D01*
X132198221Y-102490499D01*
X132087907Y-102549464D01*
X131991216Y-102628816D01*
X131911864Y-102725507D01*
X131852899Y-102835821D01*
X131816589Y-102955519D01*
X131804329Y-103080001D01*
X127647700Y-103080001D01*
X127647700Y-74778816D01*
X143499000Y-74778816D01*
X143499000Y-75081184D01*
X143557989Y-75377743D01*
X143673701Y-75657095D01*
X143841688Y-75908505D01*
X144055495Y-76122312D01*
X144306905Y-76290299D01*
X144586257Y-76406011D01*
X144882816Y-76465000D01*
X145185184Y-76465000D01*
X145481743Y-76406011D01*
X145761095Y-76290299D01*
X146012505Y-76122312D01*
X146078944Y-76055873D01*
X146084498Y-76074180D01*
X146143463Y-76184494D01*
X146222815Y-76281185D01*
X146319506Y-76360537D01*
X146429820Y-76419502D01*
X146549518Y-76455812D01*
X146674000Y-76468072D01*
X148474000Y-76468072D01*
X148598482Y-76455812D01*
X148718180Y-76419502D01*
X148828494Y-76360537D01*
X148925185Y-76281185D01*
X149004537Y-76184494D01*
X149063502Y-76074180D01*
X149099812Y-75954482D01*
X149112072Y-75830000D01*
X149112072Y-74030000D01*
X149099812Y-73905518D01*
X149063502Y-73785820D01*
X149004537Y-73675506D01*
X148925185Y-73578815D01*
X148828494Y-73499463D01*
X148718180Y-73440498D01*
X148598482Y-73404188D01*
X148474000Y-73391928D01*
X146674000Y-73391928D01*
X146549518Y-73404188D01*
X146429820Y-73440498D01*
X146319506Y-73499463D01*
X146222815Y-73578815D01*
X146143463Y-73675506D01*
X146084498Y-73785820D01*
X146078944Y-73804127D01*
X146012505Y-73737688D01*
X145761095Y-73569701D01*
X145481743Y-73453989D01*
X145185184Y-73395000D01*
X144882816Y-73395000D01*
X144586257Y-73453989D01*
X144306905Y-73569701D01*
X144055495Y-73737688D01*
X143841688Y-73951495D01*
X143673701Y-74202905D01*
X143557989Y-74482257D01*
X143499000Y-74778816D01*
X127647700Y-74778816D01*
X127647700Y-45801595D01*
X146294012Y-45801595D01*
X146294422Y-45860299D01*
X146294012Y-45919003D01*
X146294894Y-45928003D01*
X146333757Y-46297757D01*
X146345563Y-46355274D01*
X146356561Y-46412926D01*
X146359175Y-46421584D01*
X146469117Y-46776747D01*
X146491874Y-46830883D01*
X146513857Y-46885293D01*
X146518102Y-46893278D01*
X146694934Y-47220323D01*
X146727766Y-47268999D01*
X146759906Y-47318114D01*
X146765622Y-47325122D01*
X147002611Y-47611592D01*
X147044267Y-47652958D01*
X147085338Y-47694899D01*
X147092306Y-47700663D01*
X147380423Y-47935646D01*
X147429336Y-47968144D01*
X147477758Y-48001299D01*
X147485708Y-48005597D01*
X147485712Y-48005600D01*
X147485716Y-48005602D01*
X147813985Y-48180145D01*
X147868261Y-48202516D01*
X147922215Y-48225642D01*
X147930852Y-48228315D01*
X147930856Y-48228317D01*
X147930860Y-48228318D01*
X148286777Y-48335775D01*
X148344338Y-48347173D01*
X148401787Y-48359384D01*
X148410778Y-48360329D01*
X148410780Y-48360329D01*
X148780796Y-48396609D01*
X148780809Y-48396609D01*
X148812191Y-48399700D01*
X159035809Y-48399700D01*
X159069080Y-48396423D01*
X159093803Y-48396423D01*
X159102796Y-48395478D01*
X159472270Y-48354035D01*
X159529710Y-48341826D01*
X159587278Y-48330427D01*
X159595917Y-48327753D01*
X159950304Y-48215335D01*
X160004293Y-48192195D01*
X160058536Y-48169838D01*
X160066491Y-48165537D01*
X160392294Y-47986425D01*
X160440740Y-47953253D01*
X160489627Y-47920773D01*
X160496590Y-47915012D01*
X160496596Y-47915008D01*
X160496601Y-47915003D01*
X160781403Y-47676026D01*
X160822470Y-47634090D01*
X160864132Y-47592719D01*
X160869847Y-47585711D01*
X161102813Y-47295960D01*
X161134962Y-47246832D01*
X161167785Y-47198170D01*
X161172030Y-47190185D01*
X161344279Y-46860703D01*
X161366282Y-46806243D01*
X161389019Y-46752156D01*
X161391633Y-46743498D01*
X161496605Y-46386833D01*
X161507611Y-46329137D01*
X161519409Y-46271665D01*
X161520290Y-46262672D01*
X161520292Y-46262663D01*
X161520292Y-46262655D01*
X161553988Y-45892405D01*
X161553578Y-45833701D01*
X161553988Y-45774998D01*
X161553106Y-45765998D01*
X161514243Y-45396243D01*
X161502430Y-45338696D01*
X161491438Y-45281073D01*
X161488825Y-45272416D01*
X161378883Y-44917252D01*
X161356114Y-44863088D01*
X161334143Y-44808706D01*
X161329898Y-44800722D01*
X161153066Y-44473677D01*
X161120234Y-44425001D01*
X161088094Y-44375886D01*
X161082378Y-44368878D01*
X160845389Y-44082408D01*
X160803733Y-44041042D01*
X160762662Y-43999101D01*
X160755694Y-43993337D01*
X160467577Y-43758354D01*
X160418664Y-43725856D01*
X160370242Y-43692701D01*
X160362292Y-43688403D01*
X160362288Y-43688400D01*
X160362284Y-43688398D01*
X160034015Y-43513855D01*
X159979753Y-43491490D01*
X159925784Y-43468358D01*
X159917145Y-43465684D01*
X159561223Y-43358224D01*
X159503626Y-43346819D01*
X159446213Y-43334616D01*
X159437223Y-43333671D01*
X159437219Y-43333671D01*
X159067204Y-43297391D01*
X159067191Y-43297391D01*
X159035809Y-43294300D01*
X148812191Y-43294300D01*
X148778920Y-43297577D01*
X148754197Y-43297577D01*
X148745204Y-43298522D01*
X148375730Y-43339965D01*
X148318265Y-43352180D01*
X148260722Y-43363573D01*
X148252083Y-43366247D01*
X147897696Y-43478665D01*
X147843720Y-43501799D01*
X147789463Y-43524162D01*
X147781509Y-43528463D01*
X147455706Y-43707575D01*
X147407277Y-43740735D01*
X147358372Y-43773227D01*
X147351410Y-43778988D01*
X147351404Y-43778992D01*
X147351399Y-43778997D01*
X147066597Y-44017974D01*
X147025511Y-44059929D01*
X146983868Y-44101282D01*
X146978158Y-44108284D01*
X146978153Y-44108289D01*
X146978149Y-44108294D01*
X146745187Y-44398040D01*
X146713042Y-44447163D01*
X146680215Y-44495831D01*
X146675973Y-44503811D01*
X146675970Y-44503815D01*
X146675970Y-44503816D01*
X146503721Y-44833297D01*
X146481722Y-44887745D01*
X146458981Y-44941844D01*
X146456367Y-44950501D01*
X146351395Y-45307167D01*
X146340389Y-45364863D01*
X146328591Y-45422335D01*
X146327710Y-45431328D01*
X146327708Y-45431337D01*
X146327708Y-45431345D01*
X146294012Y-45801595D01*
X127647700Y-45801595D01*
X127647700Y-42062000D01*
X180200300Y-42062000D01*
X180200301Y-126352300D01*
G37*
%TD.AperFunction*%
%TD*%
M02*
