%TF.GenerationSoftware,KiCad,Pcbnew,5.1.10*%
%TF.CreationDate,2021-10-31T07:52:44-04:00*%
%TF.ProjectId,555_badge,3535355f-6261-4646-9765-2e6b69636164,v01*%
%TF.SameCoordinates,Original*%
%TF.FileFunction,Copper,L1,Top*%
%TF.FilePolarity,Positive*%
%FSLAX46Y46*%
G04 Gerber Fmt 4.6, Leading zero omitted, Abs format (unit mm)*
G04 Created by KiCad (PCBNEW 5.1.10) date 2021-10-31 07:52:44*
%MOMM*%
%LPD*%
G01*
G04 APERTURE LIST*
%TA.AperFunction,ComponentPad*%
%ADD10R,1.500000X1.500000*%
%TD*%
%TA.AperFunction,ComponentPad*%
%ADD11C,1.500000*%
%TD*%
%TA.AperFunction,ComponentPad*%
%ADD12R,2.170000X2.170000*%
%TD*%
%TA.AperFunction,ComponentPad*%
%ADD13C,2.500000*%
%TD*%
%TA.AperFunction,ComponentPad*%
%ADD14R,1.600000X1.600000*%
%TD*%
%TA.AperFunction,ComponentPad*%
%ADD15C,1.600000*%
%TD*%
%TA.AperFunction,ComponentPad*%
%ADD16R,1.800000X1.800000*%
%TD*%
%TA.AperFunction,ComponentPad*%
%ADD17C,1.800000*%
%TD*%
%TA.AperFunction,ComponentPad*%
%ADD18O,1.600000X1.600000*%
%TD*%
%TA.AperFunction,ComponentPad*%
%ADD19R,1.900000X1.900000*%
%TD*%
%TA.AperFunction,ComponentPad*%
%ADD20C,1.900000*%
%TD*%
%TA.AperFunction,ComponentPad*%
%ADD21C,1.524000*%
%TD*%
%TA.AperFunction,Conductor*%
%ADD22C,0.762000*%
%TD*%
%TA.AperFunction,Conductor*%
%ADD23C,0.254000*%
%TD*%
%TA.AperFunction,Conductor*%
%ADD24C,0.100000*%
%TD*%
G04 APERTURE END LIST*
D10*
%TO.P,Q1,1*%
%TO.N,GND*%
X174244000Y-118110000D03*
D11*
%TO.P,Q1,3*%
%TO.N,Net-(D1-Pad1)*%
X174244000Y-123310000D03*
%TO.P,Q1,2*%
%TO.N,Net-(Q1-Pad2)*%
X174244000Y-120710000D03*
%TD*%
D12*
%TO.P,BAT1,Neg*%
%TO.N,GND*%
X133527401Y-104165001D03*
D13*
%TO.P,BAT1,Pos*%
%TO.N,Net-(BAT1-PadPos)*%
X153527401Y-104165001D03*
%TD*%
D14*
%TO.P,C1,1*%
%TO.N,Net-(C1-Pad1)*%
X169140242Y-111185001D03*
D15*
%TO.P,C1,2*%
%TO.N,GND*%
X171640242Y-111185001D03*
%TD*%
D14*
%TO.P,C2,1*%
%TO.N,Net-(C2-Pad1)*%
X166094776Y-118385001D03*
D15*
%TO.P,C2,2*%
%TO.N,GND*%
X168094776Y-118385001D03*
%TD*%
D16*
%TO.P,D1,1*%
%TO.N,Net-(D1-Pad1)*%
X147574000Y-74930000D03*
D17*
%TO.P,D1,2*%
%TO.N,Net-(D1-Pad2)*%
X145034000Y-74930000D03*
%TD*%
%TO.P,D2,2*%
%TO.N,Net-(D2-Pad2)*%
X157734000Y-74930000D03*
D16*
%TO.P,D2,1*%
%TO.N,Net-(D1-Pad1)*%
X160274000Y-74930000D03*
%TD*%
D18*
%TO.P,R1,2*%
%TO.N,Net-(D1-Pad2)*%
X151385001Y-118145001D03*
D15*
%TO.P,R1,1*%
%TO.N,VCC*%
X143765001Y-118145001D03*
%TD*%
%TO.P,R2,1*%
%TO.N,VCC*%
X157135001Y-105235001D03*
D18*
%TO.P,R2,2*%
%TO.N,Net-(D2-Pad2)*%
X164755001Y-105235001D03*
%TD*%
D15*
%TO.P,R3,1*%
%TO.N,Net-(C1-Pad1)*%
X168745001Y-94235001D03*
D18*
%TO.P,R3,2*%
%TO.N,Net-(Q1-Pad2)*%
X176365001Y-94235001D03*
%TD*%
%TO.P,R4,2*%
%TO.N,GND*%
X162155001Y-118145001D03*
D15*
%TO.P,R4,1*%
%TO.N,Net-(C1-Pad1)*%
X154535001Y-118145001D03*
%TD*%
%TO.P,R5,1*%
%TO.N,Net-(R5-Pad1)*%
X168745001Y-98285001D03*
D18*
%TO.P,R5,2*%
%TO.N,Net-(C1-Pad1)*%
X176365001Y-98285001D03*
%TD*%
%TO.P,R6,2*%
%TO.N,Net-(R6-Pad2)*%
X164755001Y-109285001D03*
D15*
%TO.P,R6,1*%
%TO.N,VCC*%
X157135001Y-109285001D03*
%TD*%
%TO.P,R7,1*%
%TO.N,Net-(R6-Pad2)*%
X167905001Y-105235001D03*
D18*
%TO.P,R7,2*%
%TO.N,Net-(C2-Pad1)*%
X175525001Y-105235001D03*
%TD*%
D19*
%TO.P,S1,1*%
%TO.N,Net-(S1-Pad1)*%
X133235001Y-118895001D03*
D20*
%TO.P,S1,2*%
%TO.N,VCC*%
X135735001Y-118895001D03*
%TO.P,S1,3*%
%TO.N,Net-(BAT1-PadPos)*%
X138235001Y-118895001D03*
%TD*%
D21*
%TO.P,U1,1*%
%TO.N,GND*%
X157685601Y-101092000D03*
%TO.P,U1,2*%
%TO.N,Net-(C2-Pad1)*%
X160225601Y-101092000D03*
%TO.P,U1,3*%
%TO.N,Net-(R5-Pad1)*%
X162765601Y-101092000D03*
%TO.P,U1,4*%
%TO.N,VCC*%
X165305601Y-101092000D03*
%TO.P,U1,5*%
%TO.N,Net-(U1-Pad5)*%
X165305601Y-93472000D03*
%TO.P,U1,6*%
%TO.N,Net-(C2-Pad1)*%
X162765601Y-93472000D03*
%TO.P,U1,7*%
%TO.N,Net-(R6-Pad2)*%
X160225601Y-93472000D03*
%TO.P,U1,8*%
%TO.N,VCC*%
X157685601Y-93472000D03*
%TD*%
D22*
%TO.N,GND*%
X133527401Y-104165001D02*
X136677001Y-104165001D01*
X136677001Y-104165001D02*
X145132002Y-112620002D01*
X161896002Y-112620002D02*
X163322000Y-114046000D01*
X171640242Y-113347758D02*
X171640242Y-111185001D01*
X170942000Y-114046000D02*
X171640242Y-113347758D01*
D23*
X159667998Y-104803998D02*
X159667998Y-112620002D01*
X157685601Y-102821601D02*
X159667998Y-104803998D01*
X157685601Y-101092000D02*
X157685601Y-102821601D01*
D22*
X145132002Y-112620002D02*
X159667998Y-112620002D01*
D23*
X168094776Y-114246776D02*
X167894000Y-114046000D01*
X168094776Y-118385001D02*
X168094776Y-114246776D01*
D22*
X164846000Y-114046000D02*
X167894000Y-114046000D01*
X163322000Y-114046000D02*
X164846000Y-114046000D01*
D23*
X174244000Y-118110000D02*
X172212000Y-118110000D01*
X172212000Y-118110000D02*
X170180000Y-116078000D01*
D22*
X170180000Y-114046000D02*
X170942000Y-114046000D01*
D23*
X170180000Y-116078000D02*
X170180000Y-114046000D01*
D22*
X167894000Y-114046000D02*
X170180000Y-114046000D01*
D23*
X162155001Y-118145001D02*
X162155001Y-116689001D01*
X160372002Y-114906002D02*
X160372002Y-112620002D01*
X162155001Y-116689001D02*
X160372002Y-114906002D01*
D22*
X160372002Y-112620002D02*
X161896002Y-112620002D01*
X159667998Y-112620002D02*
X160372002Y-112620002D01*
D23*
%TO.N,Net-(C1-Pad1)*%
X176365001Y-98285001D02*
X174993001Y-98285001D01*
X170943001Y-94235001D02*
X168745001Y-94235001D01*
X174993001Y-98285001D02*
X170943001Y-94235001D01*
X169140242Y-111185001D02*
X169140242Y-109243758D01*
X169140242Y-109243758D02*
X172720000Y-105664000D01*
X172720000Y-100558002D02*
X174993001Y-98285001D01*
X172720000Y-105664000D02*
X172720000Y-100558002D01*
%TO.N,Net-(C2-Pad1)*%
X162765601Y-93472000D02*
X160782000Y-91488399D01*
X160782000Y-91488399D02*
X156004399Y-91488399D01*
X156004399Y-91488399D02*
X154528798Y-92964000D01*
X154528798Y-92964000D02*
X154528798Y-95346798D01*
X154528798Y-95346798D02*
X158242000Y-99060000D01*
X158242000Y-99060000D02*
X160020000Y-99060000D01*
X160225601Y-99265601D02*
X160225601Y-101092000D01*
X160020000Y-99060000D02*
X160225601Y-99265601D01*
%TO.N,Net-(D1-Pad1)*%
X147574000Y-74930000D02*
X147574000Y-72898000D01*
X147574000Y-72898000D02*
X148336000Y-72136000D01*
X148336000Y-72136000D02*
X159512000Y-72136000D01*
X160274000Y-72898000D02*
X160274000Y-74930000D01*
X159512000Y-72136000D02*
X160274000Y-72898000D01*
X179578000Y-92456000D02*
X162052000Y-74930000D01*
X162052000Y-74930000D02*
X160274000Y-74930000D01*
X179578000Y-120142000D02*
X179578000Y-92456000D01*
X176410000Y-123310000D02*
X179578000Y-120142000D01*
X174244000Y-123310000D02*
X176410000Y-123310000D01*
%TO.N,Net-(D1-Pad2)*%
X151385001Y-118145001D02*
X151385001Y-120140999D01*
X151385001Y-120140999D02*
X147320000Y-124206000D01*
X147320000Y-124206000D02*
X132080000Y-124206000D01*
X132080000Y-124206000D02*
X130048000Y-122174000D01*
X130048000Y-122174000D02*
X130048000Y-86106000D01*
X141224000Y-74930000D02*
X145034000Y-74930000D01*
X130048000Y-86106000D02*
X141224000Y-74930000D01*
%TO.N,Net-(Q1-Pad2)*%
X174244000Y-120710000D02*
X175962000Y-120710000D01*
X175962000Y-120710000D02*
X178308000Y-118364000D01*
X178308000Y-96178000D02*
X176365001Y-94235001D01*
X178308000Y-118364000D02*
X178308000Y-96178000D01*
%TO.N,VCC*%
X157135001Y-109285001D02*
X157135001Y-105235001D01*
D22*
X135735001Y-118895001D02*
X135735001Y-121511001D01*
X135735001Y-121511001D02*
X135890000Y-121666000D01*
X135890000Y-121666000D02*
X135890000Y-121920000D01*
X135890000Y-121920000D02*
X136906000Y-122936000D01*
X136906000Y-122936000D02*
X141986000Y-122936000D01*
X143765001Y-121156999D02*
X143765001Y-118145001D01*
X141986000Y-122936000D02*
X143765001Y-121156999D01*
D23*
%TO.N,Net-(R5-Pad1)*%
X168745001Y-98285001D02*
X163334999Y-98285001D01*
X162765601Y-98854399D02*
X162765601Y-101092000D01*
X163334999Y-98285001D02*
X162765601Y-98854399D01*
%TO.N,Net-(R6-Pad2)*%
X164755001Y-109285001D02*
X164755001Y-107786999D01*
X164755001Y-107786999D02*
X165608000Y-106934000D01*
X165608000Y-106934000D02*
X167640000Y-106934000D01*
X167905001Y-106668999D02*
X167905001Y-105235001D01*
X167640000Y-106934000D02*
X167905001Y-106668999D01*
X167905001Y-105235001D02*
X167905001Y-103112999D01*
X167905001Y-103112999D02*
X171196000Y-99822000D01*
X171196000Y-99822000D02*
X171196000Y-97282000D01*
X171196000Y-97282000D02*
X170180000Y-96266000D01*
X170180000Y-96266000D02*
X161544000Y-96266000D01*
X160225601Y-94947601D02*
X160225601Y-93472000D01*
X161544000Y-96266000D02*
X160225601Y-94947601D01*
%TD*%
%TO.N,GND*%
X180200301Y-92013128D02*
X180143279Y-91943648D01*
X180119422Y-91914578D01*
X180090352Y-91890721D01*
X162617284Y-74417654D01*
X162593422Y-74388578D01*
X162477392Y-74293355D01*
X162345015Y-74222598D01*
X162201378Y-74179026D01*
X162089426Y-74168000D01*
X162089423Y-74168000D01*
X162052000Y-74164314D01*
X162014577Y-74168000D01*
X161812072Y-74168000D01*
X161812072Y-74030000D01*
X161799812Y-73905518D01*
X161763502Y-73785820D01*
X161704537Y-73675506D01*
X161625185Y-73578815D01*
X161528494Y-73499463D01*
X161418180Y-73440498D01*
X161298482Y-73404188D01*
X161174000Y-73391928D01*
X161036000Y-73391928D01*
X161036000Y-72935423D01*
X161039686Y-72898000D01*
X161036000Y-72860574D01*
X161024974Y-72748622D01*
X160981402Y-72604985D01*
X160910646Y-72472609D01*
X160910645Y-72472607D01*
X160839279Y-72385648D01*
X160815422Y-72356578D01*
X160786353Y-72332722D01*
X160077284Y-71623653D01*
X160053422Y-71594578D01*
X159937392Y-71499355D01*
X159805015Y-71428598D01*
X159661378Y-71385026D01*
X159549426Y-71374000D01*
X159549423Y-71374000D01*
X159512000Y-71370314D01*
X159474577Y-71374000D01*
X148373423Y-71374000D01*
X148336000Y-71370314D01*
X148298577Y-71374000D01*
X148298574Y-71374000D01*
X148186622Y-71385026D01*
X148042985Y-71428598D01*
X147981364Y-71461535D01*
X147910607Y-71499355D01*
X147827904Y-71567228D01*
X147794578Y-71594578D01*
X147770720Y-71623649D01*
X147061649Y-72332721D01*
X147032579Y-72356578D01*
X147008722Y-72385648D01*
X147008721Y-72385649D01*
X146937355Y-72472608D01*
X146866599Y-72604985D01*
X146823027Y-72748622D01*
X146808314Y-72898000D01*
X146812001Y-72935433D01*
X146812001Y-73391928D01*
X146674000Y-73391928D01*
X146549518Y-73404188D01*
X146429820Y-73440498D01*
X146319506Y-73499463D01*
X146222815Y-73578815D01*
X146143463Y-73675506D01*
X146084498Y-73785820D01*
X146078944Y-73804127D01*
X146012505Y-73737688D01*
X145761095Y-73569701D01*
X145481743Y-73453989D01*
X145185184Y-73395000D01*
X144882816Y-73395000D01*
X144586257Y-73453989D01*
X144306905Y-73569701D01*
X144055495Y-73737688D01*
X143841688Y-73951495D01*
X143697024Y-74168000D01*
X141261423Y-74168000D01*
X141224000Y-74164314D01*
X141186577Y-74168000D01*
X141186574Y-74168000D01*
X141074622Y-74179026D01*
X140930985Y-74222598D01*
X140869364Y-74255535D01*
X140798607Y-74293355D01*
X140715904Y-74361228D01*
X140682578Y-74388578D01*
X140658721Y-74417648D01*
X129535649Y-85540721D01*
X129506579Y-85564578D01*
X129482722Y-85593648D01*
X129482721Y-85593649D01*
X129411355Y-85680608D01*
X129340599Y-85812985D01*
X129297027Y-85956622D01*
X129282314Y-86106000D01*
X129286001Y-86143433D01*
X129286000Y-122136577D01*
X129282314Y-122174000D01*
X129286000Y-122211423D01*
X129286000Y-122211425D01*
X129297026Y-122323377D01*
X129340598Y-122467014D01*
X129364803Y-122512299D01*
X129411355Y-122599392D01*
X129450983Y-122647678D01*
X129506578Y-122715422D01*
X129535654Y-122739284D01*
X131514721Y-124718352D01*
X131538578Y-124747422D01*
X131567648Y-124771279D01*
X131654607Y-124842645D01*
X131725364Y-124880465D01*
X131786985Y-124913402D01*
X131930622Y-124956974D01*
X132042574Y-124968000D01*
X132042577Y-124968000D01*
X132080000Y-124971686D01*
X132117423Y-124968000D01*
X147282577Y-124968000D01*
X147320000Y-124971686D01*
X147357423Y-124968000D01*
X147357426Y-124968000D01*
X147469378Y-124956974D01*
X147613015Y-124913402D01*
X147745392Y-124842645D01*
X147861422Y-124747422D01*
X147885284Y-124718346D01*
X151897347Y-120706283D01*
X151926423Y-120682421D01*
X152020825Y-120567392D01*
X152021646Y-120566392D01*
X152067822Y-120480001D01*
X152092403Y-120434014D01*
X152135975Y-120290377D01*
X152147001Y-120178425D01*
X152147001Y-120178422D01*
X152150687Y-120140999D01*
X152147001Y-120103576D01*
X152147001Y-119361708D01*
X152299760Y-119259638D01*
X152499638Y-119059760D01*
X152656681Y-118824728D01*
X152764854Y-118563575D01*
X152820001Y-118286336D01*
X152820001Y-118003666D01*
X153100001Y-118003666D01*
X153100001Y-118286336D01*
X153155148Y-118563575D01*
X153263321Y-118824728D01*
X153420364Y-119059760D01*
X153620242Y-119259638D01*
X153855274Y-119416681D01*
X154116427Y-119524854D01*
X154393666Y-119580001D01*
X154676336Y-119580001D01*
X154953575Y-119524854D01*
X155214728Y-119416681D01*
X155449760Y-119259638D01*
X155649638Y-119059760D01*
X155806681Y-118824728D01*
X155914854Y-118563575D01*
X155928685Y-118494040D01*
X160763097Y-118494040D01*
X160803755Y-118628088D01*
X160923964Y-118882421D01*
X161091482Y-119108415D01*
X161299870Y-119297386D01*
X161541120Y-119442071D01*
X161805961Y-119536910D01*
X162028001Y-119415625D01*
X162028001Y-118272001D01*
X162282001Y-118272001D01*
X162282001Y-119415625D01*
X162504041Y-119536910D01*
X162768882Y-119442071D01*
X163010132Y-119297386D01*
X163218520Y-119108415D01*
X163386038Y-118882421D01*
X163506247Y-118628088D01*
X163546905Y-118494040D01*
X163424916Y-118272001D01*
X162282001Y-118272001D01*
X162028001Y-118272001D01*
X160885086Y-118272001D01*
X160763097Y-118494040D01*
X155928685Y-118494040D01*
X155970001Y-118286336D01*
X155970001Y-118003666D01*
X155928686Y-117795962D01*
X160763097Y-117795962D01*
X160885086Y-118018001D01*
X162028001Y-118018001D01*
X162028001Y-116874377D01*
X162282001Y-116874377D01*
X162282001Y-118018001D01*
X163424916Y-118018001D01*
X163546905Y-117795962D01*
X163506247Y-117661914D01*
X163469895Y-117585001D01*
X164656704Y-117585001D01*
X164656704Y-119185001D01*
X164668964Y-119309483D01*
X164705274Y-119429181D01*
X164764239Y-119539495D01*
X164843591Y-119636186D01*
X164940282Y-119715538D01*
X165050596Y-119774503D01*
X165170294Y-119810813D01*
X165294776Y-119823073D01*
X166894776Y-119823073D01*
X167019258Y-119810813D01*
X167138956Y-119774503D01*
X167249270Y-119715538D01*
X167345961Y-119636186D01*
X167356583Y-119623243D01*
X167608772Y-119742572D01*
X167882960Y-119811301D01*
X168165288Y-119825218D01*
X168444906Y-119783788D01*
X168711068Y-119688604D01*
X168836290Y-119621672D01*
X168907873Y-119377703D01*
X168094776Y-118564606D01*
X168080634Y-118578749D01*
X167901029Y-118399144D01*
X167915171Y-118385001D01*
X168274381Y-118385001D01*
X169087478Y-119198098D01*
X169331447Y-119126515D01*
X169452347Y-118871005D01*
X169521076Y-118596817D01*
X169534993Y-118314489D01*
X169493563Y-118034871D01*
X169398379Y-117768709D01*
X169331447Y-117643487D01*
X169087478Y-117571904D01*
X168274381Y-118385001D01*
X167915171Y-118385001D01*
X167901029Y-118370859D01*
X168080634Y-118191254D01*
X168094776Y-118205396D01*
X168907873Y-117392299D01*
X168898397Y-117360000D01*
X172855928Y-117360000D01*
X172859000Y-117824250D01*
X173017750Y-117983000D01*
X174117000Y-117983000D01*
X174117000Y-116883750D01*
X174371000Y-116883750D01*
X174371000Y-117983000D01*
X175470250Y-117983000D01*
X175629000Y-117824250D01*
X175632072Y-117360000D01*
X175619812Y-117235518D01*
X175583502Y-117115820D01*
X175524537Y-117005506D01*
X175445185Y-116908815D01*
X175348494Y-116829463D01*
X175238180Y-116770498D01*
X175118482Y-116734188D01*
X174994000Y-116721928D01*
X174529750Y-116725000D01*
X174371000Y-116883750D01*
X174117000Y-116883750D01*
X173958250Y-116725000D01*
X173494000Y-116721928D01*
X173369518Y-116734188D01*
X173249820Y-116770498D01*
X173139506Y-116829463D01*
X173042815Y-116908815D01*
X172963463Y-117005506D01*
X172904498Y-117115820D01*
X172868188Y-117235518D01*
X172855928Y-117360000D01*
X168898397Y-117360000D01*
X168836290Y-117148330D01*
X168580780Y-117027430D01*
X168306592Y-116958701D01*
X168024264Y-116944784D01*
X167744646Y-116986214D01*
X167478484Y-117081398D01*
X167356467Y-117146617D01*
X167345961Y-117133816D01*
X167249270Y-117054464D01*
X167138956Y-116995499D01*
X167019258Y-116959189D01*
X166894776Y-116946929D01*
X165294776Y-116946929D01*
X165170294Y-116959189D01*
X165050596Y-116995499D01*
X164940282Y-117054464D01*
X164843591Y-117133816D01*
X164764239Y-117230507D01*
X164705274Y-117340821D01*
X164668964Y-117460519D01*
X164656704Y-117585001D01*
X163469895Y-117585001D01*
X163386038Y-117407581D01*
X163218520Y-117181587D01*
X163010132Y-116992616D01*
X162768882Y-116847931D01*
X162504041Y-116753092D01*
X162282001Y-116874377D01*
X162028001Y-116874377D01*
X161805961Y-116753092D01*
X161541120Y-116847931D01*
X161299870Y-116992616D01*
X161091482Y-117181587D01*
X160923964Y-117407581D01*
X160803755Y-117661914D01*
X160763097Y-117795962D01*
X155928686Y-117795962D01*
X155914854Y-117726427D01*
X155806681Y-117465274D01*
X155649638Y-117230242D01*
X155449760Y-117030364D01*
X155214728Y-116873321D01*
X154953575Y-116765148D01*
X154676336Y-116710001D01*
X154393666Y-116710001D01*
X154116427Y-116765148D01*
X153855274Y-116873321D01*
X153620242Y-117030364D01*
X153420364Y-117230242D01*
X153263321Y-117465274D01*
X153155148Y-117726427D01*
X153100001Y-118003666D01*
X152820001Y-118003666D01*
X152764854Y-117726427D01*
X152656681Y-117465274D01*
X152499638Y-117230242D01*
X152299760Y-117030364D01*
X152064728Y-116873321D01*
X151803575Y-116765148D01*
X151526336Y-116710001D01*
X151243666Y-116710001D01*
X150966427Y-116765148D01*
X150705274Y-116873321D01*
X150470242Y-117030364D01*
X150270364Y-117230242D01*
X150113321Y-117465274D01*
X150005148Y-117726427D01*
X149950001Y-118003666D01*
X149950001Y-118286336D01*
X150005148Y-118563575D01*
X150113321Y-118824728D01*
X150270364Y-119059760D01*
X150470242Y-119259638D01*
X150623002Y-119361708D01*
X150623002Y-119825368D01*
X147004370Y-123444000D01*
X142914840Y-123444000D01*
X144448134Y-121910707D01*
X144486897Y-121878895D01*
X144613861Y-121724189D01*
X144708203Y-121547686D01*
X144766299Y-121356170D01*
X144781001Y-121206901D01*
X144781001Y-121206894D01*
X144785915Y-121157000D01*
X144781001Y-121107106D01*
X144781001Y-119158397D01*
X144879638Y-119059760D01*
X145036681Y-118824728D01*
X145144854Y-118563575D01*
X145200001Y-118286336D01*
X145200001Y-118003666D01*
X145144854Y-117726427D01*
X145036681Y-117465274D01*
X144879638Y-117230242D01*
X144679760Y-117030364D01*
X144444728Y-116873321D01*
X144183575Y-116765148D01*
X143906336Y-116710001D01*
X143623666Y-116710001D01*
X143346427Y-116765148D01*
X143085274Y-116873321D01*
X142850242Y-117030364D01*
X142650364Y-117230242D01*
X142493321Y-117465274D01*
X142385148Y-117726427D01*
X142330001Y-118003666D01*
X142330001Y-118286336D01*
X142385148Y-118563575D01*
X142493321Y-118824728D01*
X142650364Y-119059760D01*
X142749002Y-119158398D01*
X142749001Y-120736158D01*
X141565160Y-121920000D01*
X137326841Y-121920000D01*
X136893224Y-121486384D01*
X136891298Y-121466830D01*
X136889522Y-121460974D01*
X136833202Y-121275313D01*
X136751001Y-121121524D01*
X136751001Y-120120530D01*
X136966151Y-119905380D01*
X136985001Y-119877169D01*
X137003851Y-119905380D01*
X137224622Y-120126151D01*
X137484222Y-120299610D01*
X137772674Y-120419090D01*
X138078892Y-120480001D01*
X138391110Y-120480001D01*
X138697328Y-120419090D01*
X138985780Y-120299610D01*
X139245380Y-120126151D01*
X139466151Y-119905380D01*
X139639610Y-119645780D01*
X139759090Y-119357328D01*
X139820001Y-119051110D01*
X139820001Y-118738892D01*
X139759090Y-118432674D01*
X139639610Y-118144222D01*
X139466151Y-117884622D01*
X139245380Y-117663851D01*
X138985780Y-117490392D01*
X138697328Y-117370912D01*
X138391110Y-117310001D01*
X138078892Y-117310001D01*
X137772674Y-117370912D01*
X137484222Y-117490392D01*
X137224622Y-117663851D01*
X137003851Y-117884622D01*
X136985001Y-117912833D01*
X136966151Y-117884622D01*
X136745380Y-117663851D01*
X136485780Y-117490392D01*
X136197328Y-117370912D01*
X135891110Y-117310001D01*
X135578892Y-117310001D01*
X135272674Y-117370912D01*
X134984222Y-117490392D01*
X134746815Y-117649022D01*
X134715538Y-117590507D01*
X134636186Y-117493816D01*
X134539495Y-117414464D01*
X134429181Y-117355499D01*
X134309483Y-117319189D01*
X134185001Y-117306929D01*
X132285001Y-117306929D01*
X132160519Y-117319189D01*
X132040821Y-117355499D01*
X131930507Y-117414464D01*
X131833816Y-117493816D01*
X131754464Y-117590507D01*
X131695499Y-117700821D01*
X131659189Y-117820519D01*
X131646929Y-117945001D01*
X131646929Y-119845001D01*
X131659189Y-119969483D01*
X131695499Y-120089181D01*
X131754464Y-120199495D01*
X131833816Y-120296186D01*
X131930507Y-120375538D01*
X132040821Y-120434503D01*
X132160519Y-120470813D01*
X132285001Y-120483073D01*
X134185001Y-120483073D01*
X134309483Y-120470813D01*
X134429181Y-120434503D01*
X134539495Y-120375538D01*
X134636186Y-120296186D01*
X134715538Y-120199495D01*
X134719001Y-120193015D01*
X134719002Y-121461090D01*
X134714086Y-121511001D01*
X134733703Y-121710171D01*
X134780722Y-121865170D01*
X134791800Y-121901688D01*
X134884332Y-122074805D01*
X134888702Y-122119171D01*
X134946798Y-122310687D01*
X135041140Y-122487190D01*
X135168105Y-122641896D01*
X135206868Y-122673708D01*
X135977159Y-123444000D01*
X132395631Y-123444000D01*
X130810000Y-121858370D01*
X130810000Y-105250001D01*
X131804329Y-105250001D01*
X131816589Y-105374483D01*
X131852899Y-105494181D01*
X131911864Y-105604495D01*
X131991216Y-105701186D01*
X132087907Y-105780538D01*
X132198221Y-105839503D01*
X132317919Y-105875813D01*
X132442401Y-105888073D01*
X133241651Y-105885001D01*
X133400401Y-105726251D01*
X133400401Y-104292001D01*
X133654401Y-104292001D01*
X133654401Y-105726251D01*
X133813151Y-105885001D01*
X134612401Y-105888073D01*
X134736883Y-105875813D01*
X134856581Y-105839503D01*
X134966895Y-105780538D01*
X135063586Y-105701186D01*
X135142938Y-105604495D01*
X135201903Y-105494181D01*
X135238213Y-105374483D01*
X135250473Y-105250001D01*
X135247401Y-104450751D01*
X135088651Y-104292001D01*
X133654401Y-104292001D01*
X133400401Y-104292001D01*
X131966151Y-104292001D01*
X131807401Y-104450751D01*
X131804329Y-105250001D01*
X130810000Y-105250001D01*
X130810000Y-103080001D01*
X131804329Y-103080001D01*
X131807401Y-103879251D01*
X131966151Y-104038001D01*
X133400401Y-104038001D01*
X133400401Y-102603751D01*
X133654401Y-102603751D01*
X133654401Y-104038001D01*
X135088651Y-104038001D01*
X135147307Y-103979345D01*
X151642401Y-103979345D01*
X151642401Y-104350657D01*
X151714840Y-104714835D01*
X151856935Y-105057883D01*
X152063226Y-105366619D01*
X152325783Y-105629176D01*
X152634519Y-105835467D01*
X152977567Y-105977562D01*
X153341745Y-106050001D01*
X153713057Y-106050001D01*
X154077235Y-105977562D01*
X154420283Y-105835467D01*
X154729019Y-105629176D01*
X154991576Y-105366619D01*
X155173957Y-105093666D01*
X155700001Y-105093666D01*
X155700001Y-105376336D01*
X155755148Y-105653575D01*
X155863321Y-105914728D01*
X156020364Y-106149760D01*
X156220242Y-106349638D01*
X156373002Y-106451709D01*
X156373001Y-108068294D01*
X156220242Y-108170364D01*
X156020364Y-108370242D01*
X155863321Y-108605274D01*
X155755148Y-108866427D01*
X155700001Y-109143666D01*
X155700001Y-109426336D01*
X155755148Y-109703575D01*
X155863321Y-109964728D01*
X156020364Y-110199760D01*
X156220242Y-110399638D01*
X156455274Y-110556681D01*
X156716427Y-110664854D01*
X156993666Y-110720001D01*
X157276336Y-110720001D01*
X157553575Y-110664854D01*
X157814728Y-110556681D01*
X158049760Y-110399638D01*
X158249638Y-110199760D01*
X158406681Y-109964728D01*
X158514854Y-109703575D01*
X158570001Y-109426336D01*
X158570001Y-109143666D01*
X158514854Y-108866427D01*
X158406681Y-108605274D01*
X158249638Y-108370242D01*
X158049760Y-108170364D01*
X157897001Y-108068294D01*
X157897001Y-106451708D01*
X158049760Y-106349638D01*
X158249638Y-106149760D01*
X158406681Y-105914728D01*
X158514854Y-105653575D01*
X158570001Y-105376336D01*
X158570001Y-105093666D01*
X158514854Y-104816427D01*
X158406681Y-104555274D01*
X158249638Y-104320242D01*
X158049760Y-104120364D01*
X157814728Y-103963321D01*
X157553575Y-103855148D01*
X157276336Y-103800001D01*
X156993666Y-103800001D01*
X156716427Y-103855148D01*
X156455274Y-103963321D01*
X156220242Y-104120364D01*
X156020364Y-104320242D01*
X155863321Y-104555274D01*
X155755148Y-104816427D01*
X155700001Y-105093666D01*
X155173957Y-105093666D01*
X155197867Y-105057883D01*
X155339962Y-104714835D01*
X155412401Y-104350657D01*
X155412401Y-103979345D01*
X155339962Y-103615167D01*
X155197867Y-103272119D01*
X154991576Y-102963383D01*
X154729019Y-102700826D01*
X154420283Y-102494535D01*
X154077235Y-102352440D01*
X153713057Y-102280001D01*
X153341745Y-102280001D01*
X152977567Y-102352440D01*
X152634519Y-102494535D01*
X152325783Y-102700826D01*
X152063226Y-102963383D01*
X151856935Y-103272119D01*
X151714840Y-103615167D01*
X151642401Y-103979345D01*
X135147307Y-103979345D01*
X135247401Y-103879251D01*
X135250473Y-103080001D01*
X135238213Y-102955519D01*
X135201903Y-102835821D01*
X135142938Y-102725507D01*
X135063586Y-102628816D01*
X134966895Y-102549464D01*
X134856581Y-102490499D01*
X134736883Y-102454189D01*
X134612401Y-102441929D01*
X133813151Y-102445001D01*
X133654401Y-102603751D01*
X133400401Y-102603751D01*
X133241651Y-102445001D01*
X132442401Y-102441929D01*
X132317919Y-102454189D01*
X132198221Y-102490499D01*
X132087907Y-102549464D01*
X131991216Y-102628816D01*
X131911864Y-102725507D01*
X131852899Y-102835821D01*
X131816589Y-102955519D01*
X131804329Y-103080001D01*
X130810000Y-103080001D01*
X130810000Y-102057565D01*
X156899641Y-102057565D01*
X156966621Y-102297656D01*
X157215649Y-102414756D01*
X157482736Y-102481023D01*
X157757618Y-102493910D01*
X158029734Y-102452922D01*
X158288624Y-102359636D01*
X158404581Y-102297656D01*
X158471561Y-102057565D01*
X157685601Y-101271605D01*
X156899641Y-102057565D01*
X130810000Y-102057565D01*
X130810000Y-101164017D01*
X156283691Y-101164017D01*
X156324679Y-101436133D01*
X156417965Y-101695023D01*
X156479945Y-101810980D01*
X156720036Y-101877960D01*
X157505996Y-101092000D01*
X156720036Y-100306040D01*
X156479945Y-100373020D01*
X156362845Y-100622048D01*
X156296578Y-100889135D01*
X156283691Y-101164017D01*
X130810000Y-101164017D01*
X130810000Y-86421630D01*
X141539631Y-75692000D01*
X143697024Y-75692000D01*
X143841688Y-75908505D01*
X144055495Y-76122312D01*
X144306905Y-76290299D01*
X144586257Y-76406011D01*
X144882816Y-76465000D01*
X145185184Y-76465000D01*
X145481743Y-76406011D01*
X145761095Y-76290299D01*
X146012505Y-76122312D01*
X146078944Y-76055873D01*
X146084498Y-76074180D01*
X146143463Y-76184494D01*
X146222815Y-76281185D01*
X146319506Y-76360537D01*
X146429820Y-76419502D01*
X146549518Y-76455812D01*
X146674000Y-76468072D01*
X148474000Y-76468072D01*
X148598482Y-76455812D01*
X148718180Y-76419502D01*
X148828494Y-76360537D01*
X148925185Y-76281185D01*
X149004537Y-76184494D01*
X149063502Y-76074180D01*
X149099812Y-75954482D01*
X149112072Y-75830000D01*
X149112072Y-74030000D01*
X149099812Y-73905518D01*
X149063502Y-73785820D01*
X149004537Y-73675506D01*
X148925185Y-73578815D01*
X148828494Y-73499463D01*
X148718180Y-73440498D01*
X148598482Y-73404188D01*
X148474000Y-73391928D01*
X148336000Y-73391928D01*
X148336000Y-73213630D01*
X148651631Y-72898000D01*
X159196370Y-72898000D01*
X159512000Y-73213631D01*
X159512000Y-73391928D01*
X159374000Y-73391928D01*
X159249518Y-73404188D01*
X159129820Y-73440498D01*
X159019506Y-73499463D01*
X158922815Y-73578815D01*
X158843463Y-73675506D01*
X158784498Y-73785820D01*
X158778944Y-73804127D01*
X158712505Y-73737688D01*
X158461095Y-73569701D01*
X158181743Y-73453989D01*
X157885184Y-73395000D01*
X157582816Y-73395000D01*
X157286257Y-73453989D01*
X157006905Y-73569701D01*
X156755495Y-73737688D01*
X156541688Y-73951495D01*
X156373701Y-74202905D01*
X156257989Y-74482257D01*
X156199000Y-74778816D01*
X156199000Y-75081184D01*
X156257989Y-75377743D01*
X156373701Y-75657095D01*
X156541688Y-75908505D01*
X156755495Y-76122312D01*
X157006905Y-76290299D01*
X157286257Y-76406011D01*
X157582816Y-76465000D01*
X157885184Y-76465000D01*
X158181743Y-76406011D01*
X158461095Y-76290299D01*
X158712505Y-76122312D01*
X158778944Y-76055873D01*
X158784498Y-76074180D01*
X158843463Y-76184494D01*
X158922815Y-76281185D01*
X159019506Y-76360537D01*
X159129820Y-76419502D01*
X159249518Y-76455812D01*
X159374000Y-76468072D01*
X161174000Y-76468072D01*
X161298482Y-76455812D01*
X161418180Y-76419502D01*
X161528494Y-76360537D01*
X161625185Y-76281185D01*
X161704537Y-76184494D01*
X161763502Y-76074180D01*
X161799812Y-75954482D01*
X161812072Y-75830000D01*
X161812072Y-75767702D01*
X178816001Y-92771632D01*
X178816001Y-95608371D01*
X177764158Y-94556528D01*
X177800001Y-94376336D01*
X177800001Y-94093666D01*
X177744854Y-93816427D01*
X177636681Y-93555274D01*
X177479638Y-93320242D01*
X177279760Y-93120364D01*
X177044728Y-92963321D01*
X176783575Y-92855148D01*
X176506336Y-92800001D01*
X176223666Y-92800001D01*
X175946427Y-92855148D01*
X175685274Y-92963321D01*
X175450242Y-93120364D01*
X175250364Y-93320242D01*
X175093321Y-93555274D01*
X174985148Y-93816427D01*
X174930001Y-94093666D01*
X174930001Y-94376336D01*
X174985148Y-94653575D01*
X175093321Y-94914728D01*
X175250364Y-95149760D01*
X175450242Y-95349638D01*
X175685274Y-95506681D01*
X175946427Y-95614854D01*
X176223666Y-95670001D01*
X176506336Y-95670001D01*
X176686528Y-95634158D01*
X177546001Y-96493631D01*
X177546001Y-97469561D01*
X177479638Y-97370242D01*
X177279760Y-97170364D01*
X177044728Y-97013321D01*
X176783575Y-96905148D01*
X176506336Y-96850001D01*
X176223666Y-96850001D01*
X175946427Y-96905148D01*
X175685274Y-97013321D01*
X175450242Y-97170364D01*
X175250364Y-97370242D01*
X175212516Y-97426885D01*
X171508285Y-93722655D01*
X171484423Y-93693579D01*
X171368393Y-93598356D01*
X171236016Y-93527599D01*
X171092379Y-93484027D01*
X170980427Y-93473001D01*
X170980424Y-93473001D01*
X170943001Y-93469315D01*
X170905578Y-93473001D01*
X169961708Y-93473001D01*
X169859638Y-93320242D01*
X169659760Y-93120364D01*
X169424728Y-92963321D01*
X169163575Y-92855148D01*
X168886336Y-92800001D01*
X168603666Y-92800001D01*
X168326427Y-92855148D01*
X168065274Y-92963321D01*
X167830242Y-93120364D01*
X167630364Y-93320242D01*
X167473321Y-93555274D01*
X167365148Y-93816427D01*
X167310001Y-94093666D01*
X167310001Y-94376336D01*
X167365148Y-94653575D01*
X167473321Y-94914728D01*
X167630364Y-95149760D01*
X167830242Y-95349638D01*
X168061262Y-95504000D01*
X161859631Y-95504000D01*
X160994215Y-94638585D01*
X161116136Y-94557120D01*
X161310721Y-94362535D01*
X161463606Y-94133727D01*
X161495601Y-94056485D01*
X161527596Y-94133727D01*
X161680481Y-94362535D01*
X161875066Y-94557120D01*
X162103874Y-94710005D01*
X162358111Y-94815314D01*
X162628009Y-94869000D01*
X162903193Y-94869000D01*
X163173091Y-94815314D01*
X163427328Y-94710005D01*
X163656136Y-94557120D01*
X163850721Y-94362535D01*
X164003606Y-94133727D01*
X164035601Y-94056485D01*
X164067596Y-94133727D01*
X164220481Y-94362535D01*
X164415066Y-94557120D01*
X164643874Y-94710005D01*
X164898111Y-94815314D01*
X165168009Y-94869000D01*
X165443193Y-94869000D01*
X165713091Y-94815314D01*
X165967328Y-94710005D01*
X166196136Y-94557120D01*
X166390721Y-94362535D01*
X166543606Y-94133727D01*
X166648915Y-93879490D01*
X166702601Y-93609592D01*
X166702601Y-93334408D01*
X166648915Y-93064510D01*
X166543606Y-92810273D01*
X166390721Y-92581465D01*
X166196136Y-92386880D01*
X165967328Y-92233995D01*
X165713091Y-92128686D01*
X165443193Y-92075000D01*
X165168009Y-92075000D01*
X164898111Y-92128686D01*
X164643874Y-92233995D01*
X164415066Y-92386880D01*
X164220481Y-92581465D01*
X164067596Y-92810273D01*
X164035601Y-92887515D01*
X164003606Y-92810273D01*
X163850721Y-92581465D01*
X163656136Y-92386880D01*
X163427328Y-92233995D01*
X163173091Y-92128686D01*
X162903193Y-92075000D01*
X162628009Y-92075000D01*
X162476390Y-92105159D01*
X161347284Y-90976053D01*
X161323422Y-90946977D01*
X161207392Y-90851754D01*
X161075015Y-90780997D01*
X160931378Y-90737425D01*
X160819426Y-90726399D01*
X160819423Y-90726399D01*
X160782000Y-90722713D01*
X160744577Y-90726399D01*
X156041822Y-90726399D01*
X156004399Y-90722713D01*
X155966976Y-90726399D01*
X155966973Y-90726399D01*
X155855021Y-90737425D01*
X155711384Y-90780997D01*
X155649763Y-90813934D01*
X155579006Y-90851754D01*
X155496303Y-90919627D01*
X155462977Y-90946977D01*
X155439120Y-90976047D01*
X154016452Y-92398716D01*
X153987376Y-92422578D01*
X153959948Y-92456000D01*
X153892153Y-92538608D01*
X153869246Y-92581465D01*
X153821396Y-92670986D01*
X153777824Y-92814623D01*
X153773833Y-92855148D01*
X153763112Y-92964000D01*
X153766798Y-93001423D01*
X153766799Y-95309365D01*
X153763112Y-95346798D01*
X153777825Y-95496176D01*
X153821397Y-95639813D01*
X153892153Y-95772190D01*
X153948302Y-95840607D01*
X153987377Y-95888220D01*
X154016447Y-95912077D01*
X157676716Y-99572346D01*
X157700578Y-99601422D01*
X157774219Y-99661857D01*
X157816607Y-99696645D01*
X157822684Y-99699893D01*
X157613584Y-99690090D01*
X157341468Y-99731078D01*
X157082578Y-99824364D01*
X156966621Y-99886344D01*
X156899641Y-100126435D01*
X157685601Y-100912395D01*
X158471561Y-100126435D01*
X158404581Y-99886344D01*
X158269768Y-99822951D01*
X158279423Y-99822000D01*
X159463601Y-99822000D01*
X159463601Y-99920995D01*
X159335066Y-100006880D01*
X159140481Y-100201465D01*
X158987596Y-100430273D01*
X158957909Y-100501943D01*
X158953237Y-100488977D01*
X158891257Y-100373020D01*
X158651166Y-100306040D01*
X157865206Y-101092000D01*
X158651166Y-101877960D01*
X158891257Y-101810980D01*
X158955086Y-101675240D01*
X158987596Y-101753727D01*
X159140481Y-101982535D01*
X159335066Y-102177120D01*
X159563874Y-102330005D01*
X159818111Y-102435314D01*
X160088009Y-102489000D01*
X160363193Y-102489000D01*
X160633091Y-102435314D01*
X160887328Y-102330005D01*
X161116136Y-102177120D01*
X161310721Y-101982535D01*
X161463606Y-101753727D01*
X161495601Y-101676485D01*
X161527596Y-101753727D01*
X161680481Y-101982535D01*
X161875066Y-102177120D01*
X162103874Y-102330005D01*
X162358111Y-102435314D01*
X162628009Y-102489000D01*
X162903193Y-102489000D01*
X163173091Y-102435314D01*
X163427328Y-102330005D01*
X163656136Y-102177120D01*
X163850721Y-101982535D01*
X164003606Y-101753727D01*
X164035601Y-101676485D01*
X164067596Y-101753727D01*
X164220481Y-101982535D01*
X164415066Y-102177120D01*
X164643874Y-102330005D01*
X164898111Y-102435314D01*
X165168009Y-102489000D01*
X165443193Y-102489000D01*
X165713091Y-102435314D01*
X165967328Y-102330005D01*
X166196136Y-102177120D01*
X166390721Y-101982535D01*
X166543606Y-101753727D01*
X166648915Y-101499490D01*
X166702601Y-101229592D01*
X166702601Y-100954408D01*
X166648915Y-100684510D01*
X166543606Y-100430273D01*
X166390721Y-100201465D01*
X166196136Y-100006880D01*
X165967328Y-99853995D01*
X165713091Y-99748686D01*
X165443193Y-99695000D01*
X165168009Y-99695000D01*
X164898111Y-99748686D01*
X164643874Y-99853995D01*
X164415066Y-100006880D01*
X164220481Y-100201465D01*
X164067596Y-100430273D01*
X164035601Y-100507515D01*
X164003606Y-100430273D01*
X163850721Y-100201465D01*
X163656136Y-100006880D01*
X163527601Y-99920995D01*
X163527601Y-99170029D01*
X163650630Y-99047001D01*
X167528294Y-99047001D01*
X167630364Y-99199760D01*
X167830242Y-99399638D01*
X168065274Y-99556681D01*
X168326427Y-99664854D01*
X168603666Y-99720001D01*
X168886336Y-99720001D01*
X169163575Y-99664854D01*
X169424728Y-99556681D01*
X169659760Y-99399638D01*
X169859638Y-99199760D01*
X170016681Y-98964728D01*
X170124854Y-98703575D01*
X170180001Y-98426336D01*
X170180001Y-98143666D01*
X170124854Y-97866427D01*
X170016681Y-97605274D01*
X169859638Y-97370242D01*
X169659760Y-97170364D01*
X169446697Y-97028000D01*
X169864370Y-97028000D01*
X170434001Y-97597632D01*
X170434000Y-99506369D01*
X167392650Y-102547720D01*
X167363580Y-102571577D01*
X167339723Y-102600647D01*
X167339722Y-102600648D01*
X167268356Y-102687607D01*
X167197600Y-102819984D01*
X167154028Y-102963621D01*
X167139315Y-103112999D01*
X167143002Y-103150432D01*
X167143002Y-104018294D01*
X166990242Y-104120364D01*
X166790364Y-104320242D01*
X166633321Y-104555274D01*
X166525148Y-104816427D01*
X166470001Y-105093666D01*
X166470001Y-105376336D01*
X166525148Y-105653575D01*
X166633321Y-105914728D01*
X166790364Y-106149760D01*
X166812604Y-106172000D01*
X165847398Y-106172000D01*
X165869638Y-106149760D01*
X166026681Y-105914728D01*
X166134854Y-105653575D01*
X166190001Y-105376336D01*
X166190001Y-105093666D01*
X166134854Y-104816427D01*
X166026681Y-104555274D01*
X165869638Y-104320242D01*
X165669760Y-104120364D01*
X165434728Y-103963321D01*
X165173575Y-103855148D01*
X164896336Y-103800001D01*
X164613666Y-103800001D01*
X164336427Y-103855148D01*
X164075274Y-103963321D01*
X163840242Y-104120364D01*
X163640364Y-104320242D01*
X163483321Y-104555274D01*
X163375148Y-104816427D01*
X163320001Y-105093666D01*
X163320001Y-105376336D01*
X163375148Y-105653575D01*
X163483321Y-105914728D01*
X163640364Y-106149760D01*
X163840242Y-106349638D01*
X164075274Y-106506681D01*
X164336427Y-106614854D01*
X164613666Y-106670001D01*
X164794368Y-106670001D01*
X164242650Y-107221720D01*
X164213580Y-107245577D01*
X164189723Y-107274647D01*
X164189722Y-107274648D01*
X164118356Y-107361607D01*
X164047600Y-107493984D01*
X164004028Y-107637621D01*
X163989315Y-107786999D01*
X163993002Y-107824432D01*
X163993002Y-108068293D01*
X163840242Y-108170364D01*
X163640364Y-108370242D01*
X163483321Y-108605274D01*
X163375148Y-108866427D01*
X163320001Y-109143666D01*
X163320001Y-109426336D01*
X163375148Y-109703575D01*
X163483321Y-109964728D01*
X163640364Y-110199760D01*
X163840242Y-110399638D01*
X164075274Y-110556681D01*
X164336427Y-110664854D01*
X164613666Y-110720001D01*
X164896336Y-110720001D01*
X165173575Y-110664854D01*
X165434728Y-110556681D01*
X165669760Y-110399638D01*
X165869638Y-110199760D01*
X166026681Y-109964728D01*
X166134854Y-109703575D01*
X166190001Y-109426336D01*
X166190001Y-109143666D01*
X166134854Y-108866427D01*
X166026681Y-108605274D01*
X165869638Y-108370242D01*
X165669760Y-108170364D01*
X165537584Y-108082047D01*
X165923631Y-107696000D01*
X167602577Y-107696000D01*
X167640000Y-107699686D01*
X167677423Y-107696000D01*
X167677426Y-107696000D01*
X167789378Y-107684974D01*
X167933015Y-107641402D01*
X168065392Y-107570645D01*
X168181422Y-107475422D01*
X168205284Y-107446346D01*
X168417348Y-107234282D01*
X168446423Y-107210421D01*
X168541646Y-107094391D01*
X168612403Y-106962014D01*
X168655975Y-106818377D01*
X168667001Y-106706425D01*
X168667001Y-106706423D01*
X168670687Y-106669000D01*
X168667001Y-106631577D01*
X168667001Y-106451708D01*
X168819760Y-106349638D01*
X169019638Y-106149760D01*
X169176681Y-105914728D01*
X169284854Y-105653575D01*
X169340001Y-105376336D01*
X169340001Y-105093666D01*
X169284854Y-104816427D01*
X169176681Y-104555274D01*
X169019638Y-104320242D01*
X168819760Y-104120364D01*
X168667001Y-104018294D01*
X168667001Y-103428629D01*
X171708353Y-100387278D01*
X171737422Y-100363422D01*
X171832645Y-100247392D01*
X171903402Y-100115015D01*
X171946974Y-99971378D01*
X171958000Y-99859426D01*
X171958000Y-99859424D01*
X171961686Y-99822001D01*
X171958000Y-99784578D01*
X171958000Y-97319423D01*
X171961686Y-97282000D01*
X171958000Y-97244574D01*
X171946974Y-97132622D01*
X171903402Y-96988985D01*
X171857252Y-96902645D01*
X171832645Y-96856607D01*
X171761279Y-96769648D01*
X171737422Y-96740578D01*
X171708351Y-96716721D01*
X170745284Y-95753654D01*
X170721422Y-95724578D01*
X170605392Y-95629355D01*
X170473015Y-95558598D01*
X170329378Y-95515026D01*
X170217426Y-95504000D01*
X170217423Y-95504000D01*
X170180000Y-95500314D01*
X170142577Y-95504000D01*
X169428740Y-95504000D01*
X169659760Y-95349638D01*
X169859638Y-95149760D01*
X169961708Y-94997001D01*
X170627371Y-94997001D01*
X173915370Y-98285001D01*
X172207649Y-99992723D01*
X172178579Y-100016580D01*
X172154722Y-100045650D01*
X172154721Y-100045651D01*
X172083355Y-100132610D01*
X172012599Y-100264987D01*
X171969027Y-100408624D01*
X171954314Y-100558002D01*
X171958001Y-100595435D01*
X171958000Y-105348369D01*
X168627891Y-108678479D01*
X168598821Y-108702336D01*
X168574964Y-108731406D01*
X168574963Y-108731407D01*
X168503597Y-108818366D01*
X168432841Y-108950743D01*
X168389269Y-109094380D01*
X168374556Y-109243758D01*
X168378243Y-109281191D01*
X168378243Y-109746929D01*
X168340242Y-109746929D01*
X168215760Y-109759189D01*
X168096062Y-109795499D01*
X167985748Y-109854464D01*
X167889057Y-109933816D01*
X167809705Y-110030507D01*
X167750740Y-110140821D01*
X167714430Y-110260519D01*
X167702170Y-110385001D01*
X167702170Y-111985001D01*
X167714430Y-112109483D01*
X167750740Y-112229181D01*
X167809705Y-112339495D01*
X167889057Y-112436186D01*
X167985748Y-112515538D01*
X168096062Y-112574503D01*
X168215760Y-112610813D01*
X168340242Y-112623073D01*
X169940242Y-112623073D01*
X170064724Y-112610813D01*
X170184422Y-112574503D01*
X170294736Y-112515538D01*
X170391427Y-112436186D01*
X170470779Y-112339495D01*
X170529744Y-112229181D01*
X170545359Y-112177703D01*
X170827145Y-112177703D01*
X170898728Y-112421672D01*
X171154238Y-112542572D01*
X171428426Y-112611301D01*
X171710754Y-112625218D01*
X171990372Y-112583788D01*
X172256534Y-112488604D01*
X172381756Y-112421672D01*
X172453339Y-112177703D01*
X171640242Y-111364606D01*
X170827145Y-112177703D01*
X170545359Y-112177703D01*
X170566054Y-112109483D01*
X170578314Y-111985001D01*
X170578314Y-111977786D01*
X170647540Y-111998098D01*
X171460637Y-111185001D01*
X171819847Y-111185001D01*
X172632944Y-111998098D01*
X172876913Y-111926515D01*
X172997813Y-111671005D01*
X173066542Y-111396817D01*
X173080459Y-111114489D01*
X173039029Y-110834871D01*
X172943845Y-110568709D01*
X172876913Y-110443487D01*
X172632944Y-110371904D01*
X171819847Y-111185001D01*
X171460637Y-111185001D01*
X170647540Y-110371904D01*
X170578314Y-110392216D01*
X170578314Y-110385001D01*
X170566054Y-110260519D01*
X170545360Y-110192299D01*
X170827145Y-110192299D01*
X171640242Y-111005396D01*
X172453339Y-110192299D01*
X172381756Y-109948330D01*
X172126246Y-109827430D01*
X171852058Y-109758701D01*
X171569730Y-109744784D01*
X171290112Y-109786214D01*
X171023950Y-109881398D01*
X170898728Y-109948330D01*
X170827145Y-110192299D01*
X170545360Y-110192299D01*
X170529744Y-110140821D01*
X170470779Y-110030507D01*
X170391427Y-109933816D01*
X170294736Y-109854464D01*
X170184422Y-109795499D01*
X170064724Y-109759189D01*
X169940242Y-109746929D01*
X169902242Y-109746929D01*
X169902242Y-109559388D01*
X173232353Y-106229278D01*
X173261422Y-106205422D01*
X173356645Y-106089392D01*
X173427402Y-105957015D01*
X173470974Y-105813378D01*
X173482000Y-105701426D01*
X173482000Y-105701424D01*
X173485686Y-105664001D01*
X173482000Y-105626578D01*
X173482000Y-105093666D01*
X174090001Y-105093666D01*
X174090001Y-105376336D01*
X174145148Y-105653575D01*
X174253321Y-105914728D01*
X174410364Y-106149760D01*
X174610242Y-106349638D01*
X174845274Y-106506681D01*
X175106427Y-106614854D01*
X175383666Y-106670001D01*
X175666336Y-106670001D01*
X175943575Y-106614854D01*
X176204728Y-106506681D01*
X176439760Y-106349638D01*
X176639638Y-106149760D01*
X176796681Y-105914728D01*
X176904854Y-105653575D01*
X176960001Y-105376336D01*
X176960001Y-105093666D01*
X176904854Y-104816427D01*
X176796681Y-104555274D01*
X176639638Y-104320242D01*
X176439760Y-104120364D01*
X176204728Y-103963321D01*
X175943575Y-103855148D01*
X175666336Y-103800001D01*
X175383666Y-103800001D01*
X175106427Y-103855148D01*
X174845274Y-103963321D01*
X174610242Y-104120364D01*
X174410364Y-104320242D01*
X174253321Y-104555274D01*
X174145148Y-104816427D01*
X174090001Y-105093666D01*
X173482000Y-105093666D01*
X173482000Y-100873632D01*
X175212516Y-99143117D01*
X175250364Y-99199760D01*
X175450242Y-99399638D01*
X175685274Y-99556681D01*
X175946427Y-99664854D01*
X176223666Y-99720001D01*
X176506336Y-99720001D01*
X176783575Y-99664854D01*
X177044728Y-99556681D01*
X177279760Y-99399638D01*
X177479638Y-99199760D01*
X177546001Y-99100441D01*
X177546000Y-118048369D01*
X175646370Y-119948000D01*
X175400573Y-119948000D01*
X175319799Y-119827114D01*
X175126886Y-119634201D01*
X174922446Y-119497599D01*
X174994000Y-119498072D01*
X175118482Y-119485812D01*
X175238180Y-119449502D01*
X175348494Y-119390537D01*
X175445185Y-119311185D01*
X175524537Y-119214494D01*
X175583502Y-119104180D01*
X175619812Y-118984482D01*
X175632072Y-118860000D01*
X175629000Y-118395750D01*
X175470250Y-118237000D01*
X174371000Y-118237000D01*
X174371000Y-118257000D01*
X174117000Y-118257000D01*
X174117000Y-118237000D01*
X173017750Y-118237000D01*
X172859000Y-118395750D01*
X172855928Y-118860000D01*
X172868188Y-118984482D01*
X172904498Y-119104180D01*
X172963463Y-119214494D01*
X173042815Y-119311185D01*
X173139506Y-119390537D01*
X173249820Y-119449502D01*
X173369518Y-119485812D01*
X173494000Y-119498072D01*
X173565554Y-119497599D01*
X173361114Y-119634201D01*
X173168201Y-119827114D01*
X173016629Y-120053957D01*
X172912225Y-120306011D01*
X172859000Y-120573589D01*
X172859000Y-120846411D01*
X172912225Y-121113989D01*
X173016629Y-121366043D01*
X173168201Y-121592886D01*
X173361114Y-121785799D01*
X173587957Y-121937371D01*
X173763299Y-122010000D01*
X173587957Y-122082629D01*
X173361114Y-122234201D01*
X173168201Y-122427114D01*
X173016629Y-122653957D01*
X172912225Y-122906011D01*
X172859000Y-123173589D01*
X172859000Y-123446411D01*
X172912225Y-123713989D01*
X173016629Y-123966043D01*
X173168201Y-124192886D01*
X173361114Y-124385799D01*
X173587957Y-124537371D01*
X173840011Y-124641775D01*
X174107589Y-124695000D01*
X174380411Y-124695000D01*
X174647989Y-124641775D01*
X174900043Y-124537371D01*
X175126886Y-124385799D01*
X175319799Y-124192886D01*
X175400573Y-124072000D01*
X176372577Y-124072000D01*
X176410000Y-124075686D01*
X176447423Y-124072000D01*
X176447426Y-124072000D01*
X176559378Y-124060974D01*
X176703015Y-124017402D01*
X176835392Y-123946645D01*
X176951422Y-123851422D01*
X176975284Y-123822346D01*
X180090347Y-120707283D01*
X180119422Y-120683422D01*
X180196247Y-120589810D01*
X180200301Y-120584871D01*
X180200301Y-126352300D01*
X127647700Y-126352300D01*
X127647700Y-45801595D01*
X146294012Y-45801595D01*
X146294422Y-45860299D01*
X146294012Y-45919003D01*
X146294894Y-45928003D01*
X146333757Y-46297757D01*
X146345563Y-46355274D01*
X146356561Y-46412926D01*
X146359175Y-46421584D01*
X146469117Y-46776747D01*
X146491874Y-46830883D01*
X146513857Y-46885293D01*
X146518102Y-46893278D01*
X146694934Y-47220323D01*
X146727766Y-47268999D01*
X146759906Y-47318114D01*
X146765622Y-47325122D01*
X147002611Y-47611592D01*
X147044267Y-47652958D01*
X147085338Y-47694899D01*
X147092306Y-47700663D01*
X147380423Y-47935646D01*
X147429336Y-47968144D01*
X147477758Y-48001299D01*
X147485708Y-48005597D01*
X147485712Y-48005600D01*
X147485716Y-48005602D01*
X147813985Y-48180145D01*
X147868261Y-48202516D01*
X147922215Y-48225642D01*
X147930852Y-48228315D01*
X147930856Y-48228317D01*
X147930860Y-48228318D01*
X148286777Y-48335775D01*
X148344338Y-48347173D01*
X148401787Y-48359384D01*
X148410778Y-48360329D01*
X148410780Y-48360329D01*
X148780796Y-48396609D01*
X148780809Y-48396609D01*
X148812191Y-48399700D01*
X159035809Y-48399700D01*
X159069080Y-48396423D01*
X159093803Y-48396423D01*
X159102796Y-48395478D01*
X159472270Y-48354035D01*
X159529710Y-48341826D01*
X159587278Y-48330427D01*
X159595917Y-48327753D01*
X159950304Y-48215335D01*
X160004293Y-48192195D01*
X160058536Y-48169838D01*
X160066491Y-48165537D01*
X160392294Y-47986425D01*
X160440740Y-47953253D01*
X160489627Y-47920773D01*
X160496590Y-47915012D01*
X160496596Y-47915008D01*
X160496601Y-47915003D01*
X160781403Y-47676026D01*
X160822470Y-47634090D01*
X160864132Y-47592719D01*
X160869847Y-47585711D01*
X161102813Y-47295960D01*
X161134962Y-47246832D01*
X161167785Y-47198170D01*
X161172030Y-47190185D01*
X161344279Y-46860703D01*
X161366282Y-46806243D01*
X161389019Y-46752156D01*
X161391633Y-46743498D01*
X161496605Y-46386833D01*
X161507611Y-46329137D01*
X161519409Y-46271665D01*
X161520290Y-46262672D01*
X161520292Y-46262663D01*
X161520292Y-46262655D01*
X161553988Y-45892405D01*
X161553578Y-45833701D01*
X161553988Y-45774998D01*
X161553106Y-45765998D01*
X161514243Y-45396243D01*
X161502430Y-45338696D01*
X161491438Y-45281073D01*
X161488825Y-45272416D01*
X161378883Y-44917252D01*
X161356114Y-44863088D01*
X161334143Y-44808706D01*
X161329898Y-44800722D01*
X161153066Y-44473677D01*
X161120234Y-44425001D01*
X161088094Y-44375886D01*
X161082378Y-44368878D01*
X160845389Y-44082408D01*
X160803733Y-44041042D01*
X160762662Y-43999101D01*
X160755694Y-43993337D01*
X160467577Y-43758354D01*
X160418664Y-43725856D01*
X160370242Y-43692701D01*
X160362292Y-43688403D01*
X160362288Y-43688400D01*
X160362284Y-43688398D01*
X160034015Y-43513855D01*
X159979753Y-43491490D01*
X159925784Y-43468358D01*
X159917145Y-43465684D01*
X159561223Y-43358224D01*
X159503626Y-43346819D01*
X159446213Y-43334616D01*
X159437223Y-43333671D01*
X159437219Y-43333671D01*
X159067204Y-43297391D01*
X159067191Y-43297391D01*
X159035809Y-43294300D01*
X148812191Y-43294300D01*
X148778920Y-43297577D01*
X148754197Y-43297577D01*
X148745204Y-43298522D01*
X148375730Y-43339965D01*
X148318265Y-43352180D01*
X148260722Y-43363573D01*
X148252083Y-43366247D01*
X147897696Y-43478665D01*
X147843720Y-43501799D01*
X147789463Y-43524162D01*
X147781509Y-43528463D01*
X147455706Y-43707575D01*
X147407277Y-43740735D01*
X147358372Y-43773227D01*
X147351410Y-43778988D01*
X147351404Y-43778992D01*
X147351399Y-43778997D01*
X147066597Y-44017974D01*
X147025511Y-44059929D01*
X146983868Y-44101282D01*
X146978158Y-44108284D01*
X146978153Y-44108289D01*
X146978149Y-44108294D01*
X146745187Y-44398040D01*
X146713042Y-44447163D01*
X146680215Y-44495831D01*
X146675973Y-44503811D01*
X146675970Y-44503815D01*
X146675970Y-44503816D01*
X146503721Y-44833297D01*
X146481722Y-44887745D01*
X146458981Y-44941844D01*
X146456367Y-44950501D01*
X146351395Y-45307167D01*
X146340389Y-45364863D01*
X146328591Y-45422335D01*
X146327710Y-45431328D01*
X146327708Y-45431337D01*
X146327708Y-45431345D01*
X146294012Y-45801595D01*
X127647700Y-45801595D01*
X127647700Y-42062000D01*
X180200300Y-42062000D01*
X180200301Y-92013128D01*
%TA.AperFunction,Conductor*%
D24*
G36*
X180200301Y-92013128D02*
G01*
X180143279Y-91943648D01*
X180119422Y-91914578D01*
X180090352Y-91890721D01*
X162617284Y-74417654D01*
X162593422Y-74388578D01*
X162477392Y-74293355D01*
X162345015Y-74222598D01*
X162201378Y-74179026D01*
X162089426Y-74168000D01*
X162089423Y-74168000D01*
X162052000Y-74164314D01*
X162014577Y-74168000D01*
X161812072Y-74168000D01*
X161812072Y-74030000D01*
X161799812Y-73905518D01*
X161763502Y-73785820D01*
X161704537Y-73675506D01*
X161625185Y-73578815D01*
X161528494Y-73499463D01*
X161418180Y-73440498D01*
X161298482Y-73404188D01*
X161174000Y-73391928D01*
X161036000Y-73391928D01*
X161036000Y-72935423D01*
X161039686Y-72898000D01*
X161036000Y-72860574D01*
X161024974Y-72748622D01*
X160981402Y-72604985D01*
X160910646Y-72472609D01*
X160910645Y-72472607D01*
X160839279Y-72385648D01*
X160815422Y-72356578D01*
X160786353Y-72332722D01*
X160077284Y-71623653D01*
X160053422Y-71594578D01*
X159937392Y-71499355D01*
X159805015Y-71428598D01*
X159661378Y-71385026D01*
X159549426Y-71374000D01*
X159549423Y-71374000D01*
X159512000Y-71370314D01*
X159474577Y-71374000D01*
X148373423Y-71374000D01*
X148336000Y-71370314D01*
X148298577Y-71374000D01*
X148298574Y-71374000D01*
X148186622Y-71385026D01*
X148042985Y-71428598D01*
X147981364Y-71461535D01*
X147910607Y-71499355D01*
X147827904Y-71567228D01*
X147794578Y-71594578D01*
X147770720Y-71623649D01*
X147061649Y-72332721D01*
X147032579Y-72356578D01*
X147008722Y-72385648D01*
X147008721Y-72385649D01*
X146937355Y-72472608D01*
X146866599Y-72604985D01*
X146823027Y-72748622D01*
X146808314Y-72898000D01*
X146812001Y-72935433D01*
X146812001Y-73391928D01*
X146674000Y-73391928D01*
X146549518Y-73404188D01*
X146429820Y-73440498D01*
X146319506Y-73499463D01*
X146222815Y-73578815D01*
X146143463Y-73675506D01*
X146084498Y-73785820D01*
X146078944Y-73804127D01*
X146012505Y-73737688D01*
X145761095Y-73569701D01*
X145481743Y-73453989D01*
X145185184Y-73395000D01*
X144882816Y-73395000D01*
X144586257Y-73453989D01*
X144306905Y-73569701D01*
X144055495Y-73737688D01*
X143841688Y-73951495D01*
X143697024Y-74168000D01*
X141261423Y-74168000D01*
X141224000Y-74164314D01*
X141186577Y-74168000D01*
X141186574Y-74168000D01*
X141074622Y-74179026D01*
X140930985Y-74222598D01*
X140869364Y-74255535D01*
X140798607Y-74293355D01*
X140715904Y-74361228D01*
X140682578Y-74388578D01*
X140658721Y-74417648D01*
X129535649Y-85540721D01*
X129506579Y-85564578D01*
X129482722Y-85593648D01*
X129482721Y-85593649D01*
X129411355Y-85680608D01*
X129340599Y-85812985D01*
X129297027Y-85956622D01*
X129282314Y-86106000D01*
X129286001Y-86143433D01*
X129286000Y-122136577D01*
X129282314Y-122174000D01*
X129286000Y-122211423D01*
X129286000Y-122211425D01*
X129297026Y-122323377D01*
X129340598Y-122467014D01*
X129364803Y-122512299D01*
X129411355Y-122599392D01*
X129450983Y-122647678D01*
X129506578Y-122715422D01*
X129535654Y-122739284D01*
X131514721Y-124718352D01*
X131538578Y-124747422D01*
X131567648Y-124771279D01*
X131654607Y-124842645D01*
X131725364Y-124880465D01*
X131786985Y-124913402D01*
X131930622Y-124956974D01*
X132042574Y-124968000D01*
X132042577Y-124968000D01*
X132080000Y-124971686D01*
X132117423Y-124968000D01*
X147282577Y-124968000D01*
X147320000Y-124971686D01*
X147357423Y-124968000D01*
X147357426Y-124968000D01*
X147469378Y-124956974D01*
X147613015Y-124913402D01*
X147745392Y-124842645D01*
X147861422Y-124747422D01*
X147885284Y-124718346D01*
X151897347Y-120706283D01*
X151926423Y-120682421D01*
X152020825Y-120567392D01*
X152021646Y-120566392D01*
X152067822Y-120480001D01*
X152092403Y-120434014D01*
X152135975Y-120290377D01*
X152147001Y-120178425D01*
X152147001Y-120178422D01*
X152150687Y-120140999D01*
X152147001Y-120103576D01*
X152147001Y-119361708D01*
X152299760Y-119259638D01*
X152499638Y-119059760D01*
X152656681Y-118824728D01*
X152764854Y-118563575D01*
X152820001Y-118286336D01*
X152820001Y-118003666D01*
X153100001Y-118003666D01*
X153100001Y-118286336D01*
X153155148Y-118563575D01*
X153263321Y-118824728D01*
X153420364Y-119059760D01*
X153620242Y-119259638D01*
X153855274Y-119416681D01*
X154116427Y-119524854D01*
X154393666Y-119580001D01*
X154676336Y-119580001D01*
X154953575Y-119524854D01*
X155214728Y-119416681D01*
X155449760Y-119259638D01*
X155649638Y-119059760D01*
X155806681Y-118824728D01*
X155914854Y-118563575D01*
X155928685Y-118494040D01*
X160763097Y-118494040D01*
X160803755Y-118628088D01*
X160923964Y-118882421D01*
X161091482Y-119108415D01*
X161299870Y-119297386D01*
X161541120Y-119442071D01*
X161805961Y-119536910D01*
X162028001Y-119415625D01*
X162028001Y-118272001D01*
X162282001Y-118272001D01*
X162282001Y-119415625D01*
X162504041Y-119536910D01*
X162768882Y-119442071D01*
X163010132Y-119297386D01*
X163218520Y-119108415D01*
X163386038Y-118882421D01*
X163506247Y-118628088D01*
X163546905Y-118494040D01*
X163424916Y-118272001D01*
X162282001Y-118272001D01*
X162028001Y-118272001D01*
X160885086Y-118272001D01*
X160763097Y-118494040D01*
X155928685Y-118494040D01*
X155970001Y-118286336D01*
X155970001Y-118003666D01*
X155928686Y-117795962D01*
X160763097Y-117795962D01*
X160885086Y-118018001D01*
X162028001Y-118018001D01*
X162028001Y-116874377D01*
X162282001Y-116874377D01*
X162282001Y-118018001D01*
X163424916Y-118018001D01*
X163546905Y-117795962D01*
X163506247Y-117661914D01*
X163469895Y-117585001D01*
X164656704Y-117585001D01*
X164656704Y-119185001D01*
X164668964Y-119309483D01*
X164705274Y-119429181D01*
X164764239Y-119539495D01*
X164843591Y-119636186D01*
X164940282Y-119715538D01*
X165050596Y-119774503D01*
X165170294Y-119810813D01*
X165294776Y-119823073D01*
X166894776Y-119823073D01*
X167019258Y-119810813D01*
X167138956Y-119774503D01*
X167249270Y-119715538D01*
X167345961Y-119636186D01*
X167356583Y-119623243D01*
X167608772Y-119742572D01*
X167882960Y-119811301D01*
X168165288Y-119825218D01*
X168444906Y-119783788D01*
X168711068Y-119688604D01*
X168836290Y-119621672D01*
X168907873Y-119377703D01*
X168094776Y-118564606D01*
X168080634Y-118578749D01*
X167901029Y-118399144D01*
X167915171Y-118385001D01*
X168274381Y-118385001D01*
X169087478Y-119198098D01*
X169331447Y-119126515D01*
X169452347Y-118871005D01*
X169521076Y-118596817D01*
X169534993Y-118314489D01*
X169493563Y-118034871D01*
X169398379Y-117768709D01*
X169331447Y-117643487D01*
X169087478Y-117571904D01*
X168274381Y-118385001D01*
X167915171Y-118385001D01*
X167901029Y-118370859D01*
X168080634Y-118191254D01*
X168094776Y-118205396D01*
X168907873Y-117392299D01*
X168898397Y-117360000D01*
X172855928Y-117360000D01*
X172859000Y-117824250D01*
X173017750Y-117983000D01*
X174117000Y-117983000D01*
X174117000Y-116883750D01*
X174371000Y-116883750D01*
X174371000Y-117983000D01*
X175470250Y-117983000D01*
X175629000Y-117824250D01*
X175632072Y-117360000D01*
X175619812Y-117235518D01*
X175583502Y-117115820D01*
X175524537Y-117005506D01*
X175445185Y-116908815D01*
X175348494Y-116829463D01*
X175238180Y-116770498D01*
X175118482Y-116734188D01*
X174994000Y-116721928D01*
X174529750Y-116725000D01*
X174371000Y-116883750D01*
X174117000Y-116883750D01*
X173958250Y-116725000D01*
X173494000Y-116721928D01*
X173369518Y-116734188D01*
X173249820Y-116770498D01*
X173139506Y-116829463D01*
X173042815Y-116908815D01*
X172963463Y-117005506D01*
X172904498Y-117115820D01*
X172868188Y-117235518D01*
X172855928Y-117360000D01*
X168898397Y-117360000D01*
X168836290Y-117148330D01*
X168580780Y-117027430D01*
X168306592Y-116958701D01*
X168024264Y-116944784D01*
X167744646Y-116986214D01*
X167478484Y-117081398D01*
X167356467Y-117146617D01*
X167345961Y-117133816D01*
X167249270Y-117054464D01*
X167138956Y-116995499D01*
X167019258Y-116959189D01*
X166894776Y-116946929D01*
X165294776Y-116946929D01*
X165170294Y-116959189D01*
X165050596Y-116995499D01*
X164940282Y-117054464D01*
X164843591Y-117133816D01*
X164764239Y-117230507D01*
X164705274Y-117340821D01*
X164668964Y-117460519D01*
X164656704Y-117585001D01*
X163469895Y-117585001D01*
X163386038Y-117407581D01*
X163218520Y-117181587D01*
X163010132Y-116992616D01*
X162768882Y-116847931D01*
X162504041Y-116753092D01*
X162282001Y-116874377D01*
X162028001Y-116874377D01*
X161805961Y-116753092D01*
X161541120Y-116847931D01*
X161299870Y-116992616D01*
X161091482Y-117181587D01*
X160923964Y-117407581D01*
X160803755Y-117661914D01*
X160763097Y-117795962D01*
X155928686Y-117795962D01*
X155914854Y-117726427D01*
X155806681Y-117465274D01*
X155649638Y-117230242D01*
X155449760Y-117030364D01*
X155214728Y-116873321D01*
X154953575Y-116765148D01*
X154676336Y-116710001D01*
X154393666Y-116710001D01*
X154116427Y-116765148D01*
X153855274Y-116873321D01*
X153620242Y-117030364D01*
X153420364Y-117230242D01*
X153263321Y-117465274D01*
X153155148Y-117726427D01*
X153100001Y-118003666D01*
X152820001Y-118003666D01*
X152764854Y-117726427D01*
X152656681Y-117465274D01*
X152499638Y-117230242D01*
X152299760Y-117030364D01*
X152064728Y-116873321D01*
X151803575Y-116765148D01*
X151526336Y-116710001D01*
X151243666Y-116710001D01*
X150966427Y-116765148D01*
X150705274Y-116873321D01*
X150470242Y-117030364D01*
X150270364Y-117230242D01*
X150113321Y-117465274D01*
X150005148Y-117726427D01*
X149950001Y-118003666D01*
X149950001Y-118286336D01*
X150005148Y-118563575D01*
X150113321Y-118824728D01*
X150270364Y-119059760D01*
X150470242Y-119259638D01*
X150623002Y-119361708D01*
X150623002Y-119825368D01*
X147004370Y-123444000D01*
X142914840Y-123444000D01*
X144448134Y-121910707D01*
X144486897Y-121878895D01*
X144613861Y-121724189D01*
X144708203Y-121547686D01*
X144766299Y-121356170D01*
X144781001Y-121206901D01*
X144781001Y-121206894D01*
X144785915Y-121157000D01*
X144781001Y-121107106D01*
X144781001Y-119158397D01*
X144879638Y-119059760D01*
X145036681Y-118824728D01*
X145144854Y-118563575D01*
X145200001Y-118286336D01*
X145200001Y-118003666D01*
X145144854Y-117726427D01*
X145036681Y-117465274D01*
X144879638Y-117230242D01*
X144679760Y-117030364D01*
X144444728Y-116873321D01*
X144183575Y-116765148D01*
X143906336Y-116710001D01*
X143623666Y-116710001D01*
X143346427Y-116765148D01*
X143085274Y-116873321D01*
X142850242Y-117030364D01*
X142650364Y-117230242D01*
X142493321Y-117465274D01*
X142385148Y-117726427D01*
X142330001Y-118003666D01*
X142330001Y-118286336D01*
X142385148Y-118563575D01*
X142493321Y-118824728D01*
X142650364Y-119059760D01*
X142749002Y-119158398D01*
X142749001Y-120736158D01*
X141565160Y-121920000D01*
X137326841Y-121920000D01*
X136893224Y-121486384D01*
X136891298Y-121466830D01*
X136889522Y-121460974D01*
X136833202Y-121275313D01*
X136751001Y-121121524D01*
X136751001Y-120120530D01*
X136966151Y-119905380D01*
X136985001Y-119877169D01*
X137003851Y-119905380D01*
X137224622Y-120126151D01*
X137484222Y-120299610D01*
X137772674Y-120419090D01*
X138078892Y-120480001D01*
X138391110Y-120480001D01*
X138697328Y-120419090D01*
X138985780Y-120299610D01*
X139245380Y-120126151D01*
X139466151Y-119905380D01*
X139639610Y-119645780D01*
X139759090Y-119357328D01*
X139820001Y-119051110D01*
X139820001Y-118738892D01*
X139759090Y-118432674D01*
X139639610Y-118144222D01*
X139466151Y-117884622D01*
X139245380Y-117663851D01*
X138985780Y-117490392D01*
X138697328Y-117370912D01*
X138391110Y-117310001D01*
X138078892Y-117310001D01*
X137772674Y-117370912D01*
X137484222Y-117490392D01*
X137224622Y-117663851D01*
X137003851Y-117884622D01*
X136985001Y-117912833D01*
X136966151Y-117884622D01*
X136745380Y-117663851D01*
X136485780Y-117490392D01*
X136197328Y-117370912D01*
X135891110Y-117310001D01*
X135578892Y-117310001D01*
X135272674Y-117370912D01*
X134984222Y-117490392D01*
X134746815Y-117649022D01*
X134715538Y-117590507D01*
X134636186Y-117493816D01*
X134539495Y-117414464D01*
X134429181Y-117355499D01*
X134309483Y-117319189D01*
X134185001Y-117306929D01*
X132285001Y-117306929D01*
X132160519Y-117319189D01*
X132040821Y-117355499D01*
X131930507Y-117414464D01*
X131833816Y-117493816D01*
X131754464Y-117590507D01*
X131695499Y-117700821D01*
X131659189Y-117820519D01*
X131646929Y-117945001D01*
X131646929Y-119845001D01*
X131659189Y-119969483D01*
X131695499Y-120089181D01*
X131754464Y-120199495D01*
X131833816Y-120296186D01*
X131930507Y-120375538D01*
X132040821Y-120434503D01*
X132160519Y-120470813D01*
X132285001Y-120483073D01*
X134185001Y-120483073D01*
X134309483Y-120470813D01*
X134429181Y-120434503D01*
X134539495Y-120375538D01*
X134636186Y-120296186D01*
X134715538Y-120199495D01*
X134719001Y-120193015D01*
X134719002Y-121461090D01*
X134714086Y-121511001D01*
X134733703Y-121710171D01*
X134780722Y-121865170D01*
X134791800Y-121901688D01*
X134884332Y-122074805D01*
X134888702Y-122119171D01*
X134946798Y-122310687D01*
X135041140Y-122487190D01*
X135168105Y-122641896D01*
X135206868Y-122673708D01*
X135977159Y-123444000D01*
X132395631Y-123444000D01*
X130810000Y-121858370D01*
X130810000Y-105250001D01*
X131804329Y-105250001D01*
X131816589Y-105374483D01*
X131852899Y-105494181D01*
X131911864Y-105604495D01*
X131991216Y-105701186D01*
X132087907Y-105780538D01*
X132198221Y-105839503D01*
X132317919Y-105875813D01*
X132442401Y-105888073D01*
X133241651Y-105885001D01*
X133400401Y-105726251D01*
X133400401Y-104292001D01*
X133654401Y-104292001D01*
X133654401Y-105726251D01*
X133813151Y-105885001D01*
X134612401Y-105888073D01*
X134736883Y-105875813D01*
X134856581Y-105839503D01*
X134966895Y-105780538D01*
X135063586Y-105701186D01*
X135142938Y-105604495D01*
X135201903Y-105494181D01*
X135238213Y-105374483D01*
X135250473Y-105250001D01*
X135247401Y-104450751D01*
X135088651Y-104292001D01*
X133654401Y-104292001D01*
X133400401Y-104292001D01*
X131966151Y-104292001D01*
X131807401Y-104450751D01*
X131804329Y-105250001D01*
X130810000Y-105250001D01*
X130810000Y-103080001D01*
X131804329Y-103080001D01*
X131807401Y-103879251D01*
X131966151Y-104038001D01*
X133400401Y-104038001D01*
X133400401Y-102603751D01*
X133654401Y-102603751D01*
X133654401Y-104038001D01*
X135088651Y-104038001D01*
X135147307Y-103979345D01*
X151642401Y-103979345D01*
X151642401Y-104350657D01*
X151714840Y-104714835D01*
X151856935Y-105057883D01*
X152063226Y-105366619D01*
X152325783Y-105629176D01*
X152634519Y-105835467D01*
X152977567Y-105977562D01*
X153341745Y-106050001D01*
X153713057Y-106050001D01*
X154077235Y-105977562D01*
X154420283Y-105835467D01*
X154729019Y-105629176D01*
X154991576Y-105366619D01*
X155173957Y-105093666D01*
X155700001Y-105093666D01*
X155700001Y-105376336D01*
X155755148Y-105653575D01*
X155863321Y-105914728D01*
X156020364Y-106149760D01*
X156220242Y-106349638D01*
X156373002Y-106451709D01*
X156373001Y-108068294D01*
X156220242Y-108170364D01*
X156020364Y-108370242D01*
X155863321Y-108605274D01*
X155755148Y-108866427D01*
X155700001Y-109143666D01*
X155700001Y-109426336D01*
X155755148Y-109703575D01*
X155863321Y-109964728D01*
X156020364Y-110199760D01*
X156220242Y-110399638D01*
X156455274Y-110556681D01*
X156716427Y-110664854D01*
X156993666Y-110720001D01*
X157276336Y-110720001D01*
X157553575Y-110664854D01*
X157814728Y-110556681D01*
X158049760Y-110399638D01*
X158249638Y-110199760D01*
X158406681Y-109964728D01*
X158514854Y-109703575D01*
X158570001Y-109426336D01*
X158570001Y-109143666D01*
X158514854Y-108866427D01*
X158406681Y-108605274D01*
X158249638Y-108370242D01*
X158049760Y-108170364D01*
X157897001Y-108068294D01*
X157897001Y-106451708D01*
X158049760Y-106349638D01*
X158249638Y-106149760D01*
X158406681Y-105914728D01*
X158514854Y-105653575D01*
X158570001Y-105376336D01*
X158570001Y-105093666D01*
X158514854Y-104816427D01*
X158406681Y-104555274D01*
X158249638Y-104320242D01*
X158049760Y-104120364D01*
X157814728Y-103963321D01*
X157553575Y-103855148D01*
X157276336Y-103800001D01*
X156993666Y-103800001D01*
X156716427Y-103855148D01*
X156455274Y-103963321D01*
X156220242Y-104120364D01*
X156020364Y-104320242D01*
X155863321Y-104555274D01*
X155755148Y-104816427D01*
X155700001Y-105093666D01*
X155173957Y-105093666D01*
X155197867Y-105057883D01*
X155339962Y-104714835D01*
X155412401Y-104350657D01*
X155412401Y-103979345D01*
X155339962Y-103615167D01*
X155197867Y-103272119D01*
X154991576Y-102963383D01*
X154729019Y-102700826D01*
X154420283Y-102494535D01*
X154077235Y-102352440D01*
X153713057Y-102280001D01*
X153341745Y-102280001D01*
X152977567Y-102352440D01*
X152634519Y-102494535D01*
X152325783Y-102700826D01*
X152063226Y-102963383D01*
X151856935Y-103272119D01*
X151714840Y-103615167D01*
X151642401Y-103979345D01*
X135147307Y-103979345D01*
X135247401Y-103879251D01*
X135250473Y-103080001D01*
X135238213Y-102955519D01*
X135201903Y-102835821D01*
X135142938Y-102725507D01*
X135063586Y-102628816D01*
X134966895Y-102549464D01*
X134856581Y-102490499D01*
X134736883Y-102454189D01*
X134612401Y-102441929D01*
X133813151Y-102445001D01*
X133654401Y-102603751D01*
X133400401Y-102603751D01*
X133241651Y-102445001D01*
X132442401Y-102441929D01*
X132317919Y-102454189D01*
X132198221Y-102490499D01*
X132087907Y-102549464D01*
X131991216Y-102628816D01*
X131911864Y-102725507D01*
X131852899Y-102835821D01*
X131816589Y-102955519D01*
X131804329Y-103080001D01*
X130810000Y-103080001D01*
X130810000Y-102057565D01*
X156899641Y-102057565D01*
X156966621Y-102297656D01*
X157215649Y-102414756D01*
X157482736Y-102481023D01*
X157757618Y-102493910D01*
X158029734Y-102452922D01*
X158288624Y-102359636D01*
X158404581Y-102297656D01*
X158471561Y-102057565D01*
X157685601Y-101271605D01*
X156899641Y-102057565D01*
X130810000Y-102057565D01*
X130810000Y-101164017D01*
X156283691Y-101164017D01*
X156324679Y-101436133D01*
X156417965Y-101695023D01*
X156479945Y-101810980D01*
X156720036Y-101877960D01*
X157505996Y-101092000D01*
X156720036Y-100306040D01*
X156479945Y-100373020D01*
X156362845Y-100622048D01*
X156296578Y-100889135D01*
X156283691Y-101164017D01*
X130810000Y-101164017D01*
X130810000Y-86421630D01*
X141539631Y-75692000D01*
X143697024Y-75692000D01*
X143841688Y-75908505D01*
X144055495Y-76122312D01*
X144306905Y-76290299D01*
X144586257Y-76406011D01*
X144882816Y-76465000D01*
X145185184Y-76465000D01*
X145481743Y-76406011D01*
X145761095Y-76290299D01*
X146012505Y-76122312D01*
X146078944Y-76055873D01*
X146084498Y-76074180D01*
X146143463Y-76184494D01*
X146222815Y-76281185D01*
X146319506Y-76360537D01*
X146429820Y-76419502D01*
X146549518Y-76455812D01*
X146674000Y-76468072D01*
X148474000Y-76468072D01*
X148598482Y-76455812D01*
X148718180Y-76419502D01*
X148828494Y-76360537D01*
X148925185Y-76281185D01*
X149004537Y-76184494D01*
X149063502Y-76074180D01*
X149099812Y-75954482D01*
X149112072Y-75830000D01*
X149112072Y-74030000D01*
X149099812Y-73905518D01*
X149063502Y-73785820D01*
X149004537Y-73675506D01*
X148925185Y-73578815D01*
X148828494Y-73499463D01*
X148718180Y-73440498D01*
X148598482Y-73404188D01*
X148474000Y-73391928D01*
X148336000Y-73391928D01*
X148336000Y-73213630D01*
X148651631Y-72898000D01*
X159196370Y-72898000D01*
X159512000Y-73213631D01*
X159512000Y-73391928D01*
X159374000Y-73391928D01*
X159249518Y-73404188D01*
X159129820Y-73440498D01*
X159019506Y-73499463D01*
X158922815Y-73578815D01*
X158843463Y-73675506D01*
X158784498Y-73785820D01*
X158778944Y-73804127D01*
X158712505Y-73737688D01*
X158461095Y-73569701D01*
X158181743Y-73453989D01*
X157885184Y-73395000D01*
X157582816Y-73395000D01*
X157286257Y-73453989D01*
X157006905Y-73569701D01*
X156755495Y-73737688D01*
X156541688Y-73951495D01*
X156373701Y-74202905D01*
X156257989Y-74482257D01*
X156199000Y-74778816D01*
X156199000Y-75081184D01*
X156257989Y-75377743D01*
X156373701Y-75657095D01*
X156541688Y-75908505D01*
X156755495Y-76122312D01*
X157006905Y-76290299D01*
X157286257Y-76406011D01*
X157582816Y-76465000D01*
X157885184Y-76465000D01*
X158181743Y-76406011D01*
X158461095Y-76290299D01*
X158712505Y-76122312D01*
X158778944Y-76055873D01*
X158784498Y-76074180D01*
X158843463Y-76184494D01*
X158922815Y-76281185D01*
X159019506Y-76360537D01*
X159129820Y-76419502D01*
X159249518Y-76455812D01*
X159374000Y-76468072D01*
X161174000Y-76468072D01*
X161298482Y-76455812D01*
X161418180Y-76419502D01*
X161528494Y-76360537D01*
X161625185Y-76281185D01*
X161704537Y-76184494D01*
X161763502Y-76074180D01*
X161799812Y-75954482D01*
X161812072Y-75830000D01*
X161812072Y-75767702D01*
X178816001Y-92771632D01*
X178816001Y-95608371D01*
X177764158Y-94556528D01*
X177800001Y-94376336D01*
X177800001Y-94093666D01*
X177744854Y-93816427D01*
X177636681Y-93555274D01*
X177479638Y-93320242D01*
X177279760Y-93120364D01*
X177044728Y-92963321D01*
X176783575Y-92855148D01*
X176506336Y-92800001D01*
X176223666Y-92800001D01*
X175946427Y-92855148D01*
X175685274Y-92963321D01*
X175450242Y-93120364D01*
X175250364Y-93320242D01*
X175093321Y-93555274D01*
X174985148Y-93816427D01*
X174930001Y-94093666D01*
X174930001Y-94376336D01*
X174985148Y-94653575D01*
X175093321Y-94914728D01*
X175250364Y-95149760D01*
X175450242Y-95349638D01*
X175685274Y-95506681D01*
X175946427Y-95614854D01*
X176223666Y-95670001D01*
X176506336Y-95670001D01*
X176686528Y-95634158D01*
X177546001Y-96493631D01*
X177546001Y-97469561D01*
X177479638Y-97370242D01*
X177279760Y-97170364D01*
X177044728Y-97013321D01*
X176783575Y-96905148D01*
X176506336Y-96850001D01*
X176223666Y-96850001D01*
X175946427Y-96905148D01*
X175685274Y-97013321D01*
X175450242Y-97170364D01*
X175250364Y-97370242D01*
X175212516Y-97426885D01*
X171508285Y-93722655D01*
X171484423Y-93693579D01*
X171368393Y-93598356D01*
X171236016Y-93527599D01*
X171092379Y-93484027D01*
X170980427Y-93473001D01*
X170980424Y-93473001D01*
X170943001Y-93469315D01*
X170905578Y-93473001D01*
X169961708Y-93473001D01*
X169859638Y-93320242D01*
X169659760Y-93120364D01*
X169424728Y-92963321D01*
X169163575Y-92855148D01*
X168886336Y-92800001D01*
X168603666Y-92800001D01*
X168326427Y-92855148D01*
X168065274Y-92963321D01*
X167830242Y-93120364D01*
X167630364Y-93320242D01*
X167473321Y-93555274D01*
X167365148Y-93816427D01*
X167310001Y-94093666D01*
X167310001Y-94376336D01*
X167365148Y-94653575D01*
X167473321Y-94914728D01*
X167630364Y-95149760D01*
X167830242Y-95349638D01*
X168061262Y-95504000D01*
X161859631Y-95504000D01*
X160994215Y-94638585D01*
X161116136Y-94557120D01*
X161310721Y-94362535D01*
X161463606Y-94133727D01*
X161495601Y-94056485D01*
X161527596Y-94133727D01*
X161680481Y-94362535D01*
X161875066Y-94557120D01*
X162103874Y-94710005D01*
X162358111Y-94815314D01*
X162628009Y-94869000D01*
X162903193Y-94869000D01*
X163173091Y-94815314D01*
X163427328Y-94710005D01*
X163656136Y-94557120D01*
X163850721Y-94362535D01*
X164003606Y-94133727D01*
X164035601Y-94056485D01*
X164067596Y-94133727D01*
X164220481Y-94362535D01*
X164415066Y-94557120D01*
X164643874Y-94710005D01*
X164898111Y-94815314D01*
X165168009Y-94869000D01*
X165443193Y-94869000D01*
X165713091Y-94815314D01*
X165967328Y-94710005D01*
X166196136Y-94557120D01*
X166390721Y-94362535D01*
X166543606Y-94133727D01*
X166648915Y-93879490D01*
X166702601Y-93609592D01*
X166702601Y-93334408D01*
X166648915Y-93064510D01*
X166543606Y-92810273D01*
X166390721Y-92581465D01*
X166196136Y-92386880D01*
X165967328Y-92233995D01*
X165713091Y-92128686D01*
X165443193Y-92075000D01*
X165168009Y-92075000D01*
X164898111Y-92128686D01*
X164643874Y-92233995D01*
X164415066Y-92386880D01*
X164220481Y-92581465D01*
X164067596Y-92810273D01*
X164035601Y-92887515D01*
X164003606Y-92810273D01*
X163850721Y-92581465D01*
X163656136Y-92386880D01*
X163427328Y-92233995D01*
X163173091Y-92128686D01*
X162903193Y-92075000D01*
X162628009Y-92075000D01*
X162476390Y-92105159D01*
X161347284Y-90976053D01*
X161323422Y-90946977D01*
X161207392Y-90851754D01*
X161075015Y-90780997D01*
X160931378Y-90737425D01*
X160819426Y-90726399D01*
X160819423Y-90726399D01*
X160782000Y-90722713D01*
X160744577Y-90726399D01*
X156041822Y-90726399D01*
X156004399Y-90722713D01*
X155966976Y-90726399D01*
X155966973Y-90726399D01*
X155855021Y-90737425D01*
X155711384Y-90780997D01*
X155649763Y-90813934D01*
X155579006Y-90851754D01*
X155496303Y-90919627D01*
X155462977Y-90946977D01*
X155439120Y-90976047D01*
X154016452Y-92398716D01*
X153987376Y-92422578D01*
X153959948Y-92456000D01*
X153892153Y-92538608D01*
X153869246Y-92581465D01*
X153821396Y-92670986D01*
X153777824Y-92814623D01*
X153773833Y-92855148D01*
X153763112Y-92964000D01*
X153766798Y-93001423D01*
X153766799Y-95309365D01*
X153763112Y-95346798D01*
X153777825Y-95496176D01*
X153821397Y-95639813D01*
X153892153Y-95772190D01*
X153948302Y-95840607D01*
X153987377Y-95888220D01*
X154016447Y-95912077D01*
X157676716Y-99572346D01*
X157700578Y-99601422D01*
X157774219Y-99661857D01*
X157816607Y-99696645D01*
X157822684Y-99699893D01*
X157613584Y-99690090D01*
X157341468Y-99731078D01*
X157082578Y-99824364D01*
X156966621Y-99886344D01*
X156899641Y-100126435D01*
X157685601Y-100912395D01*
X158471561Y-100126435D01*
X158404581Y-99886344D01*
X158269768Y-99822951D01*
X158279423Y-99822000D01*
X159463601Y-99822000D01*
X159463601Y-99920995D01*
X159335066Y-100006880D01*
X159140481Y-100201465D01*
X158987596Y-100430273D01*
X158957909Y-100501943D01*
X158953237Y-100488977D01*
X158891257Y-100373020D01*
X158651166Y-100306040D01*
X157865206Y-101092000D01*
X158651166Y-101877960D01*
X158891257Y-101810980D01*
X158955086Y-101675240D01*
X158987596Y-101753727D01*
X159140481Y-101982535D01*
X159335066Y-102177120D01*
X159563874Y-102330005D01*
X159818111Y-102435314D01*
X160088009Y-102489000D01*
X160363193Y-102489000D01*
X160633091Y-102435314D01*
X160887328Y-102330005D01*
X161116136Y-102177120D01*
X161310721Y-101982535D01*
X161463606Y-101753727D01*
X161495601Y-101676485D01*
X161527596Y-101753727D01*
X161680481Y-101982535D01*
X161875066Y-102177120D01*
X162103874Y-102330005D01*
X162358111Y-102435314D01*
X162628009Y-102489000D01*
X162903193Y-102489000D01*
X163173091Y-102435314D01*
X163427328Y-102330005D01*
X163656136Y-102177120D01*
X163850721Y-101982535D01*
X164003606Y-101753727D01*
X164035601Y-101676485D01*
X164067596Y-101753727D01*
X164220481Y-101982535D01*
X164415066Y-102177120D01*
X164643874Y-102330005D01*
X164898111Y-102435314D01*
X165168009Y-102489000D01*
X165443193Y-102489000D01*
X165713091Y-102435314D01*
X165967328Y-102330005D01*
X166196136Y-102177120D01*
X166390721Y-101982535D01*
X166543606Y-101753727D01*
X166648915Y-101499490D01*
X166702601Y-101229592D01*
X166702601Y-100954408D01*
X166648915Y-100684510D01*
X166543606Y-100430273D01*
X166390721Y-100201465D01*
X166196136Y-100006880D01*
X165967328Y-99853995D01*
X165713091Y-99748686D01*
X165443193Y-99695000D01*
X165168009Y-99695000D01*
X164898111Y-99748686D01*
X164643874Y-99853995D01*
X164415066Y-100006880D01*
X164220481Y-100201465D01*
X164067596Y-100430273D01*
X164035601Y-100507515D01*
X164003606Y-100430273D01*
X163850721Y-100201465D01*
X163656136Y-100006880D01*
X163527601Y-99920995D01*
X163527601Y-99170029D01*
X163650630Y-99047001D01*
X167528294Y-99047001D01*
X167630364Y-99199760D01*
X167830242Y-99399638D01*
X168065274Y-99556681D01*
X168326427Y-99664854D01*
X168603666Y-99720001D01*
X168886336Y-99720001D01*
X169163575Y-99664854D01*
X169424728Y-99556681D01*
X169659760Y-99399638D01*
X169859638Y-99199760D01*
X170016681Y-98964728D01*
X170124854Y-98703575D01*
X170180001Y-98426336D01*
X170180001Y-98143666D01*
X170124854Y-97866427D01*
X170016681Y-97605274D01*
X169859638Y-97370242D01*
X169659760Y-97170364D01*
X169446697Y-97028000D01*
X169864370Y-97028000D01*
X170434001Y-97597632D01*
X170434000Y-99506369D01*
X167392650Y-102547720D01*
X167363580Y-102571577D01*
X167339723Y-102600647D01*
X167339722Y-102600648D01*
X167268356Y-102687607D01*
X167197600Y-102819984D01*
X167154028Y-102963621D01*
X167139315Y-103112999D01*
X167143002Y-103150432D01*
X167143002Y-104018294D01*
X166990242Y-104120364D01*
X166790364Y-104320242D01*
X166633321Y-104555274D01*
X166525148Y-104816427D01*
X166470001Y-105093666D01*
X166470001Y-105376336D01*
X166525148Y-105653575D01*
X166633321Y-105914728D01*
X166790364Y-106149760D01*
X166812604Y-106172000D01*
X165847398Y-106172000D01*
X165869638Y-106149760D01*
X166026681Y-105914728D01*
X166134854Y-105653575D01*
X166190001Y-105376336D01*
X166190001Y-105093666D01*
X166134854Y-104816427D01*
X166026681Y-104555274D01*
X165869638Y-104320242D01*
X165669760Y-104120364D01*
X165434728Y-103963321D01*
X165173575Y-103855148D01*
X164896336Y-103800001D01*
X164613666Y-103800001D01*
X164336427Y-103855148D01*
X164075274Y-103963321D01*
X163840242Y-104120364D01*
X163640364Y-104320242D01*
X163483321Y-104555274D01*
X163375148Y-104816427D01*
X163320001Y-105093666D01*
X163320001Y-105376336D01*
X163375148Y-105653575D01*
X163483321Y-105914728D01*
X163640364Y-106149760D01*
X163840242Y-106349638D01*
X164075274Y-106506681D01*
X164336427Y-106614854D01*
X164613666Y-106670001D01*
X164794368Y-106670001D01*
X164242650Y-107221720D01*
X164213580Y-107245577D01*
X164189723Y-107274647D01*
X164189722Y-107274648D01*
X164118356Y-107361607D01*
X164047600Y-107493984D01*
X164004028Y-107637621D01*
X163989315Y-107786999D01*
X163993002Y-107824432D01*
X163993002Y-108068293D01*
X163840242Y-108170364D01*
X163640364Y-108370242D01*
X163483321Y-108605274D01*
X163375148Y-108866427D01*
X163320001Y-109143666D01*
X163320001Y-109426336D01*
X163375148Y-109703575D01*
X163483321Y-109964728D01*
X163640364Y-110199760D01*
X163840242Y-110399638D01*
X164075274Y-110556681D01*
X164336427Y-110664854D01*
X164613666Y-110720001D01*
X164896336Y-110720001D01*
X165173575Y-110664854D01*
X165434728Y-110556681D01*
X165669760Y-110399638D01*
X165869638Y-110199760D01*
X166026681Y-109964728D01*
X166134854Y-109703575D01*
X166190001Y-109426336D01*
X166190001Y-109143666D01*
X166134854Y-108866427D01*
X166026681Y-108605274D01*
X165869638Y-108370242D01*
X165669760Y-108170364D01*
X165537584Y-108082047D01*
X165923631Y-107696000D01*
X167602577Y-107696000D01*
X167640000Y-107699686D01*
X167677423Y-107696000D01*
X167677426Y-107696000D01*
X167789378Y-107684974D01*
X167933015Y-107641402D01*
X168065392Y-107570645D01*
X168181422Y-107475422D01*
X168205284Y-107446346D01*
X168417348Y-107234282D01*
X168446423Y-107210421D01*
X168541646Y-107094391D01*
X168612403Y-106962014D01*
X168655975Y-106818377D01*
X168667001Y-106706425D01*
X168667001Y-106706423D01*
X168670687Y-106669000D01*
X168667001Y-106631577D01*
X168667001Y-106451708D01*
X168819760Y-106349638D01*
X169019638Y-106149760D01*
X169176681Y-105914728D01*
X169284854Y-105653575D01*
X169340001Y-105376336D01*
X169340001Y-105093666D01*
X169284854Y-104816427D01*
X169176681Y-104555274D01*
X169019638Y-104320242D01*
X168819760Y-104120364D01*
X168667001Y-104018294D01*
X168667001Y-103428629D01*
X171708353Y-100387278D01*
X171737422Y-100363422D01*
X171832645Y-100247392D01*
X171903402Y-100115015D01*
X171946974Y-99971378D01*
X171958000Y-99859426D01*
X171958000Y-99859424D01*
X171961686Y-99822001D01*
X171958000Y-99784578D01*
X171958000Y-97319423D01*
X171961686Y-97282000D01*
X171958000Y-97244574D01*
X171946974Y-97132622D01*
X171903402Y-96988985D01*
X171857252Y-96902645D01*
X171832645Y-96856607D01*
X171761279Y-96769648D01*
X171737422Y-96740578D01*
X171708351Y-96716721D01*
X170745284Y-95753654D01*
X170721422Y-95724578D01*
X170605392Y-95629355D01*
X170473015Y-95558598D01*
X170329378Y-95515026D01*
X170217426Y-95504000D01*
X170217423Y-95504000D01*
X170180000Y-95500314D01*
X170142577Y-95504000D01*
X169428740Y-95504000D01*
X169659760Y-95349638D01*
X169859638Y-95149760D01*
X169961708Y-94997001D01*
X170627371Y-94997001D01*
X173915370Y-98285001D01*
X172207649Y-99992723D01*
X172178579Y-100016580D01*
X172154722Y-100045650D01*
X172154721Y-100045651D01*
X172083355Y-100132610D01*
X172012599Y-100264987D01*
X171969027Y-100408624D01*
X171954314Y-100558002D01*
X171958001Y-100595435D01*
X171958000Y-105348369D01*
X168627891Y-108678479D01*
X168598821Y-108702336D01*
X168574964Y-108731406D01*
X168574963Y-108731407D01*
X168503597Y-108818366D01*
X168432841Y-108950743D01*
X168389269Y-109094380D01*
X168374556Y-109243758D01*
X168378243Y-109281191D01*
X168378243Y-109746929D01*
X168340242Y-109746929D01*
X168215760Y-109759189D01*
X168096062Y-109795499D01*
X167985748Y-109854464D01*
X167889057Y-109933816D01*
X167809705Y-110030507D01*
X167750740Y-110140821D01*
X167714430Y-110260519D01*
X167702170Y-110385001D01*
X167702170Y-111985001D01*
X167714430Y-112109483D01*
X167750740Y-112229181D01*
X167809705Y-112339495D01*
X167889057Y-112436186D01*
X167985748Y-112515538D01*
X168096062Y-112574503D01*
X168215760Y-112610813D01*
X168340242Y-112623073D01*
X169940242Y-112623073D01*
X170064724Y-112610813D01*
X170184422Y-112574503D01*
X170294736Y-112515538D01*
X170391427Y-112436186D01*
X170470779Y-112339495D01*
X170529744Y-112229181D01*
X170545359Y-112177703D01*
X170827145Y-112177703D01*
X170898728Y-112421672D01*
X171154238Y-112542572D01*
X171428426Y-112611301D01*
X171710754Y-112625218D01*
X171990372Y-112583788D01*
X172256534Y-112488604D01*
X172381756Y-112421672D01*
X172453339Y-112177703D01*
X171640242Y-111364606D01*
X170827145Y-112177703D01*
X170545359Y-112177703D01*
X170566054Y-112109483D01*
X170578314Y-111985001D01*
X170578314Y-111977786D01*
X170647540Y-111998098D01*
X171460637Y-111185001D01*
X171819847Y-111185001D01*
X172632944Y-111998098D01*
X172876913Y-111926515D01*
X172997813Y-111671005D01*
X173066542Y-111396817D01*
X173080459Y-111114489D01*
X173039029Y-110834871D01*
X172943845Y-110568709D01*
X172876913Y-110443487D01*
X172632944Y-110371904D01*
X171819847Y-111185001D01*
X171460637Y-111185001D01*
X170647540Y-110371904D01*
X170578314Y-110392216D01*
X170578314Y-110385001D01*
X170566054Y-110260519D01*
X170545360Y-110192299D01*
X170827145Y-110192299D01*
X171640242Y-111005396D01*
X172453339Y-110192299D01*
X172381756Y-109948330D01*
X172126246Y-109827430D01*
X171852058Y-109758701D01*
X171569730Y-109744784D01*
X171290112Y-109786214D01*
X171023950Y-109881398D01*
X170898728Y-109948330D01*
X170827145Y-110192299D01*
X170545360Y-110192299D01*
X170529744Y-110140821D01*
X170470779Y-110030507D01*
X170391427Y-109933816D01*
X170294736Y-109854464D01*
X170184422Y-109795499D01*
X170064724Y-109759189D01*
X169940242Y-109746929D01*
X169902242Y-109746929D01*
X169902242Y-109559388D01*
X173232353Y-106229278D01*
X173261422Y-106205422D01*
X173356645Y-106089392D01*
X173427402Y-105957015D01*
X173470974Y-105813378D01*
X173482000Y-105701426D01*
X173482000Y-105701424D01*
X173485686Y-105664001D01*
X173482000Y-105626578D01*
X173482000Y-105093666D01*
X174090001Y-105093666D01*
X174090001Y-105376336D01*
X174145148Y-105653575D01*
X174253321Y-105914728D01*
X174410364Y-106149760D01*
X174610242Y-106349638D01*
X174845274Y-106506681D01*
X175106427Y-106614854D01*
X175383666Y-106670001D01*
X175666336Y-106670001D01*
X175943575Y-106614854D01*
X176204728Y-106506681D01*
X176439760Y-106349638D01*
X176639638Y-106149760D01*
X176796681Y-105914728D01*
X176904854Y-105653575D01*
X176960001Y-105376336D01*
X176960001Y-105093666D01*
X176904854Y-104816427D01*
X176796681Y-104555274D01*
X176639638Y-104320242D01*
X176439760Y-104120364D01*
X176204728Y-103963321D01*
X175943575Y-103855148D01*
X175666336Y-103800001D01*
X175383666Y-103800001D01*
X175106427Y-103855148D01*
X174845274Y-103963321D01*
X174610242Y-104120364D01*
X174410364Y-104320242D01*
X174253321Y-104555274D01*
X174145148Y-104816427D01*
X174090001Y-105093666D01*
X173482000Y-105093666D01*
X173482000Y-100873632D01*
X175212516Y-99143117D01*
X175250364Y-99199760D01*
X175450242Y-99399638D01*
X175685274Y-99556681D01*
X175946427Y-99664854D01*
X176223666Y-99720001D01*
X176506336Y-99720001D01*
X176783575Y-99664854D01*
X177044728Y-99556681D01*
X177279760Y-99399638D01*
X177479638Y-99199760D01*
X177546001Y-99100441D01*
X177546000Y-118048369D01*
X175646370Y-119948000D01*
X175400573Y-119948000D01*
X175319799Y-119827114D01*
X175126886Y-119634201D01*
X174922446Y-119497599D01*
X174994000Y-119498072D01*
X175118482Y-119485812D01*
X175238180Y-119449502D01*
X175348494Y-119390537D01*
X175445185Y-119311185D01*
X175524537Y-119214494D01*
X175583502Y-119104180D01*
X175619812Y-118984482D01*
X175632072Y-118860000D01*
X175629000Y-118395750D01*
X175470250Y-118237000D01*
X174371000Y-118237000D01*
X174371000Y-118257000D01*
X174117000Y-118257000D01*
X174117000Y-118237000D01*
X173017750Y-118237000D01*
X172859000Y-118395750D01*
X172855928Y-118860000D01*
X172868188Y-118984482D01*
X172904498Y-119104180D01*
X172963463Y-119214494D01*
X173042815Y-119311185D01*
X173139506Y-119390537D01*
X173249820Y-119449502D01*
X173369518Y-119485812D01*
X173494000Y-119498072D01*
X173565554Y-119497599D01*
X173361114Y-119634201D01*
X173168201Y-119827114D01*
X173016629Y-120053957D01*
X172912225Y-120306011D01*
X172859000Y-120573589D01*
X172859000Y-120846411D01*
X172912225Y-121113989D01*
X173016629Y-121366043D01*
X173168201Y-121592886D01*
X173361114Y-121785799D01*
X173587957Y-121937371D01*
X173763299Y-122010000D01*
X173587957Y-122082629D01*
X173361114Y-122234201D01*
X173168201Y-122427114D01*
X173016629Y-122653957D01*
X172912225Y-122906011D01*
X172859000Y-123173589D01*
X172859000Y-123446411D01*
X172912225Y-123713989D01*
X173016629Y-123966043D01*
X173168201Y-124192886D01*
X173361114Y-124385799D01*
X173587957Y-124537371D01*
X173840011Y-124641775D01*
X174107589Y-124695000D01*
X174380411Y-124695000D01*
X174647989Y-124641775D01*
X174900043Y-124537371D01*
X175126886Y-124385799D01*
X175319799Y-124192886D01*
X175400573Y-124072000D01*
X176372577Y-124072000D01*
X176410000Y-124075686D01*
X176447423Y-124072000D01*
X176447426Y-124072000D01*
X176559378Y-124060974D01*
X176703015Y-124017402D01*
X176835392Y-123946645D01*
X176951422Y-123851422D01*
X176975284Y-123822346D01*
X180090347Y-120707283D01*
X180119422Y-120683422D01*
X180196247Y-120589810D01*
X180200301Y-120584871D01*
X180200301Y-126352300D01*
X127647700Y-126352300D01*
X127647700Y-45801595D01*
X146294012Y-45801595D01*
X146294422Y-45860299D01*
X146294012Y-45919003D01*
X146294894Y-45928003D01*
X146333757Y-46297757D01*
X146345563Y-46355274D01*
X146356561Y-46412926D01*
X146359175Y-46421584D01*
X146469117Y-46776747D01*
X146491874Y-46830883D01*
X146513857Y-46885293D01*
X146518102Y-46893278D01*
X146694934Y-47220323D01*
X146727766Y-47268999D01*
X146759906Y-47318114D01*
X146765622Y-47325122D01*
X147002611Y-47611592D01*
X147044267Y-47652958D01*
X147085338Y-47694899D01*
X147092306Y-47700663D01*
X147380423Y-47935646D01*
X147429336Y-47968144D01*
X147477758Y-48001299D01*
X147485708Y-48005597D01*
X147485712Y-48005600D01*
X147485716Y-48005602D01*
X147813985Y-48180145D01*
X147868261Y-48202516D01*
X147922215Y-48225642D01*
X147930852Y-48228315D01*
X147930856Y-48228317D01*
X147930860Y-48228318D01*
X148286777Y-48335775D01*
X148344338Y-48347173D01*
X148401787Y-48359384D01*
X148410778Y-48360329D01*
X148410780Y-48360329D01*
X148780796Y-48396609D01*
X148780809Y-48396609D01*
X148812191Y-48399700D01*
X159035809Y-48399700D01*
X159069080Y-48396423D01*
X159093803Y-48396423D01*
X159102796Y-48395478D01*
X159472270Y-48354035D01*
X159529710Y-48341826D01*
X159587278Y-48330427D01*
X159595917Y-48327753D01*
X159950304Y-48215335D01*
X160004293Y-48192195D01*
X160058536Y-48169838D01*
X160066491Y-48165537D01*
X160392294Y-47986425D01*
X160440740Y-47953253D01*
X160489627Y-47920773D01*
X160496590Y-47915012D01*
X160496596Y-47915008D01*
X160496601Y-47915003D01*
X160781403Y-47676026D01*
X160822470Y-47634090D01*
X160864132Y-47592719D01*
X160869847Y-47585711D01*
X161102813Y-47295960D01*
X161134962Y-47246832D01*
X161167785Y-47198170D01*
X161172030Y-47190185D01*
X161344279Y-46860703D01*
X161366282Y-46806243D01*
X161389019Y-46752156D01*
X161391633Y-46743498D01*
X161496605Y-46386833D01*
X161507611Y-46329137D01*
X161519409Y-46271665D01*
X161520290Y-46262672D01*
X161520292Y-46262663D01*
X161520292Y-46262655D01*
X161553988Y-45892405D01*
X161553578Y-45833701D01*
X161553988Y-45774998D01*
X161553106Y-45765998D01*
X161514243Y-45396243D01*
X161502430Y-45338696D01*
X161491438Y-45281073D01*
X161488825Y-45272416D01*
X161378883Y-44917252D01*
X161356114Y-44863088D01*
X161334143Y-44808706D01*
X161329898Y-44800722D01*
X161153066Y-44473677D01*
X161120234Y-44425001D01*
X161088094Y-44375886D01*
X161082378Y-44368878D01*
X160845389Y-44082408D01*
X160803733Y-44041042D01*
X160762662Y-43999101D01*
X160755694Y-43993337D01*
X160467577Y-43758354D01*
X160418664Y-43725856D01*
X160370242Y-43692701D01*
X160362292Y-43688403D01*
X160362288Y-43688400D01*
X160362284Y-43688398D01*
X160034015Y-43513855D01*
X159979753Y-43491490D01*
X159925784Y-43468358D01*
X159917145Y-43465684D01*
X159561223Y-43358224D01*
X159503626Y-43346819D01*
X159446213Y-43334616D01*
X159437223Y-43333671D01*
X159437219Y-43333671D01*
X159067204Y-43297391D01*
X159067191Y-43297391D01*
X159035809Y-43294300D01*
X148812191Y-43294300D01*
X148778920Y-43297577D01*
X148754197Y-43297577D01*
X148745204Y-43298522D01*
X148375730Y-43339965D01*
X148318265Y-43352180D01*
X148260722Y-43363573D01*
X148252083Y-43366247D01*
X147897696Y-43478665D01*
X147843720Y-43501799D01*
X147789463Y-43524162D01*
X147781509Y-43528463D01*
X147455706Y-43707575D01*
X147407277Y-43740735D01*
X147358372Y-43773227D01*
X147351410Y-43778988D01*
X147351404Y-43778992D01*
X147351399Y-43778997D01*
X147066597Y-44017974D01*
X147025511Y-44059929D01*
X146983868Y-44101282D01*
X146978158Y-44108284D01*
X146978153Y-44108289D01*
X146978149Y-44108294D01*
X146745187Y-44398040D01*
X146713042Y-44447163D01*
X146680215Y-44495831D01*
X146675973Y-44503811D01*
X146675970Y-44503815D01*
X146675970Y-44503816D01*
X146503721Y-44833297D01*
X146481722Y-44887745D01*
X146458981Y-44941844D01*
X146456367Y-44950501D01*
X146351395Y-45307167D01*
X146340389Y-45364863D01*
X146328591Y-45422335D01*
X146327710Y-45431328D01*
X146327708Y-45431337D01*
X146327708Y-45431345D01*
X146294012Y-45801595D01*
X127647700Y-45801595D01*
X127647700Y-42062000D01*
X180200300Y-42062000D01*
X180200301Y-92013128D01*
G37*
%TD.AperFunction*%
%TD*%
M02*
