M48
; DRILL file {KiCad 5.1.10} date Sun Oct 31 07:53:24 2021
; FORMAT={-:-/ absolute / inch / decimal}
; #@! TF.CreationDate,2021-10-31T07:53:24-04:00
; #@! TF.GenerationSoftware,Kicad,Pcbnew,5.1.10
; #@! TF.FileFunction,Plated,1,2,PTH
FMAT,2
INCH
T1C0.0300
T2C0.0315
T3C0.0354
T4C0.0461
T5C0.0591
%
G90
G05
T1
X6.2081Y-3.68
X6.2081Y-3.98
X6.3081Y-3.68
X6.3081Y-3.98
X6.4081Y-3.68
X6.4081Y-3.98
X6.5081Y-3.68
X6.5081Y-3.98
T2
X5.66Y-4.6514
X5.96Y-4.6514
X6.0841Y-4.6514
X6.1864Y-4.1431
X6.1864Y-4.3026
X6.3841Y-4.6514
X6.4864Y-4.1431
X6.4864Y-4.3026
X6.5392Y-4.6608
X6.6104Y-4.1431
X6.6179Y-4.6608
X6.6435Y-3.71
X6.6435Y-3.8695
X6.6591Y-4.3774
X6.7575Y-4.3774
X6.9104Y-4.1431
X6.9435Y-3.71
X6.9435Y-3.8695
T3
X5.2455Y-4.6809
X5.3439Y-4.6809
X5.4423Y-4.6809
X5.71Y-2.95
X5.81Y-2.95
X6.21Y-2.95
X6.31Y-2.95
X6.86Y-4.65
X6.86Y-4.7524
X6.86Y-4.8547
T4
X5.257Y-4.101
T5
X6.0444Y-4.101
T0
M30
